{"glyphs":{"0":{"ha":888,"x_min":138,"x_max":751,"o":"m 154 808 l 301 956 q 342 972 316 972 l 547 972 q 587 957 567 972 l 734 807 q 751 768 751 792 l 751 204 q 734 163 751 182 l 587 16 q 547 0 572 0 l 342 0 q 301 17 316 0 l 154 164 q 138 204 138 182 l 138 768 q 154 808 138 790 m 277 401 l 610 734 q 618 753 618 741 q 610 772 618 764 l 539 843 q 498 859 524 859 l 389 859 q 350 842 365 859 l 268 760 q 252 720 252 745 l 252 412 q 264 395 252 395 q 277 401 272 395 m 389 114 l 498 114 q 539 131 522 114 l 619 212 q 637 253 637 231 l 637 559 q 624 578 637 578 q 611 571 616 578 l 278 237 q 268 220 268 231 q 278 200 268 210 l 350 129 q 389 114 365 114 z "},"1":{"ha":888,"x_min":201,"x_max":688,"o":"m 387 184 l 387 741 q 375 758 387 758 q 361 751 368 758 l 300 689 q 258 672 281 672 q 218 688 235 672 q 201 728 201 704 q 216 771 201 756 l 403 957 q 446 972 418 972 q 485 956 469 972 q 501 916 501 939 l 501 184 q 522 135 501 155 q 572 114 543 114 l 631 114 q 671 97 654 114 q 688 57 688 81 q 671 17 688 33 q 631 0 654 0 l 258 0 q 218 17 235 0 q 201 57 201 33 q 218 97 201 81 q 258 114 235 114 l 317 114 q 367 135 347 114 q 387 184 387 155 z "},"2":{"ha":888,"x_min":138,"x_max":751,"o":"m 253 750 l 253 733 q 236 693 253 709 q 195 676 218 676 q 154 693 171 676 q 138 733 138 709 l 138 798 q 154 839 138 819 l 273 956 q 313 972 288 972 l 576 972 q 615 956 600 972 l 734 839 q 751 798 751 818 l 751 710 q 736 669 751 685 l 269 203 q 256 172 256 193 q 276 131 256 147 q 322 114 297 114 l 694 114 q 735 97 718 114 q 751 57 751 81 q 735 17 751 33 q 694 0 718 0 l 195 0 q 154 17 171 0 q 138 57 138 33 l 138 211 q 154 253 138 237 l 623 721 q 637 754 637 732 q 623 786 637 773 l 568 842 q 528 859 553 859 l 361 859 q 321 842 338 859 l 269 789 q 253 750 253 774 z "},"3":{"ha":888,"x_min":138,"x_max":751,"o":"m 253 750 l 253 733 q 236 693 253 709 q 195 676 218 676 q 154 693 171 676 q 138 733 138 709 l 138 798 q 154 839 138 819 l 273 956 q 313 972 288 972 l 576 972 q 615 956 600 972 l 736 839 q 751 798 751 819 l 751 604 q 736 564 751 579 l 707 536 q 686 486 686 513 q 707 436 686 460 l 736 408 q 751 368 751 393 l 751 175 q 736 134 751 154 l 615 17 q 576 0 600 0 l 313 0 q 273 17 288 0 l 154 134 q 138 175 138 154 l 138 240 q 154 280 138 264 q 195 296 171 296 q 236 280 219 296 q 253 240 253 264 l 253 222 q 269 183 253 197 l 321 131 q 361 114 338 114 l 528 114 q 568 131 553 114 l 619 183 q 637 222 637 201 l 637 319 q 619 359 637 341 l 570 412 q 528 429 553 429 l 368 429 q 327 446 343 429 q 310 486 310 463 q 327 527 310 510 q 368 543 343 543 l 528 543 q 570 559 553 543 l 621 612 q 637 653 637 629 l 637 750 q 619 789 637 770 l 568 842 q 528 859 553 859 l 361 859 q 321 842 338 859 l 269 789 q 253 750 253 774 z "},"4":{"ha":888,"x_min":138,"x_max":751,"o":"m 359 511 l 567 511 q 617 532 596 511 q 637 582 637 553 l 637 916 q 654 956 637 939 q 694 972 671 972 q 735 956 718 972 q 751 916 751 939 l 751 57 q 735 17 751 33 q 694 0 718 0 q 654 17 671 0 q 637 57 637 33 l 637 326 q 617 377 637 356 q 567 397 596 397 l 311 397 q 272 414 286 397 l 154 530 q 138 574 138 551 l 138 916 q 154 956 138 939 q 195 972 171 972 q 235 956 218 972 q 252 916 252 939 l 252 619 q 268 581 252 595 l 319 528 q 359 511 336 511 z "},"5":{"ha":888,"x_min":138,"x_max":751,"o":"m 252 240 l 252 222 q 268 183 252 197 l 319 131 q 359 114 336 114 l 528 114 q 568 131 553 114 l 619 183 q 637 222 637 201 l 637 353 q 619 392 637 374 l 568 444 q 528 461 553 461 l 311 461 q 272 478 287 461 l 154 595 q 138 637 138 613 l 138 916 q 154 956 138 939 q 195 972 171 972 l 694 972 q 735 956 718 972 q 751 916 751 939 q 735 875 751 892 q 694 859 718 859 l 321 859 q 272 838 292 859 q 252 787 252 817 l 252 684 q 268 644 252 659 l 319 591 q 359 575 336 575 l 575 575 q 615 558 600 575 l 736 441 q 751 399 751 421 l 751 175 q 736 134 751 154 l 615 17 q 575 0 600 0 l 311 0 q 272 17 287 0 l 154 134 q 138 175 138 154 l 138 240 q 154 280 138 264 q 195 296 171 296 q 235 280 218 296 q 252 240 252 264 z "},"6":{"ha":888,"x_min":138,"x_max":751,"o":"m 637 733 l 637 750 q 619 789 637 770 l 568 842 q 528 859 553 859 l 359 859 q 319 842 336 859 l 268 789 q 252 750 252 774 l 252 614 q 272 564 252 585 q 321 543 292 543 l 575 543 q 616 526 597 543 l 736 408 q 751 368 751 393 l 751 175 q 736 134 751 154 l 615 17 q 575 0 600 0 l 311 0 q 272 17 287 0 l 154 134 q 138 175 138 154 l 138 798 q 154 839 138 819 l 272 956 q 311 972 287 972 l 575 972 q 615 956 600 972 l 736 839 q 751 798 751 819 l 751 733 q 735 693 751 709 q 694 676 718 676 q 654 693 671 676 q 637 733 637 709 m 252 358 l 252 222 q 268 183 252 197 l 319 131 q 359 114 336 114 l 528 114 q 568 131 553 114 l 619 183 q 637 222 637 201 l 637 319 q 619 359 637 341 l 570 412 q 528 429 553 429 l 321 429 q 272 408 292 429 q 252 358 252 387 z "},"7":{"ha":888,"x_min":138,"x_max":751,"o":"m 501 439 l 501 57 q 485 17 501 33 q 446 0 469 0 q 404 17 420 0 q 387 57 387 33 l 387 486 q 403 526 387 511 l 619 745 q 637 783 637 763 l 637 787 q 617 838 637 817 q 567 859 596 859 l 195 859 q 154 875 171 859 q 138 916 138 892 q 154 956 138 939 q 195 972 171 972 l 694 972 q 735 956 718 972 q 751 916 751 939 l 751 736 q 736 694 751 710 l 518 478 q 501 439 501 463 z "},"8":{"ha":888,"x_min":138,"x_max":751,"o":"m 576 0 l 311 0 q 272 17 287 0 l 154 134 q 138 175 138 154 l 138 368 q 154 408 138 392 l 182 436 q 201 486 201 458 q 182 536 201 515 l 154 564 q 138 604 138 580 l 138 798 q 154 839 138 819 l 272 956 q 311 972 287 972 l 576 972 q 615 956 600 972 l 736 839 q 751 798 751 819 l 751 604 q 736 564 751 579 l 707 536 q 686 486 686 513 q 707 436 686 460 l 736 408 q 751 368 751 393 l 751 175 q 736 134 751 154 l 615 17 q 576 0 600 0 m 619 789 l 568 842 q 528 859 553 859 l 359 859 q 319 842 336 859 l 268 789 q 252 750 252 774 l 252 653 q 268 612 252 629 l 318 559 q 359 543 334 543 l 528 543 q 570 559 553 543 l 621 612 q 637 653 637 629 l 637 750 q 619 789 637 770 m 619 359 l 570 412 q 528 429 553 429 l 359 429 q 318 412 335 429 l 267 359 q 252 319 252 345 l 252 222 q 268 183 252 197 l 319 131 q 359 114 336 114 l 528 114 q 568 131 553 114 l 619 183 q 637 222 637 201 l 637 319 q 619 359 637 341 z "},"9":{"ha":888,"x_min":138,"x_max":751,"o":"m 252 240 l 252 222 q 268 183 252 197 l 319 131 q 359 114 336 114 l 528 114 q 568 131 553 114 l 619 183 q 637 222 637 201 l 637 358 q 617 408 637 387 q 567 429 596 429 l 311 429 q 271 446 289 429 l 154 564 q 138 604 138 580 l 138 798 q 154 839 138 819 l 272 956 q 311 972 287 972 l 576 972 q 615 956 600 972 l 736 839 q 751 798 751 819 l 751 175 q 736 134 751 154 l 615 17 q 576 0 600 0 l 311 0 q 272 17 287 0 l 154 134 q 138 175 138 154 l 138 240 q 154 280 138 264 q 195 296 171 296 q 235 280 218 296 q 252 240 252 264 m 637 614 l 637 750 q 619 789 637 770 l 568 842 q 528 859 553 859 l 359 859 q 319 842 336 859 l 268 789 q 252 750 252 774 l 252 653 q 268 612 252 629 l 318 559 q 359 543 334 543 l 567 543 q 617 564 596 543 q 637 614 637 585 z "},"\r":{"ha":347,"x_min":0,"x_max":0,"o":""},"\u0000":{"ha":347,"x_min":0,"x_max":0,"o":""}," ":{"ha":888,"x_min":0,"x_max":0,"o":""},"!":{"ha":888,"x_min":359,"x_max":528,"o":"m 501 916 l 501 339 q 485 299 501 315 q 444 282 468 282 q 404 299 420 282 q 387 339 387 315 l 387 916 q 404 956 387 939 q 444 972 420 972 q 485 956 468 972 q 501 916 501 939 m 472 0 l 415 0 q 375 17 391 0 q 359 57 359 33 l 359 113 q 375 153 359 136 q 415 170 391 170 l 472 170 q 512 153 496 170 q 528 113 528 136 l 528 57 q 512 17 528 33 q 472 0 496 0 z "},"\"":{"ha":888,"x_min":260,"x_max":629,"o":"m 374 916 l 374 720 q 357 680 374 696 q 315 664 340 664 q 276 680 292 664 q 260 720 260 696 l 260 916 q 276 956 260 939 q 315 972 292 972 q 356 956 339 972 q 374 916 374 939 m 629 916 l 629 720 q 613 680 629 696 q 572 664 596 664 q 532 680 549 664 q 515 720 515 696 l 515 916 q 532 956 515 939 q 572 972 549 972 q 613 956 596 972 q 629 916 629 939 z "},"#":{"ha":888,"x_min":138,"x_max":751,"o":"m 212 62 l 237 256 l 237 258 q 212 283 237 283 l 195 283 q 154 300 171 283 q 138 340 138 317 q 154 381 138 364 q 195 397 171 397 l 227 397 q 258 424 256 397 l 271 549 l 271 551 q 245 576 271 576 l 195 576 q 154 594 171 576 q 138 635 138 611 q 154 674 138 659 q 195 690 171 690 l 261 690 q 292 717 290 690 l 313 920 q 333 956 315 941 q 371 971 350 971 l 378 971 q 411 954 397 971 q 425 914 425 937 l 425 907 l 406 718 l 406 715 q 431 690 406 690 l 505 690 q 528 698 518 690 q 538 717 537 705 l 558 920 q 577 956 561 941 q 615 971 594 971 l 623 971 q 658 952 644 968 q 672 914 672 936 l 672 907 l 652 718 l 652 715 q 676 690 652 690 l 694 690 q 735 674 718 690 q 751 635 751 659 q 735 594 751 611 q 694 576 718 576 l 663 576 q 641 569 650 576 q 631 550 631 562 l 618 425 l 618 422 q 644 397 618 397 l 694 397 q 735 381 718 397 q 751 340 751 364 q 735 300 751 317 q 694 283 718 283 l 628 283 q 597 257 600 283 l 572 50 q 552 14 569 28 q 514 -1 536 -1 l 507 -1 q 474 16 488 -1 q 460 56 460 33 l 460 62 l 484 256 l 484 258 q 458 283 484 283 l 383 283 q 353 257 355 283 l 326 50 q 307 14 323 28 q 269 -1 290 -1 l 262 -1 q 227 16 241 -1 q 212 56 212 33 l 212 62 m 397 397 l 472 397 q 503 424 500 397 l 517 549 l 517 551 q 492 576 517 576 l 416 576 q 386 550 388 576 l 372 425 l 372 422 q 397 397 372 397 z "},"$":{"ha":888,"x_min":138,"x_max":751,"o":"m 311 972 l 359 972 q 387 1000 387 972 l 387 1019 q 404 1060 387 1043 q 444 1076 420 1076 q 485 1060 468 1076 q 501 1019 501 1043 l 501 1000 q 529 972 501 972 l 576 972 q 615 956 600 972 l 736 839 q 751 798 751 819 l 751 733 q 735 693 751 709 q 694 676 718 676 q 654 693 671 676 q 637 733 637 709 l 637 750 q 619 789 637 770 l 568 842 q 529 859 553 859 q 501 832 501 859 l 501 572 q 529 545 501 545 l 576 545 q 616 526 598 545 l 736 408 q 751 368 751 393 l 751 176 q 736 134 751 154 l 615 17 q 576 0 600 0 l 529 0 q 501 -28 501 0 l 501 -47 q 485 -88 501 -71 q 444 -104 468 -104 q 404 -88 420 -104 q 387 -47 387 -71 l 387 -28 q 359 0 387 0 l 311 0 q 272 17 287 0 l 154 134 q 138 176 138 154 l 138 240 q 154 280 138 264 q 195 296 171 296 q 235 280 218 296 q 252 240 252 264 l 252 222 q 268 183 252 197 l 321 131 q 359 114 336 114 q 387 142 387 114 l 387 401 q 359 429 387 429 l 311 429 q 271 446 287 429 l 154 564 q 138 604 138 580 l 138 798 q 154 839 138 819 l 272 956 q 311 972 287 972 m 387 571 l 387 832 q 361 859 387 859 q 321 842 338 859 l 268 789 q 252 750 252 774 l 252 653 q 268 612 252 629 l 321 561 q 359 545 335 545 q 387 571 387 545 m 501 403 l 501 142 q 528 114 501 114 q 568 131 553 114 l 619 183 q 637 222 637 201 l 637 319 q 619 359 637 341 l 570 412 q 529 429 553 429 q 501 403 501 429 z "},"%":{"ha":888,"x_min":138,"x_max":751,"o":"m 637 783 l 637 916 q 654 956 637 939 q 694 972 671 972 q 735 956 718 972 q 751 916 751 939 l 751 736 q 734 694 751 713 l 268 228 q 252 189 252 214 l 252 57 q 235 17 252 33 q 195 0 218 0 q 154 17 171 0 q 138 57 138 33 l 138 236 q 155 278 138 258 l 619 745 q 637 783 637 763 m 278 775 l 195 775 q 154 792 171 775 q 138 832 138 808 l 138 916 q 154 956 138 939 q 195 972 171 972 l 278 972 q 318 956 302 972 q 334 916 334 939 l 334 832 q 318 792 334 808 q 278 775 302 775 m 694 0 l 610 0 q 570 17 586 0 q 554 57 554 33 l 554 142 q 570 181 554 165 q 610 197 586 197 l 694 197 q 735 181 718 197 q 751 142 751 165 l 751 57 q 735 17 751 33 q 694 0 718 0 z "},"&":{"ha":888,"x_min":138,"x_max":806,"o":"m 688 401 l 688 176 q 671 134 688 155 l 554 17 q 511 0 535 0 l 311 0 q 272 17 287 0 l 154 134 q 138 176 138 154 l 138 368 q 154 408 138 392 l 182 436 q 201 486 201 458 q 182 536 201 515 l 154 564 q 138 604 138 580 l 138 798 q 154 839 138 819 l 272 956 q 311 972 287 972 l 444 972 q 485 956 468 972 q 501 916 501 939 q 485 875 501 892 q 444 859 468 859 l 359 859 q 319 842 336 859 l 268 789 q 252 750 252 774 l 252 653 q 268 612 252 629 l 318 559 q 359 543 334 543 l 546 543 q 574 571 574 543 l 574 604 q 590 646 574 629 q 629 663 606 663 q 670 645 653 663 q 688 604 688 628 l 688 571 q 715 543 688 543 l 749 543 q 789 527 772 543 q 806 486 806 510 q 789 446 806 463 q 749 429 772 429 l 715 429 q 688 401 688 429 m 574 222 l 574 401 q 546 429 574 429 l 359 429 q 318 412 335 429 l 267 359 q 252 319 252 345 l 252 222 q 268 183 252 197 l 319 131 q 359 114 336 114 l 464 114 q 503 131 488 114 l 557 182 q 574 222 574 199 z "},"'":{"ha":888,"x_min":387,"x_max":501,"o":"m 501 916 l 501 720 q 485 680 501 696 q 444 664 468 664 q 404 680 420 664 q 387 720 387 696 l 387 916 q 404 956 387 939 q 444 972 420 972 q 485 956 468 972 q 501 916 501 939 z "},"(":{"ha":888,"x_min":282,"x_max":606,"o":"m 504 50 l 550 50 q 590 34 574 50 q 606 -7 606 17 q 590 -48 606 -31 q 550 -65 574 -65 l 457 -65 q 416 -47 430 -65 l 297 69 q 282 110 282 86 l 282 861 q 297 901 282 884 l 416 1018 q 457 1036 431 1036 l 550 1036 q 590 1020 574 1036 q 606 979 606 1003 q 590 938 606 955 q 550 921 574 921 l 504 921 q 465 904 480 921 l 412 852 q 396 812 396 836 l 396 158 q 412 118 396 134 l 465 66 q 504 50 479 50 z "},")":{"ha":888,"x_min":282,"x_max":606,"o":"m 339 50 l 383 50 q 422 66 408 50 l 475 118 q 492 158 492 135 l 492 812 q 475 852 492 836 l 422 904 q 383 921 408 921 l 339 921 q 299 938 315 921 q 282 979 282 956 q 299 1020 282 1003 q 339 1036 315 1036 l 431 1036 q 471 1018 456 1036 l 590 901 q 606 861 606 884 l 606 110 q 590 69 606 87 l 471 -47 q 431 -65 457 -65 l 339 -65 q 299 -48 315 -65 q 282 -7 282 -31 q 299 34 282 17 q 339 50 315 50 z "},"*":{"ha":888,"x_min":262,"x_max":625,"o":"m 322 885 l 375 856 q 386 851 380 851 q 403 872 403 851 l 403 932 q 415 961 403 949 q 444 972 427 972 q 473 961 461 972 q 485 932 485 949 l 485 872 q 501 851 485 851 q 513 856 508 851 l 566 885 q 586 889 576 889 q 614 878 603 889 q 625 850 625 867 q 607 814 625 824 l 554 783 q 543 768 543 777 q 554 753 543 760 l 607 721 q 625 686 625 711 q 614 658 625 669 q 586 647 604 647 q 566 652 578 647 l 513 681 q 501 685 509 685 q 485 664 485 685 l 485 604 q 473 575 485 587 q 444 564 461 564 q 415 575 427 564 q 403 604 403 587 l 403 664 q 386 685 403 685 q 375 681 379 685 l 322 652 q 301 647 311 647 q 274 658 285 647 q 262 685 262 669 q 282 721 262 710 l 334 753 q 347 768 347 762 q 334 783 347 776 l 282 814 q 262 851 262 825 q 274 878 262 867 q 301 889 286 889 q 322 885 312 889 z "},"+":{"ha":888,"x_min":197,"x_max":690,"o":"m 572 542 l 635 542 q 674 525 659 542 q 690 485 690 509 q 674 445 690 461 q 635 428 659 428 l 572 428 q 522 408 543 428 q 501 358 501 387 l 501 294 q 485 254 501 271 q 444 237 468 237 q 404 254 420 237 q 387 294 387 271 l 387 358 q 367 408 387 387 q 317 428 347 428 l 254 428 q 214 445 231 428 q 197 485 197 461 q 214 525 197 509 q 254 542 231 542 l 317 542 q 367 562 347 542 q 387 611 387 582 l 387 675 q 404 714 387 699 q 444 730 420 730 q 485 714 468 730 q 501 675 501 699 l 501 611 q 522 562 501 582 q 572 542 543 542 z "},",":{"ha":888,"x_min":359,"x_max":528,"o":"m 415 170 l 471 170 q 511 152 494 170 q 528 111 528 135 l 528 -25 q 511 -66 528 -46 l 452 -125 q 418 -138 439 -138 q 386 -125 398 -138 q 374 -93 374 -113 q 387 -60 374 -75 l 447 0 l 415 0 q 375 17 391 0 q 359 57 359 33 l 359 111 q 375 153 359 136 q 415 170 391 170 z "},"-":{"ha":888,"x_min":197,"x_max":690,"o":"m 254 545 l 635 545 q 674 528 659 545 q 690 488 690 511 q 674 447 690 464 q 635 431 659 431 l 254 431 q 214 447 231 431 q 197 488 197 464 q 214 528 197 511 q 254 545 231 545 z "},".":{"ha":888,"x_min":353,"x_max":536,"o":"m 479 0 l 408 0 q 369 17 385 0 q 353 57 353 33 l 353 126 q 369 166 353 150 q 408 183 385 183 l 479 183 q 520 166 503 183 q 536 126 536 150 l 536 57 q 520 17 536 33 q 479 0 503 0 z "},"/":{"ha":888,"x_min":138,"x_max":751,"o":"m 637 783 l 637 916 q 654 956 637 939 q 694 972 671 972 q 735 956 718 972 q 751 916 751 939 l 751 736 q 734 694 751 713 l 268 228 q 252 189 252 214 l 252 57 q 235 17 252 33 q 195 0 218 0 q 154 17 171 0 q 138 57 138 33 l 138 236 q 155 278 138 258 l 619 745 q 637 783 637 763 z "},":":{"ha":888,"x_min":353,"x_max":536,"o":"m 479 479 l 408 479 q 369 496 385 479 q 353 536 353 513 l 353 606 q 369 646 353 629 q 408 663 385 663 l 479 663 q 520 646 503 663 q 536 606 536 629 l 536 536 q 520 496 536 513 q 479 479 503 479 m 479 0 l 408 0 q 369 17 385 0 q 353 57 353 33 l 353 126 q 369 166 353 150 q 408 183 385 183 l 479 183 q 520 166 503 183 q 536 126 536 150 l 536 57 q 520 17 536 33 q 479 0 503 0 z "},";":{"ha":888,"x_min":353,"x_max":536,"o":"m 479 479 l 408 479 q 369 496 385 479 q 353 536 353 513 l 353 606 q 369 646 353 629 q 408 663 385 663 l 479 663 q 520 646 503 663 q 536 606 536 629 l 536 536 q 520 496 536 513 q 479 479 503 479 m 415 170 l 471 170 q 511 152 494 170 q 528 111 528 135 l 528 -25 q 511 -66 528 -46 l 452 -125 q 418 -138 439 -138 q 386 -125 398 -138 q 374 -93 374 -113 q 386 -60 374 -74 l 447 0 l 415 0 q 375 17 391 0 q 359 57 359 33 l 359 111 q 375 153 359 136 q 415 170 391 170 z "},"<":{"ha":888,"x_min":228,"x_max":661,"o":"m 244 526 l 561 844 q 600 860 576 860 q 643 843 625 860 q 661 802 661 825 q 646 762 661 778 l 416 533 q 393 485 393 513 q 418 433 393 458 l 643 210 q 659 170 659 194 q 643 128 659 144 q 602 111 627 111 q 559 126 574 111 l 244 443 q 228 485 228 457 q 244 526 228 510 z "},"=":{"ha":888,"x_min":197,"x_max":690,"o":"m 254 690 l 635 690 q 674 674 659 690 q 690 635 690 659 q 674 593 690 610 q 635 576 659 576 l 254 576 q 214 593 231 576 q 197 635 197 610 q 214 674 197 659 q 254 690 231 690 m 254 397 l 635 397 q 674 381 659 397 q 690 342 690 366 q 674 300 690 317 q 635 283 659 283 l 254 283 q 214 300 231 283 q 197 342 197 317 q 214 381 197 366 q 254 397 231 397 z "},">":{"ha":888,"x_min":228,"x_max":661,"o":"m 328 844 l 646 526 q 661 485 661 506 q 646 443 661 458 l 329 126 q 288 111 314 111 q 247 128 264 111 q 231 170 231 144 q 248 210 231 195 l 471 433 q 496 485 496 458 q 472 533 496 513 l 244 762 q 228 802 228 777 q 246 843 228 825 q 289 860 264 860 q 328 844 312 860 z "},"?":{"ha":888,"x_min":138,"x_max":751,"o":"m 751 798 l 751 705 q 736 665 751 681 l 518 449 q 501 408 501 432 l 501 339 q 485 299 501 315 q 446 282 469 282 q 404 299 420 282 q 387 339 387 315 l 387 457 q 403 497 387 481 l 619 714 q 637 754 637 732 q 623 786 637 773 l 568 842 q 528 859 553 859 l 361 859 q 321 842 338 859 l 269 789 q 253 750 253 774 l 253 733 q 236 693 253 709 q 195 676 218 676 q 154 693 171 676 q 138 733 138 709 l 138 798 q 154 839 138 819 l 273 956 q 313 972 288 972 l 576 972 q 615 956 600 972 l 734 839 q 751 798 751 818 m 472 0 l 415 0 q 375 17 391 0 q 359 57 359 33 l 359 113 q 375 153 359 136 q 415 170 391 170 l 472 170 q 512 153 496 170 q 528 113 528 136 l 528 57 q 512 17 528 33 q 472 0 496 0 z "},"@":{"ha":888,"x_min":138,"x_max":751,"o":"m 518 404 l 543 380 q 582 364 557 364 l 608 364 q 629 372 621 364 q 637 392 637 379 l 637 750 q 619 789 637 770 l 568 842 q 528 859 553 859 l 361 859 q 321 842 338 859 l 268 789 q 252 750 252 774 l 252 222 q 268 183 252 197 l 321 131 q 361 114 338 114 l 567 114 q 607 97 591 114 q 623 57 623 81 q 607 17 623 33 q 567 0 591 0 l 311 0 q 272 17 287 0 l 154 134 q 138 176 138 154 l 138 798 q 154 839 138 819 l 272 956 q 311 972 287 972 l 575 972 q 615 956 600 972 l 736 839 q 751 798 751 819 l 751 307 q 735 267 751 283 q 694 250 718 250 l 536 250 q 493 267 511 250 l 403 357 q 387 397 387 377 l 387 635 q 404 674 387 659 q 444 690 420 690 q 485 674 468 690 q 501 635 501 659 l 501 444 q 518 404 501 421 z "},"A":{"ha":888,"x_min":138,"x_max":751,"o":"m 751 768 l 751 57 q 735 17 751 33 q 694 0 718 0 q 654 17 671 0 q 637 57 637 33 l 637 326 q 617 377 637 356 q 567 397 596 397 l 321 397 q 272 377 292 397 q 252 326 252 356 l 252 57 q 235 17 252 33 q 195 0 218 0 q 154 17 171 0 q 138 57 138 33 l 138 768 q 154 808 138 790 l 301 956 q 342 972 316 972 l 547 972 q 587 957 567 972 l 734 807 q 751 768 751 792 m 637 582 l 637 720 q 619 760 637 741 l 539 842 q 498 859 522 859 l 389 859 q 350 842 365 859 l 268 760 q 252 720 252 745 l 252 582 q 272 532 252 553 q 321 511 292 511 l 567 511 q 617 532 596 511 q 637 582 637 553 z "},"B":{"ha":888,"x_min":138,"x_max":751,"o":"m 736 564 l 707 536 q 686 486 686 513 q 707 436 686 460 l 736 408 q 751 368 751 393 l 751 176 q 736 134 751 154 l 615 17 q 575 0 600 0 l 195 0 q 154 17 171 0 q 138 57 138 33 l 138 916 q 154 956 138 939 q 195 972 171 972 l 575 972 q 615 956 600 972 l 736 839 q 751 798 751 819 l 751 604 q 736 564 751 579 m 570 559 l 621 612 q 637 653 637 629 l 637 750 q 619 789 637 770 l 568 842 q 528 859 553 859 l 321 859 q 272 838 292 859 q 252 787 252 817 l 252 614 q 272 564 252 585 q 321 543 292 543 l 528 543 q 570 559 553 543 m 568 131 l 619 183 q 637 222 637 201 l 637 319 q 619 359 637 341 l 570 412 q 528 429 553 429 l 321 429 q 272 408 292 429 q 252 358 252 387 l 252 184 q 272 135 252 155 q 321 114 292 114 l 528 114 q 568 131 553 114 z "},"C":{"ha":888,"x_min":138,"x_max":750,"o":"m 252 720 l 252 253 q 268 212 252 227 l 350 131 q 389 114 365 114 l 497 114 q 538 131 521 114 l 618 212 q 636 253 636 231 l 636 294 q 653 335 636 318 q 693 353 669 353 q 733 335 717 353 q 750 294 750 318 l 750 204 q 733 165 750 180 l 586 16 q 546 0 566 0 l 342 0 q 298 17 317 0 l 154 164 q 138 204 138 180 l 138 768 q 154 808 138 792 l 298 956 q 342 972 317 972 l 546 972 q 586 957 566 972 l 733 807 q 750 768 750 792 l 750 677 q 733 636 750 654 q 693 619 717 619 q 653 636 669 619 q 636 677 636 654 l 636 720 q 618 760 636 741 l 538 842 q 497 859 521 859 l 389 859 q 350 842 365 859 l 268 760 q 252 720 252 745 z "},"D":{"ha":888,"x_min":138,"x_max":751,"o":"m 587 957 l 734 807 q 751 768 751 792 l 751 204 q 734 165 751 180 l 587 16 q 547 0 567 0 l 195 0 q 154 17 171 0 q 138 57 138 33 l 138 916 q 154 956 138 939 q 195 972 171 972 l 547 972 q 587 957 567 972 m 539 131 l 619 212 q 637 253 637 231 l 637 720 q 619 760 637 741 l 539 842 q 498 859 522 859 l 321 859 q 272 838 292 859 q 252 787 252 817 l 252 184 q 272 135 252 155 q 321 114 292 114 l 498 114 q 539 131 522 114 z "},"E":{"ha":888,"x_min":138,"x_max":750,"o":"m 138 57 l 138 916 q 154 956 138 939 q 195 972 171 972 l 693 972 q 733 956 717 972 q 750 916 750 939 q 733 875 750 892 q 693 859 717 859 l 321 859 q 272 838 292 859 q 252 787 252 817 l 252 614 q 272 564 252 585 q 321 543 292 543 l 597 543 q 638 527 621 543 q 656 486 656 510 q 638 446 656 463 q 597 429 621 429 l 321 429 q 272 408 292 429 q 252 358 252 387 l 252 184 q 272 135 252 155 q 321 114 292 114 l 693 114 q 733 97 717 114 q 750 57 750 81 q 733 17 750 33 q 693 0 717 0 l 195 0 q 154 17 171 0 q 138 57 138 33 z "},"F":{"ha":888,"x_min":138,"x_max":750,"o":"m 252 358 l 252 57 q 235 17 252 33 q 195 0 218 0 q 154 17 171 0 q 138 57 138 33 l 138 916 q 154 956 138 939 q 195 972 171 972 l 693 972 q 733 956 717 972 q 750 916 750 939 q 733 875 750 892 q 693 859 717 859 l 321 859 q 272 838 292 859 q 252 787 252 817 l 252 614 q 272 564 252 585 q 321 543 292 543 l 597 543 q 638 527 621 543 q 654 486 654 510 q 638 446 654 463 q 597 429 621 429 l 321 429 q 272 408 292 429 q 252 358 252 387 z "},"G":{"ha":888,"x_min":138,"x_max":751,"o":"m 637 733 l 637 750 q 619 789 637 770 l 568 842 q 528 859 553 859 l 361 859 q 319 842 336 859 l 268 789 q 252 750 252 774 l 252 222 q 268 183 252 197 l 319 131 q 361 114 336 114 l 528 114 q 568 131 553 114 l 619 183 q 637 222 637 201 l 637 359 q 617 409 637 389 q 567 429 596 429 l 482 429 q 441 446 458 429 q 424 486 424 463 q 441 527 424 510 q 482 543 458 543 l 694 543 q 735 527 718 543 q 751 486 751 510 l 751 176 q 736 134 751 154 l 615 17 q 575 0 600 0 l 311 0 q 272 17 287 0 l 154 134 q 138 176 138 154 l 138 798 q 154 839 138 819 l 272 956 q 311 972 287 972 l 575 972 q 615 956 600 972 l 736 839 q 751 798 751 819 l 751 733 q 735 693 751 709 q 694 676 718 676 q 654 693 671 676 q 637 733 637 709 z "},"H":{"ha":888,"x_min":138,"x_max":751,"o":"m 751 916 l 751 57 q 735 17 751 33 q 694 0 718 0 q 654 17 671 0 q 637 57 637 33 l 637 358 q 617 408 637 387 q 567 429 596 429 l 321 429 q 272 408 292 429 q 252 358 252 387 l 252 57 q 235 17 252 33 q 195 0 218 0 q 154 17 171 0 q 138 57 138 33 l 138 916 q 154 956 138 939 q 195 972 171 972 q 235 956 218 972 q 252 916 252 939 l 252 614 q 272 564 252 585 q 321 543 292 543 l 567 543 q 617 564 596 543 q 637 614 637 585 l 637 916 q 654 956 637 939 q 694 972 671 972 q 735 956 718 972 q 751 916 751 939 z "},"I":{"ha":888,"x_min":201,"x_max":688,"o":"m 631 0 l 258 0 q 218 17 235 0 q 201 57 201 33 q 218 97 201 81 q 258 114 235 114 l 317 114 q 367 135 347 114 q 387 184 387 155 l 387 787 q 367 838 387 817 q 317 859 347 859 l 258 859 q 218 875 235 859 q 201 916 201 892 q 218 956 201 939 q 258 972 235 972 l 631 972 q 671 956 654 972 q 688 916 688 939 q 671 875 688 892 q 631 859 654 859 l 572 859 q 522 838 543 859 q 501 787 501 817 l 501 184 q 522 135 501 155 q 572 114 543 114 l 631 114 q 671 97 654 114 q 688 57 688 81 q 671 17 688 33 q 631 0 654 0 z "},"J":{"ha":888,"x_min":138,"x_max":751,"o":"m 637 222 l 637 787 q 617 838 637 817 q 567 859 596 859 l 443 859 q 402 875 419 859 q 386 916 386 892 q 402 956 386 939 q 443 972 419 972 l 694 972 q 735 956 718 972 q 751 916 751 939 l 751 176 q 736 134 751 154 l 615 17 q 576 0 600 0 l 311 0 q 272 17 287 0 l 154 134 q 138 176 138 154 l 138 294 q 154 335 138 318 q 195 353 171 353 q 235 335 218 353 q 252 294 252 318 l 252 222 q 268 183 252 197 l 319 131 q 359 114 336 114 l 528 114 q 568 131 553 114 l 619 183 q 637 222 637 201 z "},"K":{"ha":888,"x_min":138,"x_max":751,"o":"m 387 429 l 321 429 q 272 408 292 429 q 252 358 252 387 l 252 57 q 235 17 252 33 q 195 0 218 0 q 154 17 171 0 q 138 57 138 33 l 138 916 q 154 956 138 939 q 195 972 171 972 q 235 956 218 972 q 252 916 252 939 l 252 614 q 272 564 252 585 q 321 543 292 543 l 387 543 q 427 559 412 543 l 619 751 q 637 790 637 770 l 637 916 q 654 956 637 939 q 694 972 671 972 q 735 956 718 972 q 751 916 751 939 l 751 743 q 736 701 751 722 l 567 536 q 547 486 547 508 q 567 437 547 466 l 736 271 q 751 229 751 250 l 751 57 q 735 17 751 33 q 694 0 718 0 q 654 17 671 0 q 637 57 637 33 l 637 182 q 619 221 637 203 l 427 412 q 387 429 412 429 z "},"L":{"ha":888,"x_min":138,"x_max":750,"o":"m 252 916 l 252 184 q 272 135 252 155 q 321 114 292 114 l 693 114 q 733 97 717 114 q 750 57 750 81 q 733 17 750 33 q 693 0 717 0 l 195 0 q 154 17 171 0 q 138 57 138 33 l 138 916 q 154 956 138 939 q 195 972 171 972 q 235 956 218 972 q 252 916 252 939 z "},"M":{"ha":888,"x_min":138,"x_max":751,"o":"m 637 57 l 637 741 q 624 758 637 758 q 611 751 616 758 l 518 659 q 501 618 501 642 l 501 486 q 485 446 501 463 q 446 429 469 429 q 404 446 420 429 q 387 486 387 463 l 387 618 q 371 659 387 642 l 277 751 q 264 758 272 758 q 252 741 252 758 l 252 57 q 235 17 252 33 q 195 0 218 0 q 154 17 171 0 q 138 57 138 33 l 138 916 q 154 956 138 939 q 195 972 171 972 q 235 957 214 972 l 395 796 q 446 777 423 777 q 494 798 475 777 l 653 957 q 694 972 673 972 q 735 956 718 972 q 751 916 751 939 l 751 57 q 735 17 751 33 q 694 0 718 0 q 654 17 671 0 q 637 57 637 33 z "},"N":{"ha":888,"x_min":138,"x_max":751,"o":"m 244 945 l 614 310 q 627 298 621 298 q 634 303 631 298 q 637 315 637 307 l 637 916 q 654 956 637 939 q 694 972 671 972 q 735 956 718 972 q 751 916 751 939 l 751 57 q 735 17 751 33 q 694 0 718 0 q 644 28 661 0 l 273 664 q 261 675 267 675 q 252 659 252 675 l 252 57 q 235 17 252 33 q 195 0 218 0 q 154 17 171 0 q 138 57 138 33 l 138 916 q 154 956 138 939 q 195 972 171 972 q 244 945 226 972 z "},"O":{"ha":888,"x_min":138,"x_max":751,"o":"m 615 956 l 736 839 q 751 798 751 819 l 751 175 q 736 134 751 154 l 615 17 q 575 0 600 0 l 311 0 q 272 17 287 0 l 154 134 q 138 175 138 154 l 138 798 q 154 839 138 819 l 272 956 q 311 972 287 972 l 575 972 q 615 956 600 972 m 568 131 l 619 183 q 637 222 637 201 l 637 750 q 619 789 637 770 l 568 842 q 528 859 553 859 l 359 859 q 319 842 336 859 l 268 789 q 252 750 252 774 l 252 222 q 268 183 252 197 l 319 131 q 359 114 336 114 l 528 114 q 568 131 553 114 z "},"P":{"ha":888,"x_min":138,"x_max":751,"o":"m 252 326 l 252 57 q 235 17 252 33 q 195 0 218 0 q 154 17 171 0 q 138 57 138 33 l 138 916 q 154 956 138 939 q 195 972 171 972 l 575 972 q 615 956 600 972 l 736 839 q 751 798 751 819 l 751 574 q 736 530 751 551 l 615 414 q 575 397 601 397 l 321 397 q 272 377 292 397 q 252 326 252 356 m 321 511 l 528 511 q 568 528 554 511 l 619 581 q 637 619 637 599 l 637 750 q 619 789 637 770 l 568 842 q 528 859 553 859 l 321 859 q 272 838 292 859 q 252 787 252 817 l 252 582 q 272 532 252 553 q 321 511 292 511 z "},"Q":{"ha":888,"x_min":138,"x_max":751,"o":"m 528 0 l 313 0 q 272 17 287 0 l 154 134 q 138 176 138 154 l 138 798 q 154 839 138 819 l 272 956 q 313 972 287 972 l 576 972 q 615 956 600 972 l 736 839 q 751 798 751 819 l 751 176 q 736 135 751 155 l 707 109 q 686 57 686 85 q 707 5 686 29 l 736 -21 q 751 -62 751 -37 q 735 -102 751 -86 q 694 -118 718 -118 q 653 -103 672 -118 l 570 -17 q 528 0 553 0 m 568 131 l 619 183 q 637 222 637 201 l 637 750 q 619 789 637 770 l 568 842 q 528 859 553 859 l 359 859 q 319 842 336 859 l 268 789 q 252 750 252 774 l 252 222 q 268 183 252 197 l 319 131 q 359 114 336 114 l 528 114 q 568 131 553 114 z "},"R":{"ha":888,"x_min":138,"x_max":751,"o":"m 498 397 l 321 397 q 272 377 292 397 q 252 326 252 356 l 252 57 q 235 17 252 33 q 195 0 218 0 q 154 17 171 0 q 138 57 138 33 l 138 916 q 154 956 138 939 q 195 972 171 972 l 547 972 q 589 956 570 972 l 736 808 q 751 768 751 793 l 751 602 q 734 561 751 580 l 677 504 q 657 456 657 484 q 676 404 657 431 l 736 349 q 751 307 751 328 l 751 57 q 735 17 751 33 q 694 0 718 0 q 654 17 671 0 q 637 57 637 33 l 637 260 q 619 298 637 280 l 539 380 q 498 397 522 397 m 539 528 l 619 610 q 637 650 637 628 l 637 720 q 619 760 637 741 l 539 842 q 498 859 522 859 l 321 859 q 272 838 292 859 q 252 787 252 817 l 252 582 q 272 532 252 553 q 321 511 292 511 l 498 511 q 539 528 523 511 z "},"S":{"ha":888,"x_min":138,"x_max":751,"o":"m 637 733 l 637 750 q 619 789 637 770 l 568 842 q 528 859 553 859 l 359 859 q 319 842 336 859 l 268 789 q 252 750 252 774 l 252 653 q 268 612 252 629 l 318 559 q 359 543 334 543 l 576 543 q 616 526 597 543 l 736 408 q 751 368 751 393 l 751 175 q 736 134 751 154 l 615 17 q 576 0 600 0 l 311 0 q 272 17 287 0 l 154 134 q 138 175 138 154 l 138 240 q 154 280 138 264 q 195 296 171 296 q 235 280 218 296 q 252 240 252 264 l 252 222 q 268 183 252 197 l 319 131 q 359 114 336 114 l 528 114 q 568 131 553 114 l 619 183 q 637 222 637 201 l 637 319 q 619 359 637 341 l 570 412 q 528 429 553 429 l 311 429 q 271 446 289 429 l 154 564 q 138 604 138 580 l 138 798 q 154 839 138 819 l 272 956 q 311 972 287 972 l 576 972 q 615 956 600 972 l 736 839 q 751 798 751 819 l 751 733 q 735 693 751 709 q 694 676 718 676 q 654 693 671 676 q 637 733 637 709 z "},"T":{"ha":888,"x_min":138,"x_max":751,"o":"m 501 787 l 501 57 q 485 17 501 33 q 444 0 468 0 q 404 17 420 0 q 387 57 387 33 l 387 787 q 367 838 387 817 q 317 859 347 859 l 195 859 q 154 875 171 859 q 138 916 138 892 q 154 956 138 939 q 195 972 171 972 l 694 972 q 735 956 718 972 q 751 916 751 939 q 735 875 751 892 q 694 859 718 859 l 572 859 q 522 838 543 859 q 501 787 501 817 z "},"U":{"ha":888,"x_min":138,"x_max":751,"o":"m 252 916 l 252 222 q 268 183 252 197 l 319 131 q 359 114 336 114 l 528 114 q 568 131 553 114 l 619 183 q 637 222 637 201 l 637 916 q 654 956 637 939 q 694 972 671 972 q 735 956 718 972 q 751 916 751 939 l 751 175 q 736 134 751 154 l 615 17 q 575 0 600 0 l 311 0 q 272 17 287 0 l 154 134 q 138 175 138 154 l 138 916 q 154 956 138 939 q 195 972 171 972 q 235 956 218 972 q 252 916 252 939 z "},"V":{"ha":888,"x_min":138,"x_max":751,"o":"m 637 328 l 637 916 q 654 956 637 939 q 694 972 671 972 q 735 956 718 972 q 751 916 751 939 l 751 281 q 734 237 751 258 l 511 16 q 471 0 496 0 l 416 0 q 376 16 392 0 l 155 237 q 138 281 138 262 l 138 916 q 154 956 138 939 q 195 972 171 972 q 235 956 218 972 q 252 916 252 939 l 252 328 q 268 289 252 303 l 393 163 q 446 142 414 142 q 494 163 473 142 l 621 289 q 637 328 637 306 z "},"W":{"ha":888,"x_min":138,"x_max":751,"o":"m 637 229 l 637 916 q 654 956 637 939 q 694 972 671 972 q 735 956 718 972 q 751 916 751 939 l 751 182 q 736 142 751 157 l 610 16 q 570 0 594 0 q 528 16 548 0 l 446 102 l 361 16 q 318 0 345 0 q 278 16 294 0 l 154 142 q 138 182 138 158 l 138 916 q 154 956 138 939 q 195 972 171 972 q 235 956 218 972 q 252 916 252 939 l 252 229 q 272 185 252 204 q 318 167 293 167 q 367 185 347 167 q 387 229 387 203 l 387 486 q 404 527 387 510 q 446 543 420 543 q 485 527 469 543 q 501 486 501 510 l 501 229 q 523 185 501 204 q 570 167 545 167 q 617 185 596 167 q 637 229 637 203 z "},"X":{"ha":888,"x_min":138,"x_max":751,"o":"m 637 757 l 637 916 q 654 956 637 939 q 694 972 671 972 q 735 956 718 972 q 751 916 751 939 l 751 708 q 734 669 751 684 l 602 536 q 581 486 581 512 q 603 437 581 455 l 734 302 q 751 264 751 288 l 751 57 q 735 17 751 33 q 694 0 718 0 q 654 17 671 0 q 637 57 637 33 l 637 215 q 619 256 637 237 l 494 380 q 443 403 477 403 q 393 380 411 403 l 268 256 q 252 215 252 239 l 252 57 q 235 17 252 33 q 195 0 218 0 q 154 17 171 0 q 138 57 138 33 l 138 264 q 155 302 138 289 l 286 437 q 307 486 307 458 q 285 536 307 514 l 155 669 q 138 708 138 683 l 138 916 q 154 956 138 939 q 195 972 171 972 q 235 956 218 972 q 252 916 252 939 l 252 757 q 268 717 252 733 l 393 589 q 443 570 420 570 q 494 589 467 570 l 621 717 q 637 757 637 734 z "},"Y":{"ha":888,"x_min":138,"x_max":751,"o":"m 371 419 l 155 636 q 138 677 138 656 l 138 916 q 154 956 138 939 q 195 972 171 972 q 235 956 218 972 q 252 916 252 939 l 252 725 q 268 686 252 701 l 395 559 q 444 539 415 539 q 494 559 474 539 l 621 686 q 637 725 637 703 l 637 916 q 654 956 637 939 q 694 972 671 972 q 735 956 718 972 q 751 916 751 939 l 751 677 q 734 636 751 655 l 518 419 q 501 380 501 404 l 501 57 q 485 17 501 33 q 444 0 468 0 q 404 17 420 0 q 387 57 387 33 l 387 380 q 371 419 387 405 z "},"Z":{"ha":888,"x_min":138,"x_max":751,"o":"m 154 278 l 619 745 q 637 783 637 763 l 637 787 q 617 838 637 817 q 567 859 596 859 l 195 859 q 154 875 171 859 q 138 916 138 892 q 154 956 138 939 q 195 972 171 972 l 694 972 q 735 956 718 972 q 751 916 751 939 l 751 736 q 736 694 751 710 l 269 228 q 253 189 253 214 l 253 184 q 273 135 253 155 q 322 114 293 114 l 694 114 q 735 97 718 114 q 751 57 751 81 q 735 17 751 33 q 694 0 718 0 l 195 0 q 154 17 171 0 q 138 57 138 33 l 138 236 q 154 278 138 262 z "},"[":{"ha":888,"x_min":282,"x_max":606,"o":"m 550 -65 l 339 -65 q 299 -48 315 -65 q 282 -8 282 -32 l 282 979 q 299 1020 282 1003 q 339 1036 315 1036 l 550 1036 q 590 1020 574 1036 q 606 979 606 1003 q 590 939 606 956 q 550 922 574 922 l 467 922 q 416 902 437 922 q 396 852 396 882 l 396 118 q 416 69 396 89 q 467 49 437 49 l 550 49 q 590 32 574 49 q 606 -8 606 16 q 590 -48 606 -32 q 550 -65 574 -65 z "},"\\":{"ha":888,"x_min":138,"x_max":751,"o":"m 252 916 l 252 783 q 268 745 252 759 l 734 278 q 751 236 751 259 l 751 57 q 735 17 751 33 q 694 0 718 0 q 654 17 671 0 q 637 57 637 33 l 637 189 q 619 228 637 210 l 155 694 q 138 736 138 714 l 138 916 q 154 956 138 939 q 195 972 171 972 q 235 956 218 972 q 252 916 252 939 z "},"]":{"ha":888,"x_min":282,"x_max":606,"o":"m 550 -65 l 339 -65 q 299 -48 315 -65 q 282 -8 282 -32 q 299 32 282 16 q 339 49 315 49 l 421 49 q 471 69 451 49 q 492 118 492 89 l 492 852 q 471 902 492 882 q 421 922 451 922 l 339 922 q 299 939 315 922 q 282 979 282 956 q 299 1020 282 1003 q 339 1036 315 1036 l 550 1036 q 590 1020 574 1036 q 606 979 606 1003 l 606 -8 q 590 -48 606 -32 q 550 -65 574 -65 z "},"^":{"ha":888,"x_min":183,"x_max":704,"o":"m 444 972 q 485 957 469 972 l 689 753 q 704 710 704 738 q 687 670 704 686 q 646 654 671 654 q 607 669 624 654 l 493 783 q 444 806 473 806 q 395 783 414 806 l 281 669 q 243 654 264 654 q 200 670 217 654 q 183 710 183 686 q 199 753 183 737 l 403 957 q 444 972 423 972 z "},"_":{"ha":888,"x_min":138,"x_max":751,"o":"m 195 49 l 694 49 q 735 32 718 49 q 751 -8 751 16 q 735 -48 751 -32 q 694 -65 718 -65 l 195 -65 q 154 -48 171 -65 q 138 -8 138 -32 q 154 32 138 16 q 195 49 171 49 z "},"`":{"ha":888,"x_min":328,"x_max":558,"o":"m 460 1157 l 345 1272 q 328 1312 328 1287 q 344 1353 328 1336 q 385 1369 361 1369 q 427 1354 408 1369 l 542 1239 q 558 1197 558 1221 q 541 1157 558 1173 q 500 1141 524 1141 q 460 1157 475 1141 z "},"a":{"ha":888,"x_min":138,"x_max":751,"o":"m 751 768 l 751 57 q 735 17 751 33 q 694 0 718 0 q 654 17 671 0 q 637 57 637 33 l 637 326 q 617 377 637 356 q 567 397 596 397 l 321 397 q 272 377 292 397 q 252 326 252 356 l 252 57 q 235 17 252 33 q 195 0 218 0 q 154 17 171 0 q 138 57 138 33 l 138 768 q 154 808 138 790 l 301 956 q 342 972 316 972 l 547 972 q 587 957 567 972 l 734 807 q 751 768 751 792 m 637 582 l 637 720 q 619 760 637 741 l 539 842 q 498 859 522 859 l 389 859 q 350 842 365 859 l 268 760 q 252 720 252 745 l 252 582 q 272 532 252 553 q 321 511 292 511 l 567 511 q 617 532 596 511 q 637 582 637 553 z "},"b":{"ha":888,"x_min":138,"x_max":751,"o":"m 736 564 l 707 536 q 686 486 686 513 q 707 436 686 460 l 736 408 q 751 368 751 393 l 751 176 q 736 134 751 154 l 615 17 q 575 0 600 0 l 195 0 q 154 17 171 0 q 138 57 138 33 l 138 916 q 154 956 138 939 q 195 972 171 972 l 575 972 q 615 956 600 972 l 736 839 q 751 798 751 819 l 751 604 q 736 564 751 579 m 570 559 l 621 612 q 637 653 637 629 l 637 750 q 619 789 637 770 l 568 842 q 528 859 553 859 l 321 859 q 272 838 292 859 q 252 787 252 817 l 252 614 q 272 564 252 585 q 321 543 292 543 l 528 543 q 570 559 553 543 m 568 131 l 619 183 q 637 222 637 201 l 637 319 q 619 359 637 341 l 570 412 q 528 429 553 429 l 321 429 q 272 408 292 429 q 252 358 252 387 l 252 184 q 272 135 252 155 q 321 114 292 114 l 528 114 q 568 131 553 114 z "},"c":{"ha":888,"x_min":138,"x_max":750,"o":"m 252 720 l 252 253 q 268 212 252 227 l 350 131 q 389 114 365 114 l 497 114 q 538 131 521 114 l 618 212 q 636 253 636 231 l 636 294 q 653 335 636 318 q 693 353 669 353 q 733 335 717 353 q 750 294 750 318 l 750 204 q 733 165 750 180 l 586 16 q 546 0 566 0 l 342 0 q 298 17 317 0 l 154 164 q 138 204 138 180 l 138 768 q 154 808 138 792 l 298 956 q 342 972 317 972 l 546 972 q 586 957 566 972 l 733 807 q 750 768 750 792 l 750 677 q 733 636 750 654 q 693 619 717 619 q 653 636 669 619 q 636 677 636 654 l 636 720 q 618 760 636 741 l 538 842 q 497 859 521 859 l 389 859 q 350 842 365 859 l 268 760 q 252 720 252 745 z "},"d":{"ha":888,"x_min":138,"x_max":751,"o":"m 587 957 l 734 807 q 751 768 751 792 l 751 204 q 734 165 751 180 l 587 16 q 547 0 567 0 l 195 0 q 154 17 171 0 q 138 57 138 33 l 138 916 q 154 956 138 939 q 195 972 171 972 l 547 972 q 587 957 567 972 m 539 131 l 619 212 q 637 253 637 231 l 637 720 q 619 760 637 741 l 539 842 q 498 859 522 859 l 321 859 q 272 838 292 859 q 252 787 252 817 l 252 184 q 272 135 252 155 q 321 114 292 114 l 498 114 q 539 131 522 114 z "},"e":{"ha":888,"x_min":138,"x_max":750,"o":"m 138 57 l 138 916 q 154 956 138 939 q 195 972 171 972 l 693 972 q 733 956 717 972 q 750 916 750 939 q 733 875 750 892 q 693 859 717 859 l 321 859 q 272 838 292 859 q 252 787 252 817 l 252 614 q 272 564 252 585 q 321 543 292 543 l 597 543 q 638 527 621 543 q 656 486 656 510 q 638 446 656 463 q 597 429 621 429 l 321 429 q 272 408 292 429 q 252 358 252 387 l 252 184 q 272 135 252 155 q 321 114 292 114 l 693 114 q 733 97 717 114 q 750 57 750 81 q 733 17 750 33 q 693 0 717 0 l 195 0 q 154 17 171 0 q 138 57 138 33 z "},"f":{"ha":888,"x_min":138,"x_max":750,"o":"m 252 358 l 252 57 q 235 17 252 33 q 195 0 218 0 q 154 17 171 0 q 138 57 138 33 l 138 916 q 154 956 138 939 q 195 972 171 972 l 693 972 q 733 956 717 972 q 750 916 750 939 q 733 875 750 892 q 693 859 717 859 l 321 859 q 272 838 292 859 q 252 787 252 817 l 252 614 q 272 564 252 585 q 321 543 292 543 l 597 543 q 638 527 621 543 q 654 486 654 510 q 638 446 654 463 q 597 429 621 429 l 321 429 q 272 408 292 429 q 252 358 252 387 z "},"g":{"ha":888,"x_min":138,"x_max":751,"o":"m 637 733 l 637 750 q 619 789 637 770 l 568 842 q 528 859 553 859 l 361 859 q 319 842 336 859 l 268 789 q 252 750 252 774 l 252 222 q 268 183 252 197 l 319 131 q 361 114 336 114 l 528 114 q 568 131 553 114 l 619 183 q 637 222 637 201 l 637 359 q 617 409 637 389 q 567 429 596 429 l 482 429 q 441 446 458 429 q 424 486 424 463 q 441 527 424 510 q 482 543 458 543 l 694 543 q 735 527 718 543 q 751 486 751 510 l 751 176 q 736 134 751 154 l 615 17 q 575 0 600 0 l 311 0 q 272 17 287 0 l 154 134 q 138 176 138 154 l 138 798 q 154 839 138 819 l 272 956 q 311 972 287 972 l 575 972 q 615 956 600 972 l 736 839 q 751 798 751 819 l 751 733 q 735 693 751 709 q 694 676 718 676 q 654 693 671 676 q 637 733 637 709 z "},"h":{"ha":888,"x_min":138,"x_max":751,"o":"m 751 916 l 751 57 q 735 17 751 33 q 694 0 718 0 q 654 17 671 0 q 637 57 637 33 l 637 358 q 617 408 637 387 q 567 429 596 429 l 321 429 q 272 408 292 429 q 252 358 252 387 l 252 57 q 235 17 252 33 q 195 0 218 0 q 154 17 171 0 q 138 57 138 33 l 138 916 q 154 956 138 939 q 195 972 171 972 q 235 956 218 972 q 252 916 252 939 l 252 614 q 272 564 252 585 q 321 543 292 543 l 567 543 q 617 564 596 543 q 637 614 637 585 l 637 916 q 654 956 637 939 q 694 972 671 972 q 735 956 718 972 q 751 916 751 939 z "},"i":{"ha":888,"x_min":201,"x_max":688,"o":"m 631 0 l 258 0 q 218 17 235 0 q 201 57 201 33 q 218 97 201 81 q 258 114 235 114 l 317 114 q 367 135 347 114 q 387 184 387 155 l 387 787 q 367 838 387 817 q 317 859 347 859 l 258 859 q 218 875 235 859 q 201 916 201 892 q 218 956 201 939 q 258 972 235 972 l 631 972 q 671 956 654 972 q 688 916 688 939 q 671 875 688 892 q 631 859 654 859 l 572 859 q 522 838 543 859 q 501 787 501 817 l 501 184 q 522 135 501 155 q 572 114 543 114 l 631 114 q 671 97 654 114 q 688 57 688 81 q 671 17 688 33 q 631 0 654 0 z "},"j":{"ha":888,"x_min":138,"x_max":751,"o":"m 637 222 l 637 787 q 617 838 637 817 q 567 859 596 859 l 443 859 q 402 875 419 859 q 386 916 386 892 q 402 956 386 939 q 443 972 419 972 l 694 972 q 735 956 718 972 q 751 916 751 939 l 751 176 q 736 134 751 154 l 615 17 q 576 0 600 0 l 311 0 q 272 17 287 0 l 154 134 q 138 176 138 154 l 138 294 q 154 335 138 318 q 195 353 171 353 q 235 335 218 353 q 252 294 252 318 l 252 222 q 268 183 252 197 l 319 131 q 359 114 336 114 l 528 114 q 568 131 553 114 l 619 183 q 637 222 637 201 z "},"k":{"ha":888,"x_min":138,"x_max":751,"o":"m 387 429 l 321 429 q 272 408 292 429 q 252 358 252 387 l 252 57 q 235 17 252 33 q 195 0 218 0 q 154 17 171 0 q 138 57 138 33 l 138 916 q 154 956 138 939 q 195 972 171 972 q 235 956 218 972 q 252 916 252 939 l 252 614 q 272 564 252 585 q 321 543 292 543 l 387 543 q 427 559 412 543 l 619 751 q 637 790 637 770 l 637 916 q 654 956 637 939 q 694 972 671 972 q 735 956 718 972 q 751 916 751 939 l 751 743 q 736 701 751 722 l 567 536 q 547 486 547 508 q 567 437 547 466 l 736 271 q 751 229 751 250 l 751 57 q 735 17 751 33 q 694 0 718 0 q 654 17 671 0 q 637 57 637 33 l 637 182 q 619 221 637 203 l 427 412 q 387 429 412 429 z "},"l":{"ha":888,"x_min":138,"x_max":750,"o":"m 252 916 l 252 184 q 272 135 252 155 q 321 114 292 114 l 693 114 q 733 97 717 114 q 750 57 750 81 q 733 17 750 33 q 693 0 717 0 l 195 0 q 154 17 171 0 q 138 57 138 33 l 138 916 q 154 956 138 939 q 195 972 171 972 q 235 956 218 972 q 252 916 252 939 z "},"m":{"ha":888,"x_min":138,"x_max":751,"o":"m 637 57 l 637 741 q 624 758 637 758 q 611 751 616 758 l 518 659 q 501 618 501 642 l 501 486 q 485 446 501 463 q 446 429 469 429 q 404 446 420 429 q 387 486 387 463 l 387 618 q 371 659 387 642 l 277 751 q 264 758 272 758 q 252 741 252 758 l 252 57 q 235 17 252 33 q 195 0 218 0 q 154 17 171 0 q 138 57 138 33 l 138 916 q 154 956 138 939 q 195 972 171 972 q 235 957 214 972 l 395 796 q 446 777 423 777 q 494 798 475 777 l 653 957 q 694 972 673 972 q 735 956 718 972 q 751 916 751 939 l 751 57 q 735 17 751 33 q 694 0 718 0 q 654 17 671 0 q 637 57 637 33 z "},"n":{"ha":888,"x_min":138,"x_max":751,"o":"m 244 945 l 614 310 q 627 298 621 298 q 634 303 631 298 q 637 315 637 307 l 637 916 q 654 956 637 939 q 694 972 671 972 q 735 956 718 972 q 751 916 751 939 l 751 57 q 735 17 751 33 q 694 0 718 0 q 644 28 661 0 l 273 664 q 261 675 267 675 q 252 659 252 675 l 252 57 q 235 17 252 33 q 195 0 218 0 q 154 17 171 0 q 138 57 138 33 l 138 916 q 154 956 138 939 q 195 972 171 972 q 244 945 226 972 z "},"o":{"ha":888,"x_min":138,"x_max":751,"o":"m 615 956 l 736 839 q 751 798 751 819 l 751 175 q 736 134 751 154 l 615 17 q 575 0 600 0 l 311 0 q 272 17 287 0 l 154 134 q 138 175 138 154 l 138 798 q 154 839 138 819 l 272 956 q 311 972 287 972 l 575 972 q 615 956 600 972 m 568 131 l 619 183 q 637 222 637 201 l 637 750 q 619 789 637 770 l 568 842 q 528 859 553 859 l 359 859 q 319 842 336 859 l 268 789 q 252 750 252 774 l 252 222 q 268 183 252 197 l 319 131 q 359 114 336 114 l 528 114 q 568 131 553 114 z "},"p":{"ha":888,"x_min":138,"x_max":751,"o":"m 252 326 l 252 57 q 235 17 252 33 q 195 0 218 0 q 154 17 171 0 q 138 57 138 33 l 138 916 q 154 956 138 939 q 195 972 171 972 l 575 972 q 615 956 600 972 l 736 839 q 751 798 751 819 l 751 574 q 736 530 751 551 l 615 414 q 575 397 601 397 l 321 397 q 272 377 292 397 q 252 326 252 356 m 321 511 l 528 511 q 568 528 554 511 l 619 581 q 637 619 637 599 l 637 750 q 619 789 637 770 l 568 842 q 528 859 553 859 l 321 859 q 272 838 292 859 q 252 787 252 817 l 252 582 q 272 532 252 553 q 321 511 292 511 z "},"q":{"ha":888,"x_min":138,"x_max":751,"o":"m 528 0 l 313 0 q 272 17 287 0 l 154 134 q 138 176 138 154 l 138 798 q 154 839 138 819 l 272 956 q 313 972 287 972 l 576 972 q 615 956 600 972 l 736 839 q 751 798 751 819 l 751 176 q 736 135 751 155 l 707 109 q 686 57 686 85 q 707 5 686 29 l 736 -21 q 751 -62 751 -37 q 735 -102 751 -86 q 694 -118 718 -118 q 653 -103 672 -118 l 570 -17 q 528 0 553 0 m 568 131 l 619 183 q 637 222 637 201 l 637 750 q 619 789 637 770 l 568 842 q 528 859 553 859 l 359 859 q 319 842 336 859 l 268 789 q 252 750 252 774 l 252 222 q 268 183 252 197 l 319 131 q 359 114 336 114 l 528 114 q 568 131 553 114 z "},"r":{"ha":888,"x_min":138,"x_max":751,"o":"m 498 397 l 321 397 q 272 377 292 397 q 252 326 252 356 l 252 57 q 235 17 252 33 q 195 0 218 0 q 154 17 171 0 q 138 57 138 33 l 138 916 q 154 956 138 939 q 195 972 171 972 l 547 972 q 589 956 570 972 l 736 808 q 751 768 751 793 l 751 602 q 734 561 751 580 l 677 504 q 657 456 657 484 q 676 404 657 431 l 736 349 q 751 307 751 328 l 751 57 q 735 17 751 33 q 694 0 718 0 q 654 17 671 0 q 637 57 637 33 l 637 260 q 619 298 637 280 l 539 380 q 498 397 522 397 m 539 528 l 619 610 q 637 650 637 628 l 637 720 q 619 760 637 741 l 539 842 q 498 859 522 859 l 321 859 q 272 838 292 859 q 252 787 252 817 l 252 582 q 272 532 252 553 q 321 511 292 511 l 498 511 q 539 528 523 511 z "},"s":{"ha":888,"x_min":138,"x_max":751,"o":"m 637 733 l 637 750 q 619 789 637 770 l 568 842 q 528 859 553 859 l 359 859 q 319 842 336 859 l 268 789 q 252 750 252 774 l 252 653 q 268 612 252 629 l 318 559 q 359 543 334 543 l 576 543 q 616 526 597 543 l 736 408 q 751 368 751 393 l 751 175 q 736 134 751 154 l 615 17 q 576 0 600 0 l 311 0 q 272 17 287 0 l 154 134 q 138 175 138 154 l 138 240 q 154 280 138 264 q 195 296 171 296 q 235 280 218 296 q 252 240 252 264 l 252 222 q 268 183 252 197 l 319 131 q 359 114 336 114 l 528 114 q 568 131 553 114 l 619 183 q 637 222 637 201 l 637 319 q 619 359 637 341 l 570 412 q 528 429 553 429 l 311 429 q 271 446 289 429 l 154 564 q 138 604 138 580 l 138 798 q 154 839 138 819 l 272 956 q 311 972 287 972 l 576 972 q 615 956 600 972 l 736 839 q 751 798 751 819 l 751 733 q 735 693 751 709 q 694 676 718 676 q 654 693 671 676 q 637 733 637 709 z "},"t":{"ha":888,"x_min":138,"x_max":751,"o":"m 501 787 l 501 57 q 485 17 501 33 q 444 0 468 0 q 404 17 420 0 q 387 57 387 33 l 387 787 q 367 838 387 817 q 317 859 347 859 l 195 859 q 154 875 171 859 q 138 916 138 892 q 154 956 138 939 q 195 972 171 972 l 694 972 q 735 956 718 972 q 751 916 751 939 q 735 875 751 892 q 694 859 718 859 l 572 859 q 522 838 543 859 q 501 787 501 817 z "},"u":{"ha":888,"x_min":138,"x_max":751,"o":"m 252 916 l 252 222 q 268 183 252 197 l 319 131 q 359 114 336 114 l 528 114 q 568 131 553 114 l 619 183 q 637 222 637 201 l 637 916 q 654 956 637 939 q 694 972 671 972 q 735 956 718 972 q 751 916 751 939 l 751 175 q 736 134 751 154 l 615 17 q 575 0 600 0 l 311 0 q 272 17 287 0 l 154 134 q 138 175 138 154 l 138 916 q 154 956 138 939 q 195 972 171 972 q 235 956 218 972 q 252 916 252 939 z "},"v":{"ha":888,"x_min":138,"x_max":751,"o":"m 637 328 l 637 916 q 654 956 637 939 q 694 972 671 972 q 735 956 718 972 q 751 916 751 939 l 751 281 q 734 237 751 258 l 511 16 q 471 0 496 0 l 416 0 q 376 16 392 0 l 155 237 q 138 281 138 262 l 138 916 q 154 956 138 939 q 195 972 171 972 q 235 956 218 972 q 252 916 252 939 l 252 328 q 268 289 252 303 l 393 163 q 446 142 414 142 q 494 163 473 142 l 621 289 q 637 328 637 306 z "},"w":{"ha":888,"x_min":138,"x_max":751,"o":"m 637 229 l 637 916 q 654 956 637 939 q 694 972 671 972 q 735 956 718 972 q 751 916 751 939 l 751 182 q 736 142 751 157 l 610 16 q 570 0 594 0 q 528 16 548 0 l 446 102 l 361 16 q 318 0 345 0 q 278 16 294 0 l 154 142 q 138 182 138 158 l 138 916 q 154 956 138 939 q 195 972 171 972 q 235 956 218 972 q 252 916 252 939 l 252 229 q 272 185 252 204 q 318 167 293 167 q 367 185 347 167 q 387 229 387 203 l 387 486 q 404 527 387 510 q 446 543 420 543 q 485 527 469 543 q 501 486 501 510 l 501 229 q 523 185 501 204 q 570 167 545 167 q 617 185 596 167 q 637 229 637 203 z "},"x":{"ha":888,"x_min":138,"x_max":751,"o":"m 637 757 l 637 916 q 654 956 637 939 q 694 972 671 972 q 735 956 718 972 q 751 916 751 939 l 751 708 q 734 669 751 684 l 602 536 q 581 486 581 512 q 603 437 581 455 l 734 302 q 751 264 751 288 l 751 57 q 735 17 751 33 q 694 0 718 0 q 654 17 671 0 q 637 57 637 33 l 637 215 q 619 256 637 237 l 494 380 q 443 403 477 403 q 393 380 411 403 l 268 256 q 252 215 252 239 l 252 57 q 235 17 252 33 q 195 0 218 0 q 154 17 171 0 q 138 57 138 33 l 138 264 q 155 302 138 289 l 286 437 q 307 486 307 458 q 285 536 307 514 l 155 669 q 138 708 138 683 l 138 916 q 154 956 138 939 q 195 972 171 972 q 235 956 218 972 q 252 916 252 939 l 252 757 q 268 717 252 733 l 393 589 q 443 570 420 570 q 494 589 467 570 l 621 717 q 637 757 637 734 z "},"y":{"ha":888,"x_min":138,"x_max":751,"o":"m 371 419 l 155 636 q 138 677 138 656 l 138 916 q 154 956 138 939 q 195 972 171 972 q 235 956 218 972 q 252 916 252 939 l 252 725 q 268 686 252 701 l 395 559 q 444 539 415 539 q 494 559 474 539 l 621 686 q 637 725 637 703 l 637 916 q 654 956 637 939 q 694 972 671 972 q 735 956 718 972 q 751 916 751 939 l 751 677 q 734 636 751 655 l 518 419 q 501 380 501 404 l 501 57 q 485 17 501 33 q 444 0 468 0 q 404 17 420 0 q 387 57 387 33 l 387 380 q 371 419 387 405 z "},"z":{"ha":888,"x_min":138,"x_max":751,"o":"m 154 278 l 619 745 q 637 783 637 763 l 637 787 q 617 838 637 817 q 567 859 596 859 l 195 859 q 154 875 171 859 q 138 916 138 892 q 154 956 138 939 q 195 972 171 972 l 694 972 q 735 956 718 972 q 751 916 751 939 l 751 736 q 736 694 751 710 l 269 228 q 253 189 253 214 l 253 184 q 273 135 253 155 q 322 114 293 114 l 694 114 q 735 97 718 114 q 751 57 751 81 q 735 17 751 33 q 694 0 718 0 l 195 0 q 154 17 171 0 q 138 57 138 33 l 138 236 q 154 278 138 262 z "},"{":{"ha":888,"x_min":222,"x_max":665,"o":"m 380 467 l 440 407 q 456 367 456 391 l 456 158 q 472 118 456 134 l 524 66 q 564 50 540 50 l 608 50 q 649 34 632 50 q 665 -7 665 17 q 649 -49 665 -31 q 608 -66 632 -66 l 515 -66 q 475 -49 492 -66 l 357 69 q 342 110 342 84 l 342 318 q 323 358 342 340 l 237 444 q 222 485 222 459 q 237 525 222 510 l 323 611 q 342 652 342 629 l 342 861 q 357 901 342 884 l 476 1018 q 515 1036 490 1036 l 608 1036 q 649 1020 632 1036 q 665 979 665 1003 q 649 938 665 956 q 608 921 632 921 l 564 921 q 524 904 541 921 l 472 852 q 456 812 456 836 l 456 603 q 440 562 456 578 l 380 503 q 372 485 372 496 q 380 467 372 473 z "},"|":{"ha":888,"x_min":387,"x_max":501,"o":"m 387 -47 l 387 1019 q 404 1060 387 1043 q 444 1076 420 1076 q 485 1060 468 1076 q 501 1019 501 1043 l 501 -47 q 485 -88 501 -71 q 444 -104 468 -104 q 404 -88 420 -104 q 387 -47 387 -71 z "},"}":{"ha":888,"x_min":224,"x_max":665,"o":"m 450 407 l 507 467 q 517 485 517 472 q 507 503 517 497 l 450 562 q 433 603 433 579 l 433 812 q 416 852 433 836 l 366 904 q 325 921 351 921 l 281 921 q 240 938 257 921 q 224 979 224 956 q 240 1020 224 1003 q 281 1036 257 1036 l 374 1036 q 412 1018 398 1036 l 530 901 q 547 861 547 884 l 547 652 q 564 611 547 627 l 650 525 q 665 485 665 509 q 650 444 665 460 l 564 358 q 547 318 547 342 l 547 110 q 530 69 547 84 l 414 -49 q 374 -66 396 -66 l 281 -66 q 240 -49 257 -66 q 224 -7 224 -31 q 240 34 224 17 q 281 50 257 50 l 325 50 q 366 66 351 50 l 416 118 q 433 158 433 135 l 433 367 q 450 407 433 390 z "},"~":{"ha":888,"x_min":154,"x_max":736,"o":"m 297 541 l 268 509 l 268 424 q 251 383 268 400 q 208 366 233 366 q 171 383 187 366 q 154 424 154 400 l 154 536 q 171 572 154 553 l 235 640 q 271 654 258 654 l 382 654 q 418 639 402 654 l 488 572 q 500 536 500 558 l 500 468 l 532 436 l 595 436 l 623 468 l 623 555 q 639 595 623 578 q 679 612 656 612 q 718 595 701 612 q 736 555 736 577 l 736 443 q 724 406 736 424 l 654 336 q 619 322 644 322 l 505 322 q 468 336 482 322 l 400 406 q 386 443 386 420 l 386 509 l 357 541 l 297 541 z "},"":{"ha":888,"x_min":359,"x_max":528,"o":"m 415 972 l 472 972 q 512 956 496 972 q 528 916 528 939 l 528 860 q 512 820 528 836 q 472 803 496 803 l 415 803 q 375 820 391 803 q 359 860 359 836 l 359 916 q 375 956 359 939 q 415 972 391 972 m 501 635 l 501 57 q 485 17 501 33 q 444 0 468 0 q 404 17 420 0 q 387 57 387 33 l 387 635 q 404 674 387 659 q 444 690 420 690 q 485 674 468 690 q 501 635 501 659 z "},"":{"ha":888,"x_min":138,"x_max":751,"o":"m 500 1019 l 500 1000 q 528 972 500 972 l 547 972 q 587 957 567 972 l 734 807 q 751 768 751 792 l 751 677 q 735 636 751 654 q 694 619 718 619 q 654 636 671 619 q 637 677 637 654 l 637 720 q 619 760 637 741 l 539 842 q 518 851 530 851 q 500 828 500 851 l 500 144 q 518 121 500 121 q 539 131 529 121 l 619 212 q 637 253 637 231 l 637 294 q 654 335 637 318 q 694 353 671 353 q 735 335 718 353 q 751 294 751 318 l 751 204 q 734 165 751 180 l 587 16 q 547 0 567 0 l 528 0 q 500 -28 500 0 l 500 -47 q 483 -88 500 -71 q 443 -104 467 -104 q 402 -88 419 -104 q 386 -47 386 -71 l 386 -28 q 358 0 386 0 l 343 0 q 298 17 317 0 l 154 164 q 138 204 138 180 l 138 768 q 154 808 138 792 l 298 956 q 343 972 317 972 l 358 972 q 386 1000 386 972 l 386 1019 q 402 1060 386 1043 q 443 1076 419 1076 q 483 1060 467 1076 q 500 1019 500 1043 m 386 144 l 386 828 q 370 851 386 851 q 351 842 357 851 l 268 760 q 252 720 252 745 l 252 253 q 268 212 252 227 l 351 131 q 370 121 357 121 q 386 144 386 121 z "},"":{"ha":888,"x_min":138,"x_max":751,"o":"m 637 733 l 637 750 q 618 790 637 770 l 570 840 q 528 859 551 859 l 489 859 q 449 840 467 859 l 399 790 q 380 750 380 772 l 380 541 q 408 511 380 511 l 629 511 q 671 495 654 511 q 688 456 688 479 q 671 414 688 431 q 629 397 654 397 l 408 397 q 380 370 380 397 l 380 143 q 408 114 380 114 l 694 114 q 735 97 718 114 q 751 57 751 81 q 735 17 751 33 q 694 0 718 0 l 195 0 q 154 17 171 0 q 138 57 138 33 q 154 97 138 81 q 195 114 171 114 l 237 114 q 267 143 267 114 l 267 370 q 237 397 267 397 l 195 397 q 154 414 171 397 q 138 456 138 431 q 154 495 138 479 q 195 511 171 511 l 237 511 q 267 541 267 511 l 267 798 q 282 839 267 819 l 401 956 q 441 972 416 972 l 576 972 q 615 956 600 972 l 736 839 q 751 798 751 819 l 751 733 q 735 693 751 709 q 694 676 718 676 q 654 693 671 676 q 637 733 637 709 z "},"":{"ha":888,"x_min":126,"x_max":761,"o":"m 187 621 q 197 642 197 631 q 187 660 197 654 l 143 704 q 126 747 126 719 q 143 787 126 771 q 183 803 159 803 q 225 787 210 803 l 271 743 q 289 734 277 734 q 307 743 300 734 l 307 742 q 349 758 326 758 l 541 758 q 581 742 562 758 q 599 734 591 734 q 616 743 610 734 l 663 787 q 704 803 678 803 q 744 787 728 803 q 761 747 761 771 q 746 704 761 719 l 700 660 q 692 642 692 654 q 699 621 692 629 q 715 582 715 604 l 715 390 q 700 351 715 367 q 692 330 692 345 q 700 311 692 317 l 746 267 q 761 225 761 252 q 744 185 761 201 q 704 170 728 170 q 663 184 677 170 l 616 229 q 599 240 608 240 q 581 231 592 240 q 541 214 562 214 l 349 214 q 307 231 327 214 q 289 240 294 240 q 271 229 279 240 l 225 184 q 183 170 210 170 q 143 185 159 170 q 126 225 126 201 q 143 268 126 253 l 187 313 q 197 330 197 319 q 187 351 197 345 q 172 390 172 366 l 172 582 q 187 621 172 606 m 602 439 l 602 533 q 583 575 602 557 l 532 625 q 492 644 515 644 l 396 644 q 355 625 372 644 l 304 575 q 286 533 286 557 l 286 439 q 304 397 286 416 l 355 347 q 396 328 372 328 l 492 328 q 532 347 515 328 l 583 397 q 602 439 602 416 z "},"":{"ha":888,"x_min":138,"x_max":751,"o":"m 383 511 q 371 538 383 526 l 155 753 q 138 794 138 772 l 138 916 q 154 956 138 939 q 195 972 171 972 q 235 956 218 972 q 252 916 252 939 l 252 843 q 268 803 252 817 l 395 676 q 444 656 415 656 q 494 676 474 656 l 621 803 q 637 843 637 820 l 637 916 q 654 956 637 939 q 694 972 671 972 q 735 956 718 972 q 751 916 751 939 l 751 794 q 734 753 751 772 l 518 538 q 505 511 505 525 q 529 490 505 490 l 635 490 q 674 474 659 490 q 690 433 690 457 q 674 393 690 410 q 635 376 659 376 l 529 376 q 501 349 501 376 l 501 326 q 529 298 501 298 l 635 298 q 674 282 659 298 q 690 243 690 267 q 674 201 690 218 q 635 184 659 184 l 529 184 q 501 157 501 184 l 501 57 q 485 17 501 33 q 444 0 468 0 q 404 17 420 0 q 387 57 387 33 l 387 157 q 359 184 387 184 l 253 184 q 213 201 229 184 q 196 243 196 218 q 213 282 196 267 q 253 298 229 298 l 359 298 q 387 326 387 298 l 387 349 q 359 376 387 376 l 253 376 q 213 393 229 376 q 196 433 196 410 q 213 474 196 457 q 253 490 229 490 l 359 490 q 383 511 383 490 z "},"":{"ha":888,"x_min":387,"x_max":501,"o":"m 387 615 l 387 1019 q 404 1060 387 1043 q 444 1076 420 1076 q 485 1060 468 1076 q 501 1019 501 1043 l 501 615 q 485 575 501 591 q 444 559 468 559 q 404 575 420 559 q 387 615 387 591 m 387 -47 l 387 357 q 404 396 387 380 q 444 412 420 412 q 485 396 468 412 q 501 357 501 380 l 501 -47 q 485 -88 501 -71 q 444 -104 468 -104 q 404 -88 420 -104 q 387 -47 387 -71 z "},"":{"ha":888,"x_min":138,"x_max":751,"o":"m 637 850 l 637 868 q 619 907 637 888 l 568 960 q 528 977 553 977 l 361 977 q 321 960 338 977 l 269 907 q 253 868 253 892 l 253 835 q 269 794 253 808 l 319 742 q 361 724 336 724 l 576 724 q 616 708 596 724 l 736 590 q 751 550 751 574 l 751 421 q 736 380 751 398 l 656 304 l 736 225 q 751 184 751 210 l 751 57 q 736 16 751 33 l 615 -102 q 576 -118 601 -118 l 313 -118 q 273 -102 288 -118 l 154 16 q 138 57 138 34 l 138 121 q 154 160 138 144 q 195 176 171 176 q 236 160 219 176 q 253 121 253 144 l 253 104 q 269 65 253 79 l 321 12 q 361 -4 337 -4 l 528 -4 q 568 12 554 -4 l 619 65 q 637 104 637 83 l 637 136 q 619 176 637 158 l 570 229 q 528 248 555 248 l 313 248 q 272 262 291 248 l 154 380 q 138 421 138 397 l 138 550 q 154 590 138 572 l 232 667 l 155 746 q 138 786 138 762 l 138 916 q 154 957 138 939 l 273 1074 q 313 1090 288 1090 l 576 1090 q 615 1074 600 1090 l 736 957 q 751 916 751 939 l 751 850 q 735 809 751 826 q 694 793 718 793 q 654 809 671 793 q 637 850 637 826 m 269 429 l 321 378 q 361 361 338 361 l 528 361 q 568 378 553 361 l 619 429 q 637 469 637 448 l 637 500 q 619 541 637 522 l 570 593 q 528 610 553 610 l 361 610 q 321 593 338 610 l 269 542 q 253 501 253 526 l 253 469 q 269 429 253 446 z "},"":{"ha":888,"x_min":250,"x_max":637,"o":"m 581 1156 l 553 1156 q 512 1172 529 1156 q 496 1211 496 1187 l 496 1240 q 512 1280 496 1264 q 553 1296 529 1296 l 581 1296 q 621 1280 604 1296 q 637 1240 637 1264 l 637 1211 q 621 1172 637 1187 q 581 1156 604 1156 m 334 1156 l 306 1156 q 266 1172 282 1156 q 250 1211 250 1187 l 250 1240 q 266 1280 250 1264 q 306 1296 282 1296 l 334 1296 q 374 1280 357 1296 q 390 1240 390 1264 l 390 1211 q 374 1172 390 1187 q 334 1156 357 1156 z "},"":{"ha":888,"x_min":138,"x_max":751,"o":"m 639 839 l 743 733 q 751 710 751 721 l 751 264 q 742 240 751 252 l 637 136 q 614 126 627 126 l 275 126 q 253 136 261 126 l 149 240 q 138 264 138 254 l 138 710 q 147 733 138 720 l 252 839 q 275 847 265 847 l 614 847 q 639 839 620 847 m 616 212 l 665 261 q 678 278 673 267 q 684 301 684 290 l 684 672 q 665 713 684 694 l 616 761 q 576 779 598 779 l 313 779 q 289 774 301 779 q 272 761 277 768 l 224 713 q 211 695 216 707 q 205 672 205 684 l 205 301 q 211 278 205 290 q 224 261 216 267 l 272 212 q 289 200 277 205 q 313 195 301 195 l 576 195 q 616 212 604 195 m 539 418 q 551 439 543 431 q 572 447 560 447 q 596 436 586 447 q 606 412 606 426 l 606 382 q 595 357 606 370 l 518 282 q 496 272 510 272 l 393 272 q 368 283 382 272 l 293 357 q 283 382 283 366 l 283 593 q 293 616 283 607 l 368 692 q 393 701 380 701 l 496 701 q 519 693 509 701 l 596 616 q 606 593 606 605 l 606 562 q 596 538 606 549 q 572 528 586 528 q 551 536 560 528 q 539 557 543 544 q 521 595 535 585 l 500 616 q 458 635 481 635 l 431 635 q 389 616 407 635 l 368 595 q 351 555 351 580 l 351 419 q 370 379 351 397 l 390 358 q 431 340 408 340 l 458 340 q 498 358 481 340 l 519 379 q 539 418 536 393 z "},"":{"ha":888,"x_min":139,"x_max":750,"o":"m 155 528 l 367 741 q 404 754 380 754 q 448 737 429 754 q 467 696 467 720 q 452 657 467 676 l 328 538 q 304 486 304 515 q 329 433 304 458 l 449 318 q 463 278 463 300 q 447 237 463 254 q 407 220 431 220 q 366 235 380 220 l 157 444 q 139 486 139 465 q 155 528 139 509 m 439 528 l 650 741 q 688 754 663 754 q 731 737 712 754 q 750 696 750 720 q 734 657 750 677 l 611 538 q 587 486 587 514 q 612 433 587 458 l 730 318 q 746 278 746 298 q 730 237 746 254 q 690 220 714 220 q 648 235 663 220 l 440 444 q 422 486 422 462 q 439 528 422 511 z "},"":{"ha":888,"x_min":138,"x_max":751,"o":"m 639 839 l 743 733 q 751 710 751 721 l 751 264 q 742 240 751 252 l 637 136 q 614 126 627 126 l 275 126 q 253 136 261 126 l 149 240 q 138 264 138 254 l 138 710 q 147 733 138 720 l 252 839 q 275 847 265 847 l 614 847 q 639 839 620 847 m 616 212 l 665 261 q 678 278 673 267 q 684 301 684 290 l 684 672 q 665 713 684 694 l 616 761 q 576 779 598 779 l 313 779 q 289 774 301 779 q 272 761 277 768 l 224 713 q 211 695 216 707 q 205 672 205 684 l 205 301 q 211 278 205 290 q 224 261 216 267 l 272 212 q 289 200 277 205 q 313 195 301 195 l 576 195 q 616 212 604 195 m 440 431 l 399 431 q 365 417 379 431 q 351 383 351 403 l 351 306 q 341 282 351 292 q 317 272 330 272 q 293 282 303 272 q 283 306 283 292 l 283 668 q 293 691 283 682 q 317 701 303 701 l 496 701 q 521 692 511 701 l 596 616 q 606 593 606 607 l 606 559 q 596 533 606 547 l 561 498 q 546 465 546 486 q 561 432 546 447 l 595 396 q 606 372 606 385 l 606 306 q 596 282 606 292 q 572 272 586 272 q 549 282 559 272 q 539 306 539 292 l 539 334 q 519 374 539 354 l 482 414 q 440 431 465 431 m 351 606 l 351 547 q 365 512 351 526 q 399 498 379 498 l 440 498 q 481 517 463 498 l 519 557 q 529 576 529 562 q 519 595 529 585 l 500 616 q 458 635 481 635 l 379 635 q 359 627 366 635 q 351 606 351 618 z "},"":{"ha":888,"x_min":254,"x_max":632,"o":"m 576 1156 l 310 1156 q 270 1172 286 1156 q 254 1211 254 1187 q 270 1253 254 1236 q 310 1270 286 1270 l 576 1270 q 616 1253 600 1270 q 632 1211 632 1236 q 616 1172 632 1187 q 576 1156 600 1156 z "},"":{"ha":888,"x_min":267,"x_max":621,"o":"m 267 743 l 267 846 q 279 873 267 859 l 364 961 q 393 972 380 972 l 494 972 q 522 961 514 972 l 610 872 q 621 846 621 861 l 621 743 q 610 714 621 725 l 524 628 q 494 616 507 616 l 393 616 q 364 629 379 616 l 278 714 q 267 743 267 726 m 397 860 l 379 842 q 361 794 361 825 q 379 749 361 765 l 397 729 q 444 711 413 711 q 490 729 475 711 l 509 749 q 526 794 526 766 q 509 842 526 826 l 490 860 q 444 878 475 878 q 397 860 413 878 z "},"":{"ha":888,"x_min":167,"x_max":722,"o":"m 572 542 l 635 542 q 674 525 659 542 q 690 485 690 509 q 674 445 690 461 q 635 428 659 428 l 572 428 q 522 408 543 428 q 501 358 501 387 l 501 294 q 485 253 501 271 q 444 236 468 236 q 404 253 420 236 q 387 294 387 271 l 387 358 q 367 408 387 387 q 317 428 347 428 l 254 428 q 214 445 231 428 q 197 485 197 461 q 214 525 197 509 q 254 542 231 542 l 317 542 q 367 562 347 542 q 387 611 387 582 l 387 675 q 404 714 387 699 q 444 730 420 730 q 485 714 468 730 q 501 675 501 699 l 501 611 q 522 562 501 582 q 572 542 543 542 m 222 114 l 667 114 q 706 98 690 114 q 722 58 722 82 q 706 17 722 33 q 667 0 690 0 l 222 0 q 183 17 199 0 q 167 58 167 33 q 183 98 167 82 q 222 114 199 114 z "},"":{"ha":888,"x_min":328,"x_max":558,"o":"m 542 1274 l 427 1157 q 386 1141 409 1141 q 345 1157 361 1141 q 328 1197 328 1173 q 346 1239 328 1221 l 460 1354 q 500 1369 477 1369 q 541 1353 524 1369 q 558 1312 558 1336 q 542 1274 558 1288 z "},"":{"ha":888,"x_min":138,"x_max":751,"o":"m 637 57 l 637 829 q 629 851 637 843 q 608 859 621 859 l 553 859 q 532 851 540 859 q 524 829 524 843 l 524 57 q 508 17 524 33 q 468 0 492 0 q 427 17 444 0 q 410 57 410 33 l 410 326 q 389 377 410 356 q 339 397 368 397 l 313 397 q 272 414 290 397 l 154 532 q 138 574 138 550 l 138 798 q 154 839 138 819 l 273 956 q 313 972 288 972 l 694 972 q 735 956 718 972 q 751 916 751 939 l 751 57 q 735 17 751 33 q 694 0 718 0 q 654 17 671 0 q 637 57 637 33 z "},"":{"ha":888,"x_min":353,"x_max":536,"o":"m 479 395 l 408 395 q 369 411 385 395 q 353 452 353 428 l 353 521 q 369 561 353 545 q 408 578 385 578 l 479 578 q 520 561 503 578 q 536 521 536 545 l 536 452 q 520 411 536 428 q 479 395 503 395 z "},"":{"ha":888,"x_min":326,"x_max":593,"o":"m 404 -68 l 404 50 q 416 77 404 66 q 444 87 427 87 q 471 77 460 87 q 482 50 482 66 l 482 -29 q 500 -72 482 -54 l 583 -153 q 593 -178 593 -166 l 593 -264 q 585 -288 593 -274 l 509 -361 q 486 -371 500 -371 l 400 -371 q 378 -361 386 -371 l 339 -322 q 326 -294 326 -309 q 338 -268 326 -279 q 367 -257 351 -257 q 395 -267 385 -257 l 403 -275 q 444 -293 420 -293 q 485 -275 467 -293 l 497 -262 q 515 -221 515 -244 q 497 -180 515 -199 l 416 -100 q 404 -68 404 -85 z "},"":{"ha":888,"x_min":139,"x_max":750,"o":"m 522 741 l 734 528 q 750 486 750 507 q 733 444 750 463 l 524 235 q 482 220 509 220 q 443 237 458 220 q 427 278 427 254 q 441 318 427 299 l 559 433 q 585 486 585 458 q 561 538 585 514 l 439 657 q 422 696 422 673 q 441 737 422 720 q 485 754 460 754 q 522 741 509 754 m 240 741 l 452 528 q 467 486 467 509 q 450 444 467 463 l 241 235 q 199 220 224 220 q 160 237 175 220 q 144 278 144 254 q 158 318 144 300 l 277 433 q 301 486 301 458 q 278 538 301 515 l 155 657 q 139 696 139 675 q 158 737 139 720 q 201 754 177 754 q 240 741 222 754 z "},"":{"ha":888,"x_min":138,"x_max":751,"o":"m 416 972 l 473 972 q 513 956 497 972 q 529 916 529 939 l 529 860 q 513 820 529 836 q 473 803 497 803 l 416 803 q 377 820 393 803 q 361 860 361 836 l 361 916 q 377 956 361 939 q 416 972 393 972 m 138 175 l 138 267 q 154 307 138 291 l 371 524 q 387 564 387 540 l 387 635 q 404 674 387 659 q 444 690 420 690 q 485 674 468 690 q 501 635 501 659 l 501 515 q 486 475 501 490 l 269 258 q 253 218 253 242 q 267 186 253 195 l 321 131 q 361 114 338 114 l 528 114 q 568 131 553 114 l 619 183 q 637 222 637 201 l 637 240 q 654 280 637 264 q 694 296 671 296 q 735 280 718 296 q 751 240 751 264 l 751 175 q 736 134 751 154 l 615 17 q 576 0 600 0 l 313 0 q 273 17 288 0 l 155 134 q 138 175 138 156 z "},"":{"ha":888,"x_min":138,"x_max":751,"o":"m 461 1157 l 346 1272 q 329 1312 329 1287 q 346 1353 329 1336 q 386 1369 362 1369 q 428 1354 409 1369 l 543 1239 q 559 1197 559 1221 q 543 1157 559 1173 q 501 1141 526 1141 q 461 1157 477 1141 m 751 768 l 751 57 q 735 17 751 33 q 694 0 718 0 q 654 17 671 0 q 637 57 637 33 l 637 326 q 617 377 637 356 q 567 397 596 397 l 321 397 q 272 377 292 397 q 252 326 252 356 l 252 57 q 235 17 252 33 q 195 0 218 0 q 154 17 171 0 q 138 57 138 33 l 138 768 q 154 808 138 790 l 301 956 q 342 972 316 972 l 547 972 q 587 957 567 972 l 734 807 q 751 768 751 792 m 637 582 l 637 720 q 619 760 637 741 l 539 842 q 498 859 522 859 l 389 859 q 350 842 365 859 l 268 760 q 252 720 252 745 l 252 582 q 272 532 252 553 q 321 511 292 511 l 567 511 q 617 532 596 511 q 637 582 637 553 z "},"":{"ha":888,"x_min":138,"x_max":751,"o":"m 543 1274 l 428 1157 q 387 1141 410 1141 q 346 1157 363 1141 q 329 1197 329 1173 q 347 1239 329 1221 l 461 1354 q 501 1369 478 1369 q 542 1353 525 1369 q 559 1312 559 1336 q 543 1274 559 1288 m 751 768 l 751 57 q 735 17 751 33 q 694 0 718 0 q 654 17 671 0 q 637 57 637 33 l 637 326 q 617 377 637 356 q 567 397 596 397 l 321 397 q 272 377 292 397 q 252 326 252 356 l 252 57 q 235 17 252 33 q 195 0 218 0 q 154 17 171 0 q 138 57 138 33 l 138 768 q 154 808 138 790 l 301 956 q 342 972 316 972 l 547 972 q 587 957 567 972 l 734 807 q 751 768 751 792 m 637 582 l 637 720 q 619 760 637 741 l 539 842 q 498 859 522 859 l 389 859 q 350 842 365 859 l 268 760 q 252 720 252 745 l 252 582 q 272 532 252 553 q 321 511 292 511 l 567 511 q 617 532 596 511 q 637 582 637 553 z "},"":{"ha":888,"x_min":138,"x_max":751,"o":"m 401 1204 l 349 1154 q 314 1141 336 1141 q 280 1155 294 1141 q 265 1189 265 1169 q 279 1226 265 1208 l 411 1356 q 446 1369 422 1369 q 481 1356 467 1369 l 611 1226 q 624 1189 624 1209 q 611 1155 624 1168 q 576 1141 597 1141 q 541 1154 555 1141 l 489 1204 q 446 1223 472 1223 q 401 1204 418 1223 m 751 768 l 751 57 q 735 17 751 33 q 694 0 718 0 q 654 17 671 0 q 637 57 637 33 l 637 326 q 617 377 637 356 q 567 397 596 397 l 321 397 q 272 377 292 397 q 252 326 252 356 l 252 57 q 235 17 252 33 q 195 0 218 0 q 154 17 171 0 q 138 57 138 33 l 138 768 q 154 808 138 790 l 301 956 q 342 972 316 972 l 547 972 q 587 957 567 972 l 734 807 q 751 768 751 792 m 637 582 l 637 720 q 619 760 637 741 l 539 842 q 498 859 522 859 l 389 859 q 350 842 365 859 l 268 760 q 252 720 252 745 l 252 582 q 272 532 252 553 q 321 511 292 511 l 567 511 q 617 532 596 511 q 637 582 637 553 z "},"":{"ha":888,"x_min":138,"x_max":751,"o":"m 346 1296 l 319 1270 l 319 1221 q 306 1188 319 1201 q 273 1175 293 1175 q 241 1188 255 1175 q 228 1221 228 1201 l 228 1292 q 239 1320 228 1309 l 296 1377 q 323 1388 311 1388 l 395 1388 q 424 1377 409 1388 l 479 1320 q 490 1292 490 1305 l 490 1258 l 517 1234 l 546 1234 l 571 1258 l 571 1307 q 584 1340 571 1326 q 616 1353 597 1353 q 649 1340 636 1353 q 663 1307 663 1326 l 663 1238 q 653 1208 663 1222 l 593 1153 q 567 1141 583 1141 l 496 1141 q 467 1153 483 1141 l 410 1208 q 400 1238 400 1218 l 400 1270 l 374 1296 l 346 1296 m 751 768 l 751 57 q 735 17 751 33 q 694 0 718 0 q 654 17 671 0 q 637 57 637 33 l 637 326 q 617 377 637 356 q 567 397 596 397 l 321 397 q 272 377 292 397 q 252 326 252 356 l 252 57 q 235 17 252 33 q 195 0 218 0 q 154 17 171 0 q 138 57 138 33 l 138 768 q 154 808 138 790 l 301 956 q 342 972 316 972 l 547 972 q 587 957 567 972 l 734 807 q 751 768 751 792 m 637 582 l 637 720 q 619 760 637 741 l 539 842 q 498 859 522 859 l 389 859 q 350 842 365 859 l 268 760 q 252 720 252 745 l 252 582 q 272 532 252 553 q 321 511 292 511 l 567 511 q 617 532 596 511 q 637 582 637 553 z "},"":{"ha":888,"x_min":138,"x_max":751,"o":"m 582 1156 l 554 1156 q 514 1172 530 1156 q 497 1211 497 1187 l 497 1240 q 514 1280 497 1264 q 554 1296 530 1296 l 582 1296 q 622 1280 606 1296 q 639 1240 639 1264 l 639 1211 q 622 1172 639 1187 q 582 1156 606 1156 m 335 1156 l 307 1156 q 268 1172 283 1156 q 252 1211 252 1187 l 252 1240 q 268 1280 252 1264 q 307 1296 283 1296 l 335 1296 q 375 1280 359 1296 q 392 1240 392 1264 l 392 1211 q 375 1172 392 1187 q 335 1156 359 1156 m 751 768 l 751 57 q 735 17 751 33 q 694 0 718 0 q 654 17 671 0 q 637 57 637 33 l 637 326 q 617 377 637 356 q 567 397 596 397 l 321 397 q 272 377 292 397 q 252 326 252 356 l 252 57 q 235 17 252 33 q 195 0 218 0 q 154 17 171 0 q 138 57 138 33 l 138 768 q 154 808 138 790 l 301 956 q 342 972 316 972 l 547 972 q 587 957 567 972 l 734 807 q 751 768 751 792 m 637 582 l 637 720 q 619 760 637 741 l 539 842 q 498 859 522 859 l 389 859 q 350 842 365 859 l 268 760 q 252 720 252 745 l 252 582 q 272 532 252 553 q 321 511 292 511 l 567 511 q 617 532 596 511 q 637 582 637 553 z "},"":{"ha":888,"x_min":138,"x_max":751,"o":"m 296 1190 l 296 1276 q 306 1300 296 1290 l 378 1373 q 403 1383 390 1383 l 488 1383 q 513 1375 499 1383 l 586 1299 q 595 1276 595 1290 l 595 1190 q 586 1166 595 1177 l 513 1093 q 488 1084 498 1084 l 403 1084 q 378 1095 390 1084 l 306 1166 q 296 1190 296 1179 m 406 1289 l 390 1274 q 374 1235 374 1259 q 390 1194 374 1208 l 406 1179 q 446 1162 420 1162 q 485 1179 470 1162 l 500 1194 q 517 1235 517 1209 q 500 1274 517 1259 l 485 1289 q 446 1305 471 1305 q 406 1289 420 1305 m 751 768 l 751 57 q 735 17 751 33 q 694 0 718 0 q 654 17 671 0 q 637 57 637 33 l 637 326 q 617 377 637 356 q 567 397 596 397 l 321 397 q 272 377 292 397 q 252 326 252 356 l 252 57 q 235 17 252 33 q 195 0 218 0 q 154 17 171 0 q 138 57 138 33 l 138 768 q 154 808 138 790 l 301 956 q 342 972 316 972 l 547 972 q 587 957 567 972 l 734 807 q 751 768 751 792 m 637 582 l 637 720 q 619 760 637 741 l 539 842 q 498 859 522 859 l 389 859 q 350 842 365 859 l 268 760 q 252 720 252 745 l 252 582 q 272 532 252 553 q 321 511 292 511 l 567 511 q 617 532 596 511 q 637 582 637 553 z "},"":{"ha":888,"x_min":110,"x_max":779,"o":"m 387 57 l 387 370 q 359 397 387 397 l 294 397 q 244 377 265 397 q 224 326 224 356 l 224 57 q 207 17 224 33 q 167 0 191 0 q 126 17 143 0 q 110 57 110 33 l 110 768 q 125 808 110 789 l 275 956 q 314 972 290 972 l 722 972 q 763 956 746 972 q 779 916 779 939 q 763 875 779 892 q 722 859 746 859 l 572 859 q 522 838 543 859 q 501 787 501 817 l 501 614 q 522 564 501 585 q 572 543 543 543 l 694 543 q 735 527 718 543 q 751 486 751 510 q 735 446 751 463 q 694 429 718 429 l 572 429 q 522 408 543 429 q 501 358 501 387 l 501 184 q 522 135 501 155 q 572 114 543 114 l 722 114 q 763 97 746 114 q 779 57 779 81 q 763 17 779 33 q 722 0 746 0 l 444 0 q 404 17 420 0 q 387 57 387 33 m 387 541 l 387 832 q 359 859 387 859 q 322 842 339 859 l 243 761 q 224 720 224 745 l 224 582 q 244 532 224 553 q 294 511 265 511 l 359 511 q 387 541 387 511 z "},"":{"ha":888,"x_min":138,"x_max":750,"o":"m 252 720 l 252 253 q 268 212 252 227 l 350 131 q 389 114 365 114 l 497 114 q 538 131 521 114 l 618 212 q 636 253 636 231 l 636 294 q 653 335 636 318 q 693 353 669 353 q 733 335 717 353 q 750 294 750 318 l 750 204 q 733 165 750 180 l 586 16 q 546 0 566 0 l 482 0 l 482 -29 q 500 -72 482 -54 l 583 -153 q 593 -178 593 -166 l 593 -264 q 585 -288 593 -274 l 509 -361 q 486 -371 500 -371 l 400 -371 q 378 -361 386 -371 l 339 -322 q 326 -294 326 -309 q 338 -268 326 -279 q 367 -257 351 -257 q 395 -267 385 -257 l 403 -275 q 444 -293 420 -293 q 485 -275 467 -293 l 497 -262 q 515 -221 515 -244 q 497 -180 515 -199 l 416 -100 q 404 -68 404 -85 l 404 0 l 342 0 q 298 17 317 0 l 154 164 q 138 204 138 180 l 138 768 q 154 808 138 792 l 298 956 q 342 972 317 972 l 546 972 q 586 957 566 972 l 733 807 q 750 768 750 792 l 750 677 q 733 636 750 654 q 693 619 717 619 q 653 636 669 619 q 636 677 636 654 l 636 720 q 618 760 636 741 l 538 842 q 497 859 521 859 l 389 859 q 350 842 365 859 l 268 760 q 252 720 252 745 z "},"":{"ha":888,"x_min":138,"x_max":750,"o":"m 461 1157 l 346 1272 q 329 1312 329 1287 q 346 1353 329 1336 q 386 1369 362 1369 q 428 1354 409 1369 l 543 1239 q 559 1197 559 1221 q 543 1157 559 1173 q 501 1141 526 1141 q 461 1157 477 1141 m 138 57 l 138 916 q 154 956 138 939 q 195 972 171 972 l 693 972 q 733 956 717 972 q 750 916 750 939 q 733 875 750 892 q 693 859 717 859 l 321 859 q 272 838 292 859 q 252 787 252 817 l 252 614 q 272 564 252 585 q 321 543 292 543 l 597 543 q 638 527 621 543 q 656 486 656 510 q 638 446 656 463 q 597 429 621 429 l 321 429 q 272 408 292 429 q 252 358 252 387 l 252 184 q 272 135 252 155 q 321 114 292 114 l 693 114 q 733 97 717 114 q 750 57 750 81 q 733 17 750 33 q 693 0 717 0 l 195 0 q 154 17 171 0 q 138 57 138 33 z "},"":{"ha":888,"x_min":138,"x_max":750,"o":"m 543 1274 l 428 1157 q 387 1141 410 1141 q 346 1157 363 1141 q 329 1197 329 1173 q 347 1239 329 1221 l 461 1354 q 501 1369 478 1369 q 542 1353 525 1369 q 559 1312 559 1336 q 543 1274 559 1288 m 138 57 l 138 916 q 154 956 138 939 q 195 972 171 972 l 693 972 q 733 956 717 972 q 750 916 750 939 q 733 875 750 892 q 693 859 717 859 l 321 859 q 272 838 292 859 q 252 787 252 817 l 252 614 q 272 564 252 585 q 321 543 292 543 l 597 543 q 638 527 621 543 q 656 486 656 510 q 638 446 656 463 q 597 429 621 429 l 321 429 q 272 408 292 429 q 252 358 252 387 l 252 184 q 272 135 252 155 q 321 114 292 114 l 693 114 q 733 97 717 114 q 750 57 750 81 q 733 17 750 33 q 693 0 717 0 l 195 0 q 154 17 171 0 q 138 57 138 33 z "},"":{"ha":888,"x_min":138,"x_max":750,"o":"m 401 1204 l 349 1154 q 314 1141 336 1141 q 280 1155 294 1141 q 265 1189 265 1169 q 279 1226 265 1208 l 411 1356 q 446 1369 422 1369 q 481 1356 467 1369 l 611 1226 q 624 1189 624 1209 q 611 1155 624 1168 q 576 1141 597 1141 q 541 1154 555 1141 l 489 1204 q 446 1223 472 1223 q 401 1204 418 1223 m 138 57 l 138 916 q 154 956 138 939 q 195 972 171 972 l 693 972 q 733 956 717 972 q 750 916 750 939 q 733 875 750 892 q 693 859 717 859 l 321 859 q 272 838 292 859 q 252 787 252 817 l 252 614 q 272 564 252 585 q 321 543 292 543 l 597 543 q 638 527 621 543 q 656 486 656 510 q 638 446 656 463 q 597 429 621 429 l 321 429 q 272 408 292 429 q 252 358 252 387 l 252 184 q 272 135 252 155 q 321 114 292 114 l 693 114 q 733 97 717 114 q 750 57 750 81 q 733 17 750 33 q 693 0 717 0 l 195 0 q 154 17 171 0 q 138 57 138 33 z "},"":{"ha":888,"x_min":138,"x_max":750,"o":"m 582 1156 l 554 1156 q 514 1172 530 1156 q 497 1211 497 1187 l 497 1240 q 514 1280 497 1264 q 554 1296 530 1296 l 582 1296 q 622 1280 606 1296 q 639 1240 639 1264 l 639 1211 q 622 1172 639 1187 q 582 1156 606 1156 m 335 1156 l 307 1156 q 268 1172 283 1156 q 252 1211 252 1187 l 252 1240 q 268 1280 252 1264 q 307 1296 283 1296 l 335 1296 q 375 1280 359 1296 q 392 1240 392 1264 l 392 1211 q 375 1172 392 1187 q 335 1156 359 1156 m 138 57 l 138 916 q 154 956 138 939 q 195 972 171 972 l 693 972 q 733 956 717 972 q 750 916 750 939 q 733 875 750 892 q 693 859 717 859 l 321 859 q 272 838 292 859 q 252 787 252 817 l 252 614 q 272 564 252 585 q 321 543 292 543 l 597 543 q 638 527 621 543 q 656 486 656 510 q 638 446 656 463 q 597 429 621 429 l 321 429 q 272 408 292 429 q 252 358 252 387 l 252 184 q 272 135 252 155 q 321 114 292 114 l 693 114 q 733 97 717 114 q 750 57 750 81 q 733 17 750 33 q 693 0 717 0 l 195 0 q 154 17 171 0 q 138 57 138 33 z "},"":{"ha":888,"x_min":201,"x_max":688,"o":"m 461 1157 l 346 1272 q 329 1312 329 1287 q 346 1353 329 1336 q 386 1369 362 1369 q 428 1354 409 1369 l 543 1239 q 559 1197 559 1221 q 543 1157 559 1173 q 501 1141 526 1141 q 461 1157 477 1141 m 631 0 l 258 0 q 218 17 235 0 q 201 57 201 33 q 218 97 201 81 q 258 114 235 114 l 317 114 q 367 135 347 114 q 387 184 387 155 l 387 787 q 367 838 387 817 q 317 859 347 859 l 258 859 q 218 875 235 859 q 201 916 201 892 q 218 956 201 939 q 258 972 235 972 l 631 972 q 671 956 654 972 q 688 916 688 939 q 671 875 688 892 q 631 859 654 859 l 572 859 q 522 838 543 859 q 501 787 501 817 l 501 184 q 522 135 501 155 q 572 114 543 114 l 631 114 q 671 97 654 114 q 688 57 688 81 q 671 17 688 33 q 631 0 654 0 z "},"":{"ha":888,"x_min":201,"x_max":688,"o":"m 543 1274 l 428 1157 q 387 1141 410 1141 q 346 1157 363 1141 q 329 1197 329 1173 q 347 1239 329 1221 l 461 1354 q 501 1369 478 1369 q 542 1353 525 1369 q 559 1312 559 1336 q 543 1274 559 1288 m 631 0 l 258 0 q 218 17 235 0 q 201 57 201 33 q 218 97 201 81 q 258 114 235 114 l 317 114 q 367 135 347 114 q 387 184 387 155 l 387 787 q 367 838 387 817 q 317 859 347 859 l 258 859 q 218 875 235 859 q 201 916 201 892 q 218 956 201 939 q 258 972 235 972 l 631 972 q 671 956 654 972 q 688 916 688 939 q 671 875 688 892 q 631 859 654 859 l 572 859 q 522 838 543 859 q 501 787 501 817 l 501 184 q 522 135 501 155 q 572 114 543 114 l 631 114 q 671 97 654 114 q 688 57 688 81 q 671 17 688 33 q 631 0 654 0 z "},"":{"ha":888,"x_min":201,"x_max":688,"o":"m 401 1204 l 349 1154 q 314 1141 336 1141 q 280 1155 294 1141 q 265 1189 265 1169 q 279 1226 265 1208 l 411 1356 q 446 1369 422 1369 q 481 1356 467 1369 l 611 1226 q 624 1189 624 1209 q 611 1155 624 1168 q 576 1141 597 1141 q 541 1154 555 1141 l 489 1204 q 446 1223 472 1223 q 401 1204 418 1223 m 631 0 l 258 0 q 218 17 235 0 q 201 57 201 33 q 218 97 201 81 q 258 114 235 114 l 317 114 q 367 135 347 114 q 387 184 387 155 l 387 787 q 367 838 387 817 q 317 859 347 859 l 258 859 q 218 875 235 859 q 201 916 201 892 q 218 956 201 939 q 258 972 235 972 l 631 972 q 671 956 654 972 q 688 916 688 939 q 671 875 688 892 q 631 859 654 859 l 572 859 q 522 838 543 859 q 501 787 501 817 l 501 184 q 522 135 501 155 q 572 114 543 114 l 631 114 q 671 97 654 114 q 688 57 688 81 q 671 17 688 33 q 631 0 654 0 z "},"":{"ha":888,"x_min":201,"x_max":688,"o":"m 582 1156 l 554 1156 q 514 1172 530 1156 q 497 1211 497 1187 l 497 1240 q 514 1280 497 1264 q 554 1296 530 1296 l 582 1296 q 622 1280 606 1296 q 639 1240 639 1264 l 639 1211 q 622 1172 639 1187 q 582 1156 606 1156 m 335 1156 l 307 1156 q 268 1172 283 1156 q 252 1211 252 1187 l 252 1240 q 268 1280 252 1264 q 307 1296 283 1296 l 335 1296 q 375 1280 359 1296 q 392 1240 392 1264 l 392 1211 q 375 1172 392 1187 q 335 1156 359 1156 m 631 0 l 258 0 q 218 17 235 0 q 201 57 201 33 q 218 97 201 81 q 258 114 235 114 l 317 114 q 367 135 347 114 q 387 184 387 155 l 387 787 q 367 838 387 817 q 317 859 347 859 l 258 859 q 218 875 235 859 q 201 916 201 892 q 218 956 201 939 q 258 972 235 972 l 631 972 q 671 956 654 972 q 688 916 688 939 q 671 875 688 892 q 631 859 654 859 l 572 859 q 522 838 543 859 q 501 787 501 817 l 501 184 q 522 135 501 155 q 572 114 543 114 l 631 114 q 671 97 654 114 q 688 57 688 81 q 671 17 688 33 q 631 0 654 0 z "},"":{"ha":888,"x_min":39,"x_max":751,"o":"m 138 572 l 138 916 q 154 956 138 939 q 195 972 171 972 l 547 972 q 587 957 567 972 l 734 807 q 751 768 751 792 l 751 204 q 734 165 751 180 l 587 16 q 547 0 567 0 l 195 0 q 154 17 171 0 q 138 57 138 33 l 138 403 q 110 431 138 431 l 96 431 q 55 447 72 431 q 39 488 39 464 q 55 528 39 511 q 96 545 72 545 l 110 545 q 138 572 138 545 m 252 403 l 252 184 q 272 135 252 155 q 321 114 292 114 l 498 114 q 539 131 522 114 l 619 212 q 637 253 637 231 l 637 720 q 619 760 637 741 l 539 842 q 498 859 522 859 l 321 859 q 272 838 292 859 q 252 787 252 817 l 252 572 q 279 545 252 545 l 476 545 q 516 528 500 545 q 532 488 532 511 q 516 447 532 464 q 476 431 500 431 l 279 431 q 252 403 252 431 z "},"":{"ha":888,"x_min":138,"x_max":751,"o":"m 346 1296 l 319 1270 l 319 1221 q 306 1188 319 1201 q 273 1175 293 1175 q 241 1188 255 1175 q 228 1221 228 1201 l 228 1292 q 239 1320 228 1309 l 296 1377 q 323 1388 311 1388 l 395 1388 q 424 1377 409 1388 l 479 1320 q 490 1292 490 1305 l 490 1258 l 517 1234 l 546 1234 l 571 1258 l 571 1307 q 584 1340 571 1326 q 616 1353 597 1353 q 649 1340 636 1353 q 663 1307 663 1326 l 663 1238 q 653 1208 663 1222 l 593 1153 q 567 1141 583 1141 l 496 1141 q 467 1153 483 1141 l 410 1208 q 400 1238 400 1218 l 400 1270 l 374 1296 l 346 1296 m 244 945 l 614 310 q 627 298 621 298 q 634 303 631 298 q 637 315 637 307 l 637 916 q 654 956 637 939 q 694 972 671 972 q 735 956 718 972 q 751 916 751 939 l 751 57 q 735 17 751 33 q 694 0 718 0 q 644 28 661 0 l 273 664 q 261 675 267 675 q 252 659 252 675 l 252 57 q 235 17 252 33 q 195 0 218 0 q 154 17 171 0 q 138 57 138 33 l 138 916 q 154 956 138 939 q 195 972 171 972 q 244 945 226 972 z "},"":{"ha":888,"x_min":138,"x_max":751,"o":"m 461 1157 l 346 1272 q 329 1312 329 1287 q 346 1353 329 1336 q 386 1369 362 1369 q 428 1354 409 1369 l 543 1239 q 559 1197 559 1221 q 543 1157 559 1173 q 501 1141 526 1141 q 461 1157 477 1141 m 615 956 l 736 839 q 751 798 751 819 l 751 175 q 736 134 751 154 l 615 17 q 575 0 600 0 l 311 0 q 272 17 287 0 l 154 134 q 138 175 138 154 l 138 798 q 154 839 138 819 l 272 956 q 311 972 287 972 l 575 972 q 615 956 600 972 m 568 131 l 619 183 q 637 222 637 201 l 637 750 q 619 789 637 770 l 568 842 q 528 859 553 859 l 359 859 q 319 842 336 859 l 268 789 q 252 750 252 774 l 252 222 q 268 183 252 197 l 319 131 q 359 114 336 114 l 528 114 q 568 131 553 114 z "},"":{"ha":888,"x_min":138,"x_max":751,"o":"m 543 1274 l 428 1157 q 387 1141 410 1141 q 346 1157 363 1141 q 329 1197 329 1173 q 347 1239 329 1221 l 461 1354 q 501 1369 478 1369 q 542 1353 525 1369 q 559 1312 559 1336 q 543 1274 559 1288 m 615 956 l 736 839 q 751 798 751 819 l 751 175 q 736 134 751 154 l 615 17 q 575 0 600 0 l 311 0 q 272 17 287 0 l 154 134 q 138 175 138 154 l 138 798 q 154 839 138 819 l 272 956 q 311 972 287 972 l 575 972 q 615 956 600 972 m 568 131 l 619 183 q 637 222 637 201 l 637 750 q 619 789 637 770 l 568 842 q 528 859 553 859 l 359 859 q 319 842 336 859 l 268 789 q 252 750 252 774 l 252 222 q 268 183 252 197 l 319 131 q 359 114 336 114 l 528 114 q 568 131 553 114 z "},"":{"ha":888,"x_min":138,"x_max":751,"o":"m 401 1204 l 349 1154 q 314 1141 336 1141 q 280 1155 294 1141 q 265 1189 265 1169 q 279 1226 265 1208 l 411 1356 q 446 1369 422 1369 q 481 1356 467 1369 l 611 1226 q 624 1189 624 1209 q 611 1155 624 1168 q 576 1141 597 1141 q 541 1154 555 1141 l 489 1204 q 446 1223 472 1223 q 401 1204 418 1223 m 615 956 l 736 839 q 751 798 751 819 l 751 175 q 736 134 751 154 l 615 17 q 575 0 600 0 l 311 0 q 272 17 287 0 l 154 134 q 138 175 138 154 l 138 798 q 154 839 138 819 l 272 956 q 311 972 287 972 l 575 972 q 615 956 600 972 m 568 131 l 619 183 q 637 222 637 201 l 637 750 q 619 789 637 770 l 568 842 q 528 859 553 859 l 359 859 q 319 842 336 859 l 268 789 q 252 750 252 774 l 252 222 q 268 183 252 197 l 319 131 q 359 114 336 114 l 528 114 q 568 131 553 114 z "},"":{"ha":888,"x_min":138,"x_max":751,"o":"m 346 1296 l 319 1270 l 319 1221 q 306 1188 319 1201 q 273 1175 293 1175 q 241 1188 255 1175 q 228 1221 228 1201 l 228 1292 q 239 1320 228 1309 l 296 1377 q 323 1388 311 1388 l 395 1388 q 424 1377 409 1388 l 479 1320 q 490 1292 490 1305 l 490 1258 l 517 1234 l 546 1234 l 571 1258 l 571 1307 q 584 1340 571 1326 q 616 1353 597 1353 q 649 1340 636 1353 q 663 1307 663 1326 l 663 1238 q 653 1208 663 1222 l 593 1153 q 567 1141 583 1141 l 496 1141 q 467 1153 483 1141 l 410 1208 q 400 1238 400 1218 l 400 1270 l 374 1296 l 346 1296 m 615 956 l 736 839 q 751 798 751 819 l 751 175 q 736 134 751 154 l 615 17 q 575 0 600 0 l 311 0 q 272 17 287 0 l 154 134 q 138 175 138 154 l 138 798 q 154 839 138 819 l 272 956 q 311 972 287 972 l 575 972 q 615 956 600 972 m 568 131 l 619 183 q 637 222 637 201 l 637 750 q 619 789 637 770 l 568 842 q 528 859 553 859 l 359 859 q 319 842 336 859 l 268 789 q 252 750 252 774 l 252 222 q 268 183 252 197 l 319 131 q 359 114 336 114 l 528 114 q 568 131 553 114 z "},"":{"ha":888,"x_min":138,"x_max":751,"o":"m 582 1156 l 554 1156 q 514 1172 530 1156 q 497 1211 497 1187 l 497 1240 q 514 1280 497 1264 q 554 1296 530 1296 l 582 1296 q 622 1280 606 1296 q 639 1240 639 1264 l 639 1211 q 622 1172 639 1187 q 582 1156 606 1156 m 335 1156 l 307 1156 q 268 1172 283 1156 q 252 1211 252 1187 l 252 1240 q 268 1280 252 1264 q 307 1296 283 1296 l 335 1296 q 375 1280 359 1296 q 392 1240 392 1264 l 392 1211 q 375 1172 392 1187 q 335 1156 359 1156 m 615 956 l 736 839 q 751 798 751 819 l 751 175 q 736 134 751 154 l 615 17 q 575 0 600 0 l 311 0 q 272 17 287 0 l 154 134 q 138 175 138 154 l 138 798 q 154 839 138 819 l 272 956 q 311 972 287 972 l 575 972 q 615 956 600 972 m 568 131 l 619 183 q 637 222 637 201 l 637 750 q 619 789 637 770 l 568 842 q 528 859 553 859 l 359 859 q 319 842 336 859 l 268 789 q 252 750 252 774 l 252 222 q 268 183 252 197 l 319 131 q 359 114 336 114 l 528 114 q 568 131 553 114 z "},"":{"ha":888,"x_min":197,"x_max":692,"o":"m 576 437 l 675 339 q 692 297 692 318 l 692 294 q 673 257 690 273 q 635 240 656 240 q 591 257 610 240 l 493 355 q 446 378 475 378 q 396 355 414 378 l 296 256 q 256 237 275 237 q 215 256 233 237 q 197 297 197 275 q 212 336 197 317 l 313 437 q 335 486 335 455 q 313 536 335 514 l 212 636 q 197 675 197 651 q 215 716 197 699 q 256 734 232 734 q 296 717 276 734 l 396 616 q 446 596 416 596 q 493 616 473 596 l 593 717 q 635 734 612 734 l 637 734 q 675 715 659 733 q 692 676 692 698 q 675 636 692 655 l 575 536 q 555 486 555 511 q 576 437 555 458 z "},"":{"ha":888,"x_min":43,"x_max":846,"o":"m 743 868 l 747 872 q 789 888 763 888 q 829 872 812 888 q 846 832 846 856 q 829 791 846 804 l 768 728 q 751 688 751 711 l 751 176 q 734 134 751 155 l 614 17 q 575 0 599 0 l 313 0 q 273 17 288 0 l 183 106 q 164 114 175 114 q 146 104 151 114 l 142 100 q 98 85 125 85 q 59 101 75 85 q 43 142 43 118 q 58 183 43 168 l 118 244 q 136 285 136 262 l 136 798 q 154 839 136 817 l 273 956 q 313 972 288 972 l 575 972 q 614 956 599 972 l 704 867 q 724 859 712 859 q 743 868 738 859 m 319 840 l 269 791 q 252 750 252 774 l 252 412 q 264 395 252 395 q 278 403 272 395 l 618 743 q 631 770 631 754 q 624 786 631 779 l 568 842 q 526 859 551 859 l 361 859 q 319 840 338 859 m 568 132 l 618 180 q 637 222 637 200 l 637 559 q 624 578 637 578 q 610 570 616 578 l 269 229 q 257 203 257 219 q 264 186 257 193 l 319 131 q 361 114 336 114 l 526 114 q 568 132 550 114 z "},"":{"ha":888,"x_min":138,"x_max":751,"o":"m 461 1157 l 346 1272 q 329 1312 329 1287 q 346 1353 329 1336 q 386 1369 362 1369 q 428 1354 409 1369 l 543 1239 q 559 1197 559 1221 q 543 1157 559 1173 q 501 1141 526 1141 q 461 1157 477 1141 m 252 916 l 252 222 q 268 183 252 197 l 319 131 q 359 114 336 114 l 528 114 q 568 131 553 114 l 619 183 q 637 222 637 201 l 637 916 q 654 956 637 939 q 694 972 671 972 q 735 956 718 972 q 751 916 751 939 l 751 175 q 736 134 751 154 l 615 17 q 575 0 600 0 l 311 0 q 272 17 287 0 l 154 134 q 138 175 138 154 l 138 916 q 154 956 138 939 q 195 972 171 972 q 235 956 218 972 q 252 916 252 939 z "},"":{"ha":888,"x_min":138,"x_max":751,"o":"m 543 1274 l 428 1157 q 387 1141 410 1141 q 346 1157 363 1141 q 329 1197 329 1173 q 347 1239 329 1221 l 461 1354 q 501 1369 478 1369 q 542 1353 525 1369 q 559 1312 559 1336 q 543 1274 559 1288 m 252 916 l 252 222 q 268 183 252 197 l 319 131 q 359 114 336 114 l 528 114 q 568 131 553 114 l 619 183 q 637 222 637 201 l 637 916 q 654 956 637 939 q 694 972 671 972 q 735 956 718 972 q 751 916 751 939 l 751 175 q 736 134 751 154 l 615 17 q 575 0 600 0 l 311 0 q 272 17 287 0 l 154 134 q 138 175 138 154 l 138 916 q 154 956 138 939 q 195 972 171 972 q 235 956 218 972 q 252 916 252 939 z "},"":{"ha":888,"x_min":138,"x_max":751,"o":"m 401 1204 l 349 1154 q 314 1141 336 1141 q 280 1155 294 1141 q 265 1189 265 1169 q 279 1226 265 1208 l 411 1356 q 446 1369 422 1369 q 481 1356 467 1369 l 611 1226 q 624 1189 624 1209 q 611 1155 624 1168 q 576 1141 597 1141 q 541 1154 555 1141 l 489 1204 q 446 1223 472 1223 q 401 1204 418 1223 m 252 916 l 252 222 q 268 183 252 197 l 319 131 q 359 114 336 114 l 528 114 q 568 131 553 114 l 619 183 q 637 222 637 201 l 637 916 q 654 956 637 939 q 694 972 671 972 q 735 956 718 972 q 751 916 751 939 l 751 175 q 736 134 751 154 l 615 17 q 575 0 600 0 l 311 0 q 272 17 287 0 l 154 134 q 138 175 138 154 l 138 916 q 154 956 138 939 q 195 972 171 972 q 235 956 218 972 q 252 916 252 939 z "},"":{"ha":888,"x_min":138,"x_max":751,"o":"m 582 1156 l 554 1156 q 514 1172 530 1156 q 497 1211 497 1187 l 497 1240 q 514 1280 497 1264 q 554 1296 530 1296 l 582 1296 q 622 1280 606 1296 q 639 1240 639 1264 l 639 1211 q 622 1172 639 1187 q 582 1156 606 1156 m 335 1156 l 307 1156 q 268 1172 283 1156 q 252 1211 252 1187 l 252 1240 q 268 1280 252 1264 q 307 1296 283 1296 l 335 1296 q 375 1280 359 1296 q 392 1240 392 1264 l 392 1211 q 375 1172 392 1187 q 335 1156 359 1156 m 252 916 l 252 222 q 268 183 252 197 l 319 131 q 359 114 336 114 l 528 114 q 568 131 553 114 l 619 183 q 637 222 637 201 l 637 916 q 654 956 637 939 q 694 972 671 972 q 735 956 718 972 q 751 916 751 939 l 751 175 q 736 134 751 154 l 615 17 q 575 0 600 0 l 311 0 q 272 17 287 0 l 154 134 q 138 175 138 154 l 138 916 q 154 956 138 939 q 195 972 171 972 q 235 956 218 972 q 252 916 252 939 z "},"":{"ha":888,"x_min":138,"x_max":751,"o":"m 543 1274 l 428 1157 q 387 1141 410 1141 q 346 1157 363 1141 q 329 1197 329 1173 q 347 1239 329 1221 l 461 1354 q 501 1369 478 1369 q 542 1353 525 1369 q 559 1312 559 1336 q 543 1274 559 1288 m 371 419 l 155 636 q 138 677 138 656 l 138 916 q 154 956 138 939 q 195 972 171 972 q 235 956 218 972 q 252 916 252 939 l 252 725 q 268 686 252 701 l 395 559 q 444 539 415 539 q 494 559 474 539 l 621 686 q 637 725 637 703 l 637 916 q 654 956 637 939 q 694 972 671 972 q 735 956 718 972 q 751 916 751 939 l 751 677 q 734 636 751 655 l 518 419 q 501 380 501 404 l 501 57 q 485 17 501 33 q 444 0 468 0 q 404 17 420 0 q 387 57 387 33 l 387 380 q 371 419 387 405 z "},"":{"ha":888,"x_min":138,"x_max":751,"o":"m 138 57 l 138 916 q 154 956 138 939 q 195 972 171 972 q 235 956 218 972 q 252 916 252 939 l 252 901 q 272 852 252 872 q 321 832 292 832 l 547 832 q 587 815 568 832 l 734 668 q 751 628 751 653 l 751 346 q 734 306 751 321 l 587 157 q 547 142 568 142 l 321 142 q 272 121 292 142 q 252 71 252 100 l 252 57 q 235 17 252 33 q 195 0 218 0 q 154 17 171 0 q 138 57 138 33 m 637 393 l 637 581 q 619 619 637 601 l 539 701 q 498 718 522 718 l 321 718 q 272 698 292 718 q 252 648 252 677 l 252 325 q 272 276 252 296 q 321 256 292 256 l 498 256 q 539 272 523 256 l 619 354 q 637 393 637 372 z "},"":{"ha":888,"x_min":139,"x_max":755,"o":"m 253 750 l 253 -49 q 236 -89 253 -73 q 196 -104 220 -104 q 156 -89 172 -104 q 139 -49 139 -73 l 139 798 q 154 839 139 820 l 273 956 q 314 972 288 972 l 539 972 q 579 956 560 972 l 699 839 q 714 798 714 819 l 714 648 q 699 608 714 624 l 672 579 q 650 530 650 559 q 672 481 650 500 l 741 411 q 755 370 755 396 l 755 176 q 741 134 755 153 l 621 17 q 581 0 606 0 l 399 0 q 358 17 375 0 q 340 57 340 33 q 358 97 340 81 q 399 114 375 114 l 532 114 q 574 132 555 114 l 624 182 q 642 222 642 199 l 642 322 q 624 363 642 345 l 497 489 q 481 530 481 507 q 497 571 481 553 l 582 656 q 602 699 602 675 l 602 750 q 582 790 602 770 l 532 840 q 490 859 513 859 l 363 859 q 321 840 339 859 l 271 790 q 253 750 253 772 z "},"":{"ha":888,"x_min":138,"x_max":751,"o":"m 461 1157 l 346 1272 q 329 1312 329 1287 q 346 1353 329 1336 q 386 1369 362 1369 q 428 1354 409 1369 l 543 1239 q 559 1197 559 1221 q 543 1157 559 1173 q 501 1141 526 1141 q 461 1157 477 1141 m 751 768 l 751 57 q 735 17 751 33 q 694 0 718 0 q 654 17 671 0 q 637 57 637 33 l 637 326 q 617 377 637 356 q 567 397 596 397 l 321 397 q 272 377 292 397 q 252 326 252 356 l 252 57 q 235 17 252 33 q 195 0 218 0 q 154 17 171 0 q 138 57 138 33 l 138 768 q 154 808 138 790 l 301 956 q 342 972 316 972 l 547 972 q 587 957 567 972 l 734 807 q 751 768 751 792 m 637 582 l 637 720 q 619 760 637 741 l 539 842 q 498 859 522 859 l 389 859 q 350 842 365 859 l 268 760 q 252 720 252 745 l 252 582 q 272 532 252 553 q 321 511 292 511 l 567 511 q 617 532 596 511 q 637 582 637 553 z "},"":{"ha":888,"x_min":138,"x_max":751,"o":"m 543 1274 l 428 1157 q 387 1141 410 1141 q 346 1157 363 1141 q 329 1197 329 1173 q 347 1239 329 1221 l 461 1354 q 501 1369 478 1369 q 542 1353 525 1369 q 559 1312 559 1336 q 543 1274 559 1288 m 751 768 l 751 57 q 735 17 751 33 q 694 0 718 0 q 654 17 671 0 q 637 57 637 33 l 637 326 q 617 377 637 356 q 567 397 596 397 l 321 397 q 272 377 292 397 q 252 326 252 356 l 252 57 q 235 17 252 33 q 195 0 218 0 q 154 17 171 0 q 138 57 138 33 l 138 768 q 154 808 138 790 l 301 956 q 342 972 316 972 l 547 972 q 587 957 567 972 l 734 807 q 751 768 751 792 m 637 582 l 637 720 q 619 760 637 741 l 539 842 q 498 859 522 859 l 389 859 q 350 842 365 859 l 268 760 q 252 720 252 745 l 252 582 q 272 532 252 553 q 321 511 292 511 l 567 511 q 617 532 596 511 q 637 582 637 553 z "},"":{"ha":888,"x_min":138,"x_max":751,"o":"m 401 1204 l 349 1154 q 314 1141 336 1141 q 280 1155 294 1141 q 265 1189 265 1169 q 279 1226 265 1208 l 411 1356 q 446 1369 422 1369 q 481 1356 467 1369 l 611 1226 q 624 1189 624 1209 q 611 1155 624 1168 q 576 1141 597 1141 q 541 1154 555 1141 l 489 1204 q 446 1223 472 1223 q 401 1204 418 1223 m 751 768 l 751 57 q 735 17 751 33 q 694 0 718 0 q 654 17 671 0 q 637 57 637 33 l 637 326 q 617 377 637 356 q 567 397 596 397 l 321 397 q 272 377 292 397 q 252 326 252 356 l 252 57 q 235 17 252 33 q 195 0 218 0 q 154 17 171 0 q 138 57 138 33 l 138 768 q 154 808 138 790 l 301 956 q 342 972 316 972 l 547 972 q 587 957 567 972 l 734 807 q 751 768 751 792 m 637 582 l 637 720 q 619 760 637 741 l 539 842 q 498 859 522 859 l 389 859 q 350 842 365 859 l 268 760 q 252 720 252 745 l 252 582 q 272 532 252 553 q 321 511 292 511 l 567 511 q 617 532 596 511 q 637 582 637 553 z "},"":{"ha":888,"x_min":138,"x_max":751,"o":"m 346 1296 l 319 1270 l 319 1221 q 306 1188 319 1201 q 273 1175 293 1175 q 241 1188 255 1175 q 228 1221 228 1201 l 228 1292 q 239 1320 228 1309 l 296 1377 q 323 1388 311 1388 l 395 1388 q 424 1377 409 1388 l 479 1320 q 490 1292 490 1305 l 490 1258 l 517 1234 l 546 1234 l 571 1258 l 571 1307 q 584 1340 571 1326 q 616 1353 597 1353 q 649 1340 636 1353 q 663 1307 663 1326 l 663 1238 q 653 1208 663 1222 l 593 1153 q 567 1141 583 1141 l 496 1141 q 467 1153 483 1141 l 410 1208 q 400 1238 400 1218 l 400 1270 l 374 1296 l 346 1296 m 751 768 l 751 57 q 735 17 751 33 q 694 0 718 0 q 654 17 671 0 q 637 57 637 33 l 637 326 q 617 377 637 356 q 567 397 596 397 l 321 397 q 272 377 292 397 q 252 326 252 356 l 252 57 q 235 17 252 33 q 195 0 218 0 q 154 17 171 0 q 138 57 138 33 l 138 768 q 154 808 138 790 l 301 956 q 342 972 316 972 l 547 972 q 587 957 567 972 l 734 807 q 751 768 751 792 m 637 582 l 637 720 q 619 760 637 741 l 539 842 q 498 859 522 859 l 389 859 q 350 842 365 859 l 268 760 q 252 720 252 745 l 252 582 q 272 532 252 553 q 321 511 292 511 l 567 511 q 617 532 596 511 q 637 582 637 553 z "},"":{"ha":888,"x_min":138,"x_max":751,"o":"m 582 1156 l 554 1156 q 514 1172 530 1156 q 497 1211 497 1187 l 497 1240 q 514 1280 497 1264 q 554 1296 530 1296 l 582 1296 q 622 1280 606 1296 q 639 1240 639 1264 l 639 1211 q 622 1172 639 1187 q 582 1156 606 1156 m 335 1156 l 307 1156 q 268 1172 283 1156 q 252 1211 252 1187 l 252 1240 q 268 1280 252 1264 q 307 1296 283 1296 l 335 1296 q 375 1280 359 1296 q 392 1240 392 1264 l 392 1211 q 375 1172 392 1187 q 335 1156 359 1156 m 751 768 l 751 57 q 735 17 751 33 q 694 0 718 0 q 654 17 671 0 q 637 57 637 33 l 637 326 q 617 377 637 356 q 567 397 596 397 l 321 397 q 272 377 292 397 q 252 326 252 356 l 252 57 q 235 17 252 33 q 195 0 218 0 q 154 17 171 0 q 138 57 138 33 l 138 768 q 154 808 138 790 l 301 956 q 342 972 316 972 l 547 972 q 587 957 567 972 l 734 807 q 751 768 751 792 m 637 582 l 637 720 q 619 760 637 741 l 539 842 q 498 859 522 859 l 389 859 q 350 842 365 859 l 268 760 q 252 720 252 745 l 252 582 q 272 532 252 553 q 321 511 292 511 l 567 511 q 617 532 596 511 q 637 582 637 553 z "},"":{"ha":888,"x_min":138,"x_max":751,"o":"m 296 1190 l 296 1276 q 306 1300 296 1290 l 378 1373 q 403 1383 390 1383 l 488 1383 q 513 1375 499 1383 l 586 1299 q 595 1276 595 1290 l 595 1190 q 586 1166 595 1177 l 513 1093 q 488 1084 498 1084 l 403 1084 q 378 1095 390 1084 l 306 1166 q 296 1190 296 1179 m 406 1289 l 390 1274 q 374 1235 374 1259 q 390 1194 374 1208 l 406 1179 q 446 1162 420 1162 q 485 1179 470 1162 l 500 1194 q 517 1235 517 1209 q 500 1274 517 1259 l 485 1289 q 446 1305 471 1305 q 406 1289 420 1305 m 751 768 l 751 57 q 735 17 751 33 q 694 0 718 0 q 654 17 671 0 q 637 57 637 33 l 637 326 q 617 377 637 356 q 567 397 596 397 l 321 397 q 272 377 292 397 q 252 326 252 356 l 252 57 q 235 17 252 33 q 195 0 218 0 q 154 17 171 0 q 138 57 138 33 l 138 768 q 154 808 138 790 l 301 956 q 342 972 316 972 l 547 972 q 587 957 567 972 l 734 807 q 751 768 751 792 m 637 582 l 637 720 q 619 760 637 741 l 539 842 q 498 859 522 859 l 389 859 q 350 842 365 859 l 268 760 q 252 720 252 745 l 252 582 q 272 532 252 553 q 321 511 292 511 l 567 511 q 617 532 596 511 q 637 582 637 553 z "},"":{"ha":888,"x_min":111,"x_max":783,"o":"m 390 57 l 390 368 q 382 390 390 382 q 361 397 374 397 l 296 397 q 246 376 267 397 q 225 328 225 355 l 225 57 q 208 17 225 33 q 167 0 191 0 q 127 17 143 0 q 111 57 111 33 l 111 770 q 126 811 111 792 l 277 956 q 317 972 292 972 l 726 972 q 767 956 750 972 q 783 916 783 939 q 767 875 783 892 q 726 859 750 859 l 575 859 q 525 839 546 859 q 504 789 504 819 l 504 614 q 525 564 504 585 q 575 543 546 543 l 699 543 q 739 527 722 543 q 755 486 755 510 q 739 446 755 463 q 699 429 722 429 l 575 429 q 525 408 546 429 q 504 358 504 387 l 504 183 q 525 134 504 153 q 575 114 546 114 l 726 114 q 767 97 750 114 q 783 57 783 81 q 767 17 783 33 q 726 0 750 0 l 446 0 q 406 17 422 0 q 390 57 390 33 m 390 541 l 390 833 q 382 852 390 845 q 361 859 374 859 q 325 843 340 859 l 244 762 q 225 721 225 746 l 225 582 q 246 532 225 553 q 296 511 267 511 l 361 511 q 382 519 374 511 q 390 541 390 528 z "},"":{"ha":888,"x_min":138,"x_max":750,"o":"m 252 720 l 252 253 q 268 212 252 227 l 350 131 q 389 114 365 114 l 497 114 q 538 131 521 114 l 618 212 q 636 253 636 231 l 636 294 q 653 335 636 318 q 693 353 669 353 q 733 335 717 353 q 750 294 750 318 l 750 204 q 733 165 750 180 l 586 16 q 546 0 566 0 l 482 0 l 482 -29 q 500 -72 482 -54 l 583 -153 q 593 -178 593 -166 l 593 -264 q 585 -288 593 -274 l 509 -361 q 486 -371 500 -371 l 400 -371 q 378 -361 386 -371 l 339 -322 q 326 -294 326 -309 q 338 -268 326 -279 q 367 -257 351 -257 q 395 -267 385 -257 l 403 -275 q 444 -293 420 -293 q 485 -275 467 -293 l 497 -262 q 515 -221 515 -244 q 497 -180 515 -199 l 416 -100 q 404 -68 404 -85 l 404 0 l 342 0 q 298 17 317 0 l 154 164 q 138 204 138 180 l 138 768 q 154 808 138 792 l 298 956 q 342 972 317 972 l 546 972 q 586 957 566 972 l 733 807 q 750 768 750 792 l 750 677 q 733 636 750 654 q 693 619 717 619 q 653 636 669 619 q 636 677 636 654 l 636 720 q 618 760 636 741 l 538 842 q 497 859 521 859 l 389 859 q 350 842 365 859 l 268 760 q 252 720 252 745 z "},"":{"ha":888,"x_min":138,"x_max":750,"o":"m 461 1157 l 346 1272 q 329 1312 329 1287 q 346 1353 329 1336 q 386 1369 362 1369 q 428 1354 409 1369 l 543 1239 q 559 1197 559 1221 q 543 1157 559 1173 q 501 1141 526 1141 q 461 1157 477 1141 m 138 57 l 138 916 q 154 956 138 939 q 195 972 171 972 l 693 972 q 733 956 717 972 q 750 916 750 939 q 733 875 750 892 q 693 859 717 859 l 321 859 q 272 838 292 859 q 252 787 252 817 l 252 614 q 272 564 252 585 q 321 543 292 543 l 597 543 q 638 527 621 543 q 656 486 656 510 q 638 446 656 463 q 597 429 621 429 l 321 429 q 272 408 292 429 q 252 358 252 387 l 252 184 q 272 135 252 155 q 321 114 292 114 l 693 114 q 733 97 717 114 q 750 57 750 81 q 733 17 750 33 q 693 0 717 0 l 195 0 q 154 17 171 0 q 138 57 138 33 z "},"":{"ha":888,"x_min":138,"x_max":750,"o":"m 543 1274 l 428 1157 q 387 1141 410 1141 q 346 1157 363 1141 q 329 1197 329 1173 q 347 1239 329 1221 l 461 1354 q 501 1369 478 1369 q 542 1353 525 1369 q 559 1312 559 1336 q 543 1274 559 1288 m 138 57 l 138 916 q 154 956 138 939 q 195 972 171 972 l 693 972 q 733 956 717 972 q 750 916 750 939 q 733 875 750 892 q 693 859 717 859 l 321 859 q 272 838 292 859 q 252 787 252 817 l 252 614 q 272 564 252 585 q 321 543 292 543 l 597 543 q 638 527 621 543 q 656 486 656 510 q 638 446 656 463 q 597 429 621 429 l 321 429 q 272 408 292 429 q 252 358 252 387 l 252 184 q 272 135 252 155 q 321 114 292 114 l 693 114 q 733 97 717 114 q 750 57 750 81 q 733 17 750 33 q 693 0 717 0 l 195 0 q 154 17 171 0 q 138 57 138 33 z "},"":{"ha":888,"x_min":138,"x_max":750,"o":"m 401 1204 l 349 1154 q 314 1141 336 1141 q 280 1155 294 1141 q 265 1189 265 1169 q 279 1226 265 1208 l 411 1356 q 446 1369 422 1369 q 481 1356 467 1369 l 611 1226 q 624 1189 624 1209 q 611 1155 624 1168 q 576 1141 597 1141 q 541 1154 555 1141 l 489 1204 q 446 1223 472 1223 q 401 1204 418 1223 m 138 57 l 138 916 q 154 956 138 939 q 195 972 171 972 l 693 972 q 733 956 717 972 q 750 916 750 939 q 733 875 750 892 q 693 859 717 859 l 321 859 q 272 838 292 859 q 252 787 252 817 l 252 614 q 272 564 252 585 q 321 543 292 543 l 597 543 q 638 527 621 543 q 656 486 656 510 q 638 446 656 463 q 597 429 621 429 l 321 429 q 272 408 292 429 q 252 358 252 387 l 252 184 q 272 135 252 155 q 321 114 292 114 l 693 114 q 733 97 717 114 q 750 57 750 81 q 733 17 750 33 q 693 0 717 0 l 195 0 q 154 17 171 0 q 138 57 138 33 z "},"":{"ha":888,"x_min":138,"x_max":750,"o":"m 582 1156 l 554 1156 q 514 1172 530 1156 q 497 1211 497 1187 l 497 1240 q 514 1280 497 1264 q 554 1296 530 1296 l 582 1296 q 622 1280 606 1296 q 639 1240 639 1264 l 639 1211 q 622 1172 639 1187 q 582 1156 606 1156 m 335 1156 l 307 1156 q 268 1172 283 1156 q 252 1211 252 1187 l 252 1240 q 268 1280 252 1264 q 307 1296 283 1296 l 335 1296 q 375 1280 359 1296 q 392 1240 392 1264 l 392 1211 q 375 1172 392 1187 q 335 1156 359 1156 m 138 57 l 138 916 q 154 956 138 939 q 195 972 171 972 l 693 972 q 733 956 717 972 q 750 916 750 939 q 733 875 750 892 q 693 859 717 859 l 321 859 q 272 838 292 859 q 252 787 252 817 l 252 614 q 272 564 252 585 q 321 543 292 543 l 597 543 q 638 527 621 543 q 656 486 656 510 q 638 446 656 463 q 597 429 621 429 l 321 429 q 272 408 292 429 q 252 358 252 387 l 252 184 q 272 135 252 155 q 321 114 292 114 l 693 114 q 733 97 717 114 q 750 57 750 81 q 733 17 750 33 q 693 0 717 0 l 195 0 q 154 17 171 0 q 138 57 138 33 z "},"":{"ha":888,"x_min":201,"x_max":688,"o":"m 461 1157 l 346 1272 q 329 1312 329 1287 q 346 1353 329 1336 q 386 1369 362 1369 q 428 1354 409 1369 l 543 1239 q 559 1197 559 1221 q 543 1157 559 1173 q 501 1141 526 1141 q 461 1157 477 1141 m 631 0 l 258 0 q 218 17 235 0 q 201 57 201 33 q 218 97 201 81 q 258 114 235 114 l 317 114 q 367 135 347 114 q 387 184 387 155 l 387 787 q 367 838 387 817 q 317 859 347 859 l 258 859 q 218 875 235 859 q 201 916 201 892 q 218 956 201 939 q 258 972 235 972 l 631 972 q 671 956 654 972 q 688 916 688 939 q 671 875 688 892 q 631 859 654 859 l 572 859 q 522 838 543 859 q 501 787 501 817 l 501 184 q 522 135 501 155 q 572 114 543 114 l 631 114 q 671 97 654 114 q 688 57 688 81 q 671 17 688 33 q 631 0 654 0 z "},"":{"ha":888,"x_min":201,"x_max":688,"o":"m 543 1274 l 428 1157 q 387 1141 410 1141 q 346 1157 363 1141 q 329 1197 329 1173 q 347 1239 329 1221 l 461 1354 q 501 1369 478 1369 q 542 1353 525 1369 q 559 1312 559 1336 q 543 1274 559 1288 m 631 0 l 258 0 q 218 17 235 0 q 201 57 201 33 q 218 97 201 81 q 258 114 235 114 l 317 114 q 367 135 347 114 q 387 184 387 155 l 387 787 q 367 838 387 817 q 317 859 347 859 l 258 859 q 218 875 235 859 q 201 916 201 892 q 218 956 201 939 q 258 972 235 972 l 631 972 q 671 956 654 972 q 688 916 688 939 q 671 875 688 892 q 631 859 654 859 l 572 859 q 522 838 543 859 q 501 787 501 817 l 501 184 q 522 135 501 155 q 572 114 543 114 l 631 114 q 671 97 654 114 q 688 57 688 81 q 671 17 688 33 q 631 0 654 0 z "},"":{"ha":888,"x_min":201,"x_max":688,"o":"m 401 1204 l 349 1154 q 314 1141 336 1141 q 280 1155 294 1141 q 265 1189 265 1169 q 279 1226 265 1208 l 411 1356 q 446 1369 422 1369 q 481 1356 467 1369 l 611 1226 q 624 1189 624 1209 q 611 1155 624 1168 q 576 1141 597 1141 q 541 1154 555 1141 l 489 1204 q 446 1223 472 1223 q 401 1204 418 1223 m 631 0 l 258 0 q 218 17 235 0 q 201 57 201 33 q 218 97 201 81 q 258 114 235 114 l 317 114 q 367 135 347 114 q 387 184 387 155 l 387 787 q 367 838 387 817 q 317 859 347 859 l 258 859 q 218 875 235 859 q 201 916 201 892 q 218 956 201 939 q 258 972 235 972 l 631 972 q 671 956 654 972 q 688 916 688 939 q 671 875 688 892 q 631 859 654 859 l 572 859 q 522 838 543 859 q 501 787 501 817 l 501 184 q 522 135 501 155 q 572 114 543 114 l 631 114 q 671 97 654 114 q 688 57 688 81 q 671 17 688 33 q 631 0 654 0 z "},"":{"ha":888,"x_min":201,"x_max":688,"o":"m 582 1156 l 554 1156 q 514 1172 530 1156 q 497 1211 497 1187 l 497 1240 q 514 1280 497 1264 q 554 1296 530 1296 l 582 1296 q 622 1280 606 1296 q 639 1240 639 1264 l 639 1211 q 622 1172 639 1187 q 582 1156 606 1156 m 335 1156 l 307 1156 q 268 1172 283 1156 q 252 1211 252 1187 l 252 1240 q 268 1280 252 1264 q 307 1296 283 1296 l 335 1296 q 375 1280 359 1296 q 392 1240 392 1264 l 392 1211 q 375 1172 392 1187 q 335 1156 359 1156 m 631 0 l 258 0 q 218 17 235 0 q 201 57 201 33 q 218 97 201 81 q 258 114 235 114 l 317 114 q 367 135 347 114 q 387 184 387 155 l 387 787 q 367 838 387 817 q 317 859 347 859 l 258 859 q 218 875 235 859 q 201 916 201 892 q 218 956 201 939 q 258 972 235 972 l 631 972 q 671 956 654 972 q 688 916 688 939 q 671 875 688 892 q 631 859 654 859 l 572 859 q 522 838 543 859 q 501 787 501 817 l 501 184 q 522 135 501 155 q 572 114 543 114 l 631 114 q 671 97 654 114 q 688 57 688 81 q 671 17 688 33 q 631 0 654 0 z "},"":{"ha":888,"x_min":40,"x_max":755,"o":"m 139 572 l 139 916 q 156 956 139 939 q 196 972 172 972 l 551 972 q 591 957 571 972 l 739 810 q 755 770 755 793 l 755 203 q 739 163 755 179 l 591 16 q 551 0 571 0 l 196 0 q 156 17 172 0 q 139 57 139 33 l 139 403 q 111 431 139 431 l 96 431 q 56 447 72 431 q 40 488 40 464 q 56 528 40 511 q 96 545 72 545 l 111 545 q 139 572 139 545 m 253 403 l 253 183 q 273 134 253 153 q 323 114 294 114 l 501 114 q 542 129 527 114 l 625 211 q 642 252 642 225 l 642 721 q 625 761 642 747 l 542 843 q 501 859 526 859 l 323 859 q 273 839 294 859 q 253 789 253 819 l 253 572 q 281 545 253 545 l 479 545 q 520 528 503 545 q 536 488 536 511 q 520 447 536 464 q 479 431 503 431 l 281 431 q 253 403 253 431 z "},"":{"ha":888,"x_min":138,"x_max":751,"o":"m 346 1296 l 319 1270 l 319 1221 q 306 1188 319 1201 q 273 1175 293 1175 q 241 1188 255 1175 q 228 1221 228 1201 l 228 1292 q 239 1320 228 1309 l 296 1377 q 323 1388 311 1388 l 395 1388 q 424 1377 409 1388 l 479 1320 q 490 1292 490 1305 l 490 1258 l 517 1234 l 546 1234 l 571 1258 l 571 1307 q 584 1340 571 1326 q 616 1353 597 1353 q 649 1340 636 1353 q 663 1307 663 1326 l 663 1238 q 653 1208 663 1222 l 593 1153 q 567 1141 583 1141 l 496 1141 q 467 1153 483 1141 l 410 1208 q 400 1238 400 1218 l 400 1270 l 374 1296 l 346 1296 m 244 945 l 614 310 q 627 298 621 298 q 634 303 631 298 q 637 315 637 307 l 637 916 q 654 956 637 939 q 694 972 671 972 q 735 956 718 972 q 751 916 751 939 l 751 57 q 735 17 751 33 q 694 0 718 0 q 644 28 661 0 l 273 664 q 261 675 267 675 q 252 659 252 675 l 252 57 q 235 17 252 33 q 195 0 218 0 q 154 17 171 0 q 138 57 138 33 l 138 916 q 154 956 138 939 q 195 972 171 972 q 244 945 226 972 z "},"":{"ha":888,"x_min":138,"x_max":751,"o":"m 461 1157 l 346 1272 q 329 1312 329 1287 q 346 1353 329 1336 q 386 1369 362 1369 q 428 1354 409 1369 l 543 1239 q 559 1197 559 1221 q 543 1157 559 1173 q 501 1141 526 1141 q 461 1157 477 1141 m 615 956 l 736 839 q 751 798 751 819 l 751 175 q 736 134 751 154 l 615 17 q 575 0 600 0 l 311 0 q 272 17 287 0 l 154 134 q 138 175 138 154 l 138 798 q 154 839 138 819 l 272 956 q 311 972 287 972 l 575 972 q 615 956 600 972 m 568 131 l 619 183 q 637 222 637 201 l 637 750 q 619 789 637 770 l 568 842 q 528 859 553 859 l 359 859 q 319 842 336 859 l 268 789 q 252 750 252 774 l 252 222 q 268 183 252 197 l 319 131 q 359 114 336 114 l 528 114 q 568 131 553 114 z "},"":{"ha":888,"x_min":138,"x_max":751,"o":"m 543 1274 l 428 1157 q 387 1141 410 1141 q 346 1157 363 1141 q 329 1197 329 1173 q 347 1239 329 1221 l 461 1354 q 501 1369 478 1369 q 542 1353 525 1369 q 559 1312 559 1336 q 543 1274 559 1288 m 615 956 l 736 839 q 751 798 751 819 l 751 175 q 736 134 751 154 l 615 17 q 575 0 600 0 l 311 0 q 272 17 287 0 l 154 134 q 138 175 138 154 l 138 798 q 154 839 138 819 l 272 956 q 311 972 287 972 l 575 972 q 615 956 600 972 m 568 131 l 619 183 q 637 222 637 201 l 637 750 q 619 789 637 770 l 568 842 q 528 859 553 859 l 359 859 q 319 842 336 859 l 268 789 q 252 750 252 774 l 252 222 q 268 183 252 197 l 319 131 q 359 114 336 114 l 528 114 q 568 131 553 114 z "},"":{"ha":888,"x_min":138,"x_max":751,"o":"m 401 1204 l 349 1154 q 314 1141 336 1141 q 280 1155 294 1141 q 265 1189 265 1169 q 279 1226 265 1208 l 411 1356 q 446 1369 422 1369 q 481 1356 467 1369 l 611 1226 q 624 1189 624 1209 q 611 1155 624 1168 q 576 1141 597 1141 q 541 1154 555 1141 l 489 1204 q 446 1223 472 1223 q 401 1204 418 1223 m 615 956 l 736 839 q 751 798 751 819 l 751 175 q 736 134 751 154 l 615 17 q 575 0 600 0 l 311 0 q 272 17 287 0 l 154 134 q 138 175 138 154 l 138 798 q 154 839 138 819 l 272 956 q 311 972 287 972 l 575 972 q 615 956 600 972 m 568 131 l 619 183 q 637 222 637 201 l 637 750 q 619 789 637 770 l 568 842 q 528 859 553 859 l 359 859 q 319 842 336 859 l 268 789 q 252 750 252 774 l 252 222 q 268 183 252 197 l 319 131 q 359 114 336 114 l 528 114 q 568 131 553 114 z "},"":{"ha":888,"x_min":138,"x_max":751,"o":"m 346 1296 l 319 1270 l 319 1221 q 306 1188 319 1201 q 273 1175 293 1175 q 241 1188 255 1175 q 228 1221 228 1201 l 228 1292 q 239 1320 228 1309 l 296 1377 q 323 1388 311 1388 l 395 1388 q 424 1377 409 1388 l 479 1320 q 490 1292 490 1305 l 490 1258 l 517 1234 l 546 1234 l 571 1258 l 571 1307 q 584 1340 571 1326 q 616 1353 597 1353 q 649 1340 636 1353 q 663 1307 663 1326 l 663 1238 q 653 1208 663 1222 l 593 1153 q 567 1141 583 1141 l 496 1141 q 467 1153 483 1141 l 410 1208 q 400 1238 400 1218 l 400 1270 l 374 1296 l 346 1296 m 615 956 l 736 839 q 751 798 751 819 l 751 175 q 736 134 751 154 l 615 17 q 575 0 600 0 l 311 0 q 272 17 287 0 l 154 134 q 138 175 138 154 l 138 798 q 154 839 138 819 l 272 956 q 311 972 287 972 l 575 972 q 615 956 600 972 m 568 131 l 619 183 q 637 222 637 201 l 637 750 q 619 789 637 770 l 568 842 q 528 859 553 859 l 359 859 q 319 842 336 859 l 268 789 q 252 750 252 774 l 252 222 q 268 183 252 197 l 319 131 q 359 114 336 114 l 528 114 q 568 131 553 114 z "},"":{"ha":888,"x_min":138,"x_max":751,"o":"m 582 1156 l 554 1156 q 514 1172 530 1156 q 497 1211 497 1187 l 497 1240 q 514 1280 497 1264 q 554 1296 530 1296 l 582 1296 q 622 1280 606 1296 q 639 1240 639 1264 l 639 1211 q 622 1172 639 1187 q 582 1156 606 1156 m 335 1156 l 307 1156 q 268 1172 283 1156 q 252 1211 252 1187 l 252 1240 q 268 1280 252 1264 q 307 1296 283 1296 l 335 1296 q 375 1280 359 1296 q 392 1240 392 1264 l 392 1211 q 375 1172 392 1187 q 335 1156 359 1156 m 615 956 l 736 839 q 751 798 751 819 l 751 175 q 736 134 751 154 l 615 17 q 575 0 600 0 l 311 0 q 272 17 287 0 l 154 134 q 138 175 138 154 l 138 798 q 154 839 138 819 l 272 956 q 311 972 287 972 l 575 972 q 615 956 600 972 m 568 131 l 619 183 q 637 222 637 201 l 637 750 q 619 789 637 770 l 568 842 q 528 859 553 859 l 359 859 q 319 842 336 859 l 268 789 q 252 750 252 774 l 252 222 q 268 183 252 197 l 319 131 q 359 114 336 114 l 528 114 q 568 131 553 114 z "},"":{"ha":888,"x_min":167,"x_max":722,"o":"m 472 642 l 415 642 q 375 657 391 642 q 359 697 359 673 l 359 754 q 375 794 359 778 q 415 810 391 810 l 472 810 q 512 794 496 810 q 528 754 528 778 l 528 697 q 512 657 528 673 q 472 642 496 642 m 222 545 l 667 545 q 706 528 690 545 q 722 488 722 511 q 706 447 722 464 q 667 431 690 431 l 222 431 q 183 447 199 431 q 167 488 167 464 q 183 528 167 511 q 222 545 199 545 m 472 164 l 415 164 q 375 180 391 164 q 359 220 359 196 l 359 277 q 375 316 359 300 q 415 332 391 332 l 472 332 q 512 316 496 332 q 528 277 528 300 l 528 220 q 512 180 528 196 q 472 164 496 164 z "},"":{"ha":888,"x_min":43,"x_max":846,"o":"m 743 868 l 747 872 q 789 888 763 888 q 829 872 812 888 q 846 832 846 856 q 829 791 846 804 l 768 728 q 751 688 751 711 l 751 176 q 734 134 751 155 l 614 17 q 575 0 599 0 l 313 0 q 273 17 288 0 l 183 106 q 164 114 175 114 q 146 104 151 114 l 142 100 q 98 85 125 85 q 59 101 75 85 q 43 142 43 118 q 58 183 43 168 l 118 244 q 136 285 136 262 l 136 798 q 154 839 136 817 l 273 956 q 313 972 288 972 l 575 972 q 614 956 599 972 l 704 867 q 724 859 712 859 q 743 868 738 859 m 319 840 l 269 791 q 252 750 252 774 l 252 412 q 264 395 252 395 q 278 403 272 395 l 618 743 q 631 770 631 754 q 624 786 631 779 l 568 842 q 526 859 551 859 l 361 859 q 319 840 338 859 m 568 132 l 618 180 q 637 222 637 200 l 637 559 q 624 578 637 578 q 610 570 616 578 l 269 229 q 257 203 257 219 q 264 186 257 193 l 319 131 q 361 114 336 114 l 526 114 q 568 132 550 114 z "},"":{"ha":888,"x_min":138,"x_max":751,"o":"m 461 1157 l 346 1272 q 329 1312 329 1287 q 346 1353 329 1336 q 386 1369 362 1369 q 428 1354 409 1369 l 543 1239 q 559 1197 559 1221 q 543 1157 559 1173 q 501 1141 526 1141 q 461 1157 477 1141 m 252 916 l 252 222 q 268 183 252 197 l 319 131 q 359 114 336 114 l 528 114 q 568 131 553 114 l 619 183 q 637 222 637 201 l 637 916 q 654 956 637 939 q 694 972 671 972 q 735 956 718 972 q 751 916 751 939 l 751 175 q 736 134 751 154 l 615 17 q 575 0 600 0 l 311 0 q 272 17 287 0 l 154 134 q 138 175 138 154 l 138 916 q 154 956 138 939 q 195 972 171 972 q 235 956 218 972 q 252 916 252 939 z "},"":{"ha":888,"x_min":138,"x_max":751,"o":"m 543 1274 l 428 1157 q 387 1141 410 1141 q 346 1157 363 1141 q 329 1197 329 1173 q 347 1239 329 1221 l 461 1354 q 501 1369 478 1369 q 542 1353 525 1369 q 559 1312 559 1336 q 543 1274 559 1288 m 252 916 l 252 222 q 268 183 252 197 l 319 131 q 359 114 336 114 l 528 114 q 568 131 553 114 l 619 183 q 637 222 637 201 l 637 916 q 654 956 637 939 q 694 972 671 972 q 735 956 718 972 q 751 916 751 939 l 751 175 q 736 134 751 154 l 615 17 q 575 0 600 0 l 311 0 q 272 17 287 0 l 154 134 q 138 175 138 154 l 138 916 q 154 956 138 939 q 195 972 171 972 q 235 956 218 972 q 252 916 252 939 z "},"":{"ha":888,"x_min":138,"x_max":751,"o":"m 401 1204 l 349 1154 q 314 1141 336 1141 q 280 1155 294 1141 q 265 1189 265 1169 q 279 1226 265 1208 l 411 1356 q 446 1369 422 1369 q 481 1356 467 1369 l 611 1226 q 624 1189 624 1209 q 611 1155 624 1168 q 576 1141 597 1141 q 541 1154 555 1141 l 489 1204 q 446 1223 472 1223 q 401 1204 418 1223 m 252 916 l 252 222 q 268 183 252 197 l 319 131 q 359 114 336 114 l 528 114 q 568 131 553 114 l 619 183 q 637 222 637 201 l 637 916 q 654 956 637 939 q 694 972 671 972 q 735 956 718 972 q 751 916 751 939 l 751 175 q 736 134 751 154 l 615 17 q 575 0 600 0 l 311 0 q 272 17 287 0 l 154 134 q 138 175 138 154 l 138 916 q 154 956 138 939 q 195 972 171 972 q 235 956 218 972 q 252 916 252 939 z "},"":{"ha":888,"x_min":138,"x_max":751,"o":"m 582 1156 l 554 1156 q 514 1172 530 1156 q 497 1211 497 1187 l 497 1240 q 514 1280 497 1264 q 554 1296 530 1296 l 582 1296 q 622 1280 606 1296 q 639 1240 639 1264 l 639 1211 q 622 1172 639 1187 q 582 1156 606 1156 m 335 1156 l 307 1156 q 268 1172 283 1156 q 252 1211 252 1187 l 252 1240 q 268 1280 252 1264 q 307 1296 283 1296 l 335 1296 q 375 1280 359 1296 q 392 1240 392 1264 l 392 1211 q 375 1172 392 1187 q 335 1156 359 1156 m 252 916 l 252 222 q 268 183 252 197 l 319 131 q 359 114 336 114 l 528 114 q 568 131 553 114 l 619 183 q 637 222 637 201 l 637 916 q 654 956 637 939 q 694 972 671 972 q 735 956 718 972 q 751 916 751 939 l 751 175 q 736 134 751 154 l 615 17 q 575 0 600 0 l 311 0 q 272 17 287 0 l 154 134 q 138 175 138 154 l 138 916 q 154 956 138 939 q 195 972 171 972 q 235 956 218 972 q 252 916 252 939 z "},"":{"ha":888,"x_min":138,"x_max":751,"o":"m 543 1274 l 428 1157 q 387 1141 410 1141 q 346 1157 363 1141 q 329 1197 329 1173 q 347 1239 329 1221 l 461 1354 q 501 1369 478 1369 q 542 1353 525 1369 q 559 1312 559 1336 q 543 1274 559 1288 m 371 419 l 155 636 q 138 677 138 656 l 138 916 q 154 956 138 939 q 195 972 171 972 q 235 956 218 972 q 252 916 252 939 l 252 725 q 268 686 252 701 l 395 559 q 444 539 415 539 q 494 559 474 539 l 621 686 q 637 725 637 703 l 637 916 q 654 956 637 939 q 694 972 671 972 q 735 956 718 972 q 751 916 751 939 l 751 677 q 734 636 751 655 l 518 419 q 501 380 501 404 l 501 57 q 485 17 501 33 q 444 0 468 0 q 404 17 420 0 q 387 57 387 33 l 387 380 q 371 419 387 405 z "},"":{"ha":888,"x_min":139,"x_max":755,"o":"m 139 -49 l 139 1026 q 156 1066 139 1050 q 196 1082 172 1082 q 236 1066 220 1082 q 253 1026 253 1050 l 253 907 q 273 857 253 877 q 323 836 294 836 l 551 836 q 591 821 571 836 l 739 672 q 755 632 755 656 l 755 346 q 739 306 755 322 l 591 157 q 551 142 572 142 l 323 142 q 273 121 294 142 q 253 71 253 100 l 253 -49 q 236 -89 253 -73 q 196 -104 220 -104 q 156 -89 172 -104 q 139 -49 139 -73 m 642 396 l 642 582 q 625 624 642 608 l 542 705 q 501 722 525 722 l 323 722 q 273 702 294 722 q 253 652 253 682 l 253 326 q 273 276 253 296 q 323 256 294 256 l 501 256 q 542 272 526 256 l 625 354 q 642 396 642 370 z "},"":{"ha":888,"x_min":138,"x_max":751,"o":"m 582 1156 l 554 1156 q 514 1172 530 1156 q 497 1211 497 1187 l 497 1240 q 514 1280 497 1264 q 554 1296 530 1296 l 582 1296 q 622 1280 606 1296 q 639 1240 639 1264 l 639 1211 q 622 1172 639 1187 q 582 1156 606 1156 m 335 1156 l 307 1156 q 268 1172 283 1156 q 252 1211 252 1187 l 252 1240 q 268 1280 252 1264 q 307 1296 283 1296 l 335 1296 q 375 1280 359 1296 q 392 1240 392 1264 l 392 1211 q 375 1172 392 1187 q 335 1156 359 1156 m 371 419 l 155 636 q 138 677 138 656 l 138 916 q 154 956 138 939 q 195 972 171 972 q 235 956 218 972 q 252 916 252 939 l 252 725 q 268 686 252 701 l 395 559 q 444 539 415 539 q 494 559 474 539 l 621 686 q 637 725 637 703 l 637 916 q 654 956 637 939 q 694 972 671 972 q 735 956 718 972 q 751 916 751 939 l 751 677 q 734 636 751 655 l 518 419 q 501 380 501 404 l 501 57 q 485 17 501 33 q 444 0 468 0 q 404 17 420 0 q 387 57 387 33 l 387 380 q 371 419 387 405 z "},"":{"ha":888,"x_min":138,"x_max":751,"o":"m 578 1156 l 311 1156 q 272 1172 288 1156 q 256 1211 256 1187 q 272 1253 256 1236 q 311 1270 288 1270 l 578 1270 q 617 1253 602 1270 q 633 1211 633 1236 q 617 1172 633 1187 q 578 1156 602 1156 m 751 768 l 751 57 q 735 17 751 33 q 694 0 718 0 q 654 17 671 0 q 637 57 637 33 l 637 326 q 617 377 637 356 q 567 397 596 397 l 321 397 q 272 377 292 397 q 252 326 252 356 l 252 57 q 235 17 252 33 q 195 0 218 0 q 154 17 171 0 q 138 57 138 33 l 138 768 q 154 808 138 790 l 301 956 q 342 972 316 972 l 547 972 q 587 957 567 972 l 734 807 q 751 768 751 792 m 637 582 l 637 720 q 619 760 637 741 l 539 842 q 498 859 522 859 l 389 859 q 350 842 365 859 l 268 760 q 252 720 252 745 l 252 582 q 272 532 252 553 q 321 511 292 511 l 567 511 q 617 532 596 511 q 637 582 637 553 z "},"":{"ha":888,"x_min":138,"x_max":751,"o":"m 578 1156 l 311 1156 q 272 1172 288 1156 q 256 1211 256 1187 q 272 1253 256 1236 q 311 1270 288 1270 l 578 1270 q 617 1253 602 1270 q 633 1211 633 1236 q 617 1172 633 1187 q 578 1156 602 1156 m 751 768 l 751 57 q 735 17 751 33 q 694 0 718 0 q 654 17 671 0 q 637 57 637 33 l 637 326 q 617 377 637 356 q 567 397 596 397 l 321 397 q 272 377 292 397 q 252 326 252 356 l 252 57 q 235 17 252 33 q 195 0 218 0 q 154 17 171 0 q 138 57 138 33 l 138 768 q 154 808 138 790 l 301 956 q 342 972 316 972 l 547 972 q 587 957 567 972 l 734 807 q 751 768 751 792 m 637 582 l 637 720 q 619 760 637 741 l 539 842 q 498 859 522 859 l 389 859 q 350 842 365 859 l 268 760 q 252 720 252 745 l 252 582 q 272 532 252 553 q 321 511 292 511 l 567 511 q 617 532 596 511 q 637 582 637 553 z "},"":{"ha":888,"x_min":138,"x_max":751,"o":"m 363 1325 l 363 1310 q 379 1271 363 1285 l 401 1249 q 441 1232 416 1232 l 449 1232 q 488 1249 473 1232 l 510 1271 q 526 1310 526 1285 l 526 1325 q 539 1356 526 1343 q 572 1369 553 1369 q 604 1356 592 1369 q 616 1325 616 1343 l 616 1265 q 606 1238 616 1249 l 522 1152 q 493 1141 508 1141 l 396 1141 q 367 1152 379 1141 l 283 1238 q 272 1265 272 1249 l 272 1325 q 284 1356 272 1343 q 317 1369 297 1369 q 350 1356 336 1369 q 363 1325 363 1343 m 751 768 l 751 57 q 735 17 751 33 q 694 0 718 0 q 654 17 671 0 q 637 57 637 33 l 637 326 q 617 377 637 356 q 567 397 596 397 l 321 397 q 272 377 292 397 q 252 326 252 356 l 252 57 q 235 17 252 33 q 195 0 218 0 q 154 17 171 0 q 138 57 138 33 l 138 768 q 154 808 138 790 l 301 956 q 342 972 316 972 l 547 972 q 587 957 567 972 l 734 807 q 751 768 751 792 m 637 582 l 637 720 q 619 760 637 741 l 539 842 q 498 859 522 859 l 389 859 q 350 842 365 859 l 268 760 q 252 720 252 745 l 252 582 q 272 532 252 553 q 321 511 292 511 l 567 511 q 617 532 596 511 q 637 582 637 553 z "},"":{"ha":888,"x_min":138,"x_max":751,"o":"m 363 1325 l 363 1310 q 379 1271 363 1285 l 401 1249 q 441 1232 416 1232 l 449 1232 q 488 1249 473 1232 l 510 1271 q 526 1310 526 1285 l 526 1325 q 539 1356 526 1343 q 572 1369 553 1369 q 604 1356 592 1369 q 616 1325 616 1343 l 616 1265 q 606 1238 616 1249 l 522 1152 q 493 1141 508 1141 l 396 1141 q 367 1152 379 1141 l 283 1238 q 272 1265 272 1249 l 272 1325 q 284 1356 272 1343 q 317 1369 297 1369 q 350 1356 336 1369 q 363 1325 363 1343 m 751 768 l 751 57 q 735 17 751 33 q 694 0 718 0 q 654 17 671 0 q 637 57 637 33 l 637 326 q 617 377 637 356 q 567 397 596 397 l 321 397 q 272 377 292 397 q 252 326 252 356 l 252 57 q 235 17 252 33 q 195 0 218 0 q 154 17 171 0 q 138 57 138 33 l 138 768 q 154 808 138 790 l 301 956 q 342 972 316 972 l 547 972 q 587 957 567 972 l 734 807 q 751 768 751 792 m 637 582 l 637 720 q 619 760 637 741 l 539 842 q 498 859 522 859 l 389 859 q 350 842 365 859 l 268 760 q 252 720 252 745 l 252 582 q 272 532 252 553 q 321 511 292 511 l 567 511 q 617 532 596 511 q 637 582 637 553 z "},"":{"ha":888,"x_min":138,"x_max":829,"o":"m 751 768 l 751 -68 q 739 -100 751 -85 l 659 -180 q 640 -221 640 -199 q 659 -262 640 -244 l 671 -275 q 713 -293 688 -293 q 753 -275 735 -293 l 761 -267 q 789 -257 770 -257 q 818 -268 806 -257 q 829 -294 829 -279 q 818 -322 829 -306 l 778 -361 q 755 -371 770 -371 l 669 -371 q 647 -361 655 -371 l 571 -288 q 562 -264 562 -273 l 562 -178 q 572 -153 562 -167 l 656 -72 q 673 -29 673 -54 l 673 4 q 637 57 637 20 l 637 326 q 617 377 637 356 q 567 397 596 397 l 321 397 q 272 377 292 397 q 252 326 252 356 l 252 57 q 235 17 252 33 q 195 0 218 0 q 154 17 171 0 q 138 57 138 33 l 138 768 q 154 808 138 790 l 301 956 q 342 972 316 972 l 547 972 q 587 957 567 972 l 734 807 q 751 768 751 792 m 637 582 l 637 720 q 619 760 637 741 l 539 842 q 498 859 522 859 l 389 859 q 350 842 365 859 l 268 760 q 252 720 252 745 l 252 582 q 272 532 252 553 q 321 511 292 511 l 567 511 q 617 532 596 511 q 637 582 637 553 z "},"":{"ha":888,"x_min":138,"x_max":829,"o":"m 751 768 l 751 -68 q 739 -100 751 -85 l 659 -180 q 640 -221 640 -199 q 659 -262 640 -244 l 671 -275 q 713 -293 688 -293 q 753 -275 735 -293 l 761 -267 q 789 -257 770 -257 q 818 -268 806 -257 q 829 -294 829 -279 q 818 -322 829 -306 l 778 -361 q 755 -371 770 -371 l 669 -371 q 647 -361 655 -371 l 571 -288 q 562 -264 562 -273 l 562 -178 q 572 -153 562 -167 l 656 -72 q 673 -29 673 -54 l 673 4 q 637 57 637 20 l 637 326 q 617 377 637 356 q 567 397 596 397 l 321 397 q 272 377 292 397 q 252 326 252 356 l 252 57 q 235 17 252 33 q 195 0 218 0 q 154 17 171 0 q 138 57 138 33 l 138 768 q 154 808 138 790 l 301 956 q 342 972 316 972 l 547 972 q 587 957 567 972 l 734 807 q 751 768 751 792 m 637 582 l 637 720 q 619 760 637 741 l 539 842 q 498 859 522 859 l 389 859 q 350 842 365 859 l 268 760 q 252 720 252 745 l 252 582 q 272 532 252 553 q 321 511 292 511 l 567 511 q 617 532 596 511 q 637 582 637 553 z "},"":{"ha":888,"x_min":138,"x_max":750,"o":"m 543 1274 l 428 1157 q 387 1141 410 1141 q 346 1157 363 1141 q 329 1197 329 1173 q 347 1239 329 1221 l 461 1354 q 501 1369 478 1369 q 542 1353 525 1369 q 559 1312 559 1336 q 543 1274 559 1288 m 252 720 l 252 253 q 268 212 252 227 l 350 131 q 389 114 365 114 l 497 114 q 538 131 521 114 l 618 212 q 636 253 636 231 l 636 294 q 653 335 636 318 q 693 353 669 353 q 733 335 717 353 q 750 294 750 318 l 750 204 q 733 165 750 180 l 586 16 q 546 0 566 0 l 342 0 q 298 17 317 0 l 154 164 q 138 204 138 180 l 138 768 q 154 808 138 792 l 298 956 q 342 972 317 972 l 546 972 q 586 957 566 972 l 733 807 q 750 768 750 792 l 750 677 q 733 636 750 654 q 693 619 717 619 q 653 636 669 619 q 636 677 636 654 l 636 720 q 618 760 636 741 l 538 842 q 497 859 521 859 l 389 859 q 350 842 365 859 l 268 760 q 252 720 252 745 z "},"":{"ha":888,"x_min":138,"x_max":750,"o":"m 543 1274 l 428 1157 q 387 1141 410 1141 q 346 1157 363 1141 q 329 1197 329 1173 q 347 1239 329 1221 l 461 1354 q 501 1369 478 1369 q 542 1353 525 1369 q 559 1312 559 1336 q 543 1274 559 1288 m 252 720 l 252 253 q 268 212 252 227 l 350 131 q 389 114 365 114 l 497 114 q 538 131 521 114 l 618 212 q 636 253 636 231 l 636 294 q 653 335 636 318 q 693 353 669 353 q 733 335 717 353 q 750 294 750 318 l 750 204 q 733 165 750 180 l 586 16 q 546 0 566 0 l 342 0 q 298 17 317 0 l 154 164 q 138 204 138 180 l 138 768 q 154 808 138 792 l 298 956 q 342 972 317 972 l 546 972 q 586 957 566 972 l 733 807 q 750 768 750 792 l 750 677 q 733 636 750 654 q 693 619 717 619 q 653 636 669 619 q 636 677 636 654 l 636 720 q 618 760 636 741 l 538 842 q 497 859 521 859 l 389 859 q 350 842 365 859 l 268 760 q 252 720 252 745 z "},"":{"ha":888,"x_min":138,"x_max":750,"o":"m 401 1204 l 349 1154 q 314 1141 336 1141 q 280 1155 294 1141 q 265 1189 265 1169 q 279 1226 265 1208 l 411 1356 q 446 1369 422 1369 q 481 1356 467 1369 l 611 1226 q 624 1189 624 1209 q 611 1155 624 1168 q 576 1141 597 1141 q 541 1154 555 1141 l 489 1204 q 446 1223 472 1223 q 401 1204 418 1223 m 252 720 l 252 253 q 268 212 252 227 l 350 131 q 389 114 365 114 l 497 114 q 538 131 521 114 l 618 212 q 636 253 636 231 l 636 294 q 653 335 636 318 q 693 353 669 353 q 733 335 717 353 q 750 294 750 318 l 750 204 q 733 165 750 180 l 586 16 q 546 0 566 0 l 342 0 q 298 17 317 0 l 154 164 q 138 204 138 180 l 138 768 q 154 808 138 792 l 298 956 q 342 972 317 972 l 546 972 q 586 957 566 972 l 733 807 q 750 768 750 792 l 750 677 q 733 636 750 654 q 693 619 717 619 q 653 636 669 619 q 636 677 636 654 l 636 720 q 618 760 636 741 l 538 842 q 497 859 521 859 l 389 859 q 350 842 365 859 l 268 760 q 252 720 252 745 z "},"":{"ha":888,"x_min":138,"x_max":750,"o":"m 401 1204 l 349 1154 q 314 1141 336 1141 q 280 1155 294 1141 q 265 1189 265 1169 q 279 1226 265 1208 l 411 1356 q 446 1369 422 1369 q 481 1356 467 1369 l 611 1226 q 624 1189 624 1209 q 611 1155 624 1168 q 576 1141 597 1141 q 541 1154 555 1141 l 489 1204 q 446 1223 472 1223 q 401 1204 418 1223 m 252 720 l 252 253 q 268 212 252 227 l 350 131 q 389 114 365 114 l 497 114 q 538 131 521 114 l 618 212 q 636 253 636 231 l 636 294 q 653 335 636 318 q 693 353 669 353 q 733 335 717 353 q 750 294 750 318 l 750 204 q 733 165 750 180 l 586 16 q 546 0 566 0 l 342 0 q 298 17 317 0 l 154 164 q 138 204 138 180 l 138 768 q 154 808 138 792 l 298 956 q 342 972 317 972 l 546 972 q 586 957 566 972 l 733 807 q 750 768 750 792 l 750 677 q 733 636 750 654 q 693 619 717 619 q 653 636 669 619 q 636 677 636 654 l 636 720 q 618 760 636 741 l 538 842 q 497 859 521 859 l 389 859 q 350 842 365 859 l 268 760 q 252 720 252 745 z "},"":{"ha":888,"x_min":138,"x_max":750,"o":"m 467 1162 l 424 1162 q 384 1178 400 1162 q 368 1218 368 1194 l 368 1261 q 384 1301 368 1285 q 424 1317 400 1317 l 467 1317 q 506 1301 490 1317 q 522 1261 522 1285 l 522 1218 q 506 1178 522 1194 q 467 1162 490 1162 m 252 720 l 252 253 q 268 212 252 227 l 350 131 q 389 114 365 114 l 497 114 q 538 131 521 114 l 618 212 q 636 253 636 231 l 636 294 q 653 335 636 318 q 693 353 669 353 q 733 335 717 353 q 750 294 750 318 l 750 204 q 733 165 750 180 l 586 16 q 546 0 566 0 l 342 0 q 298 17 317 0 l 154 164 q 138 204 138 180 l 138 768 q 154 808 138 792 l 298 956 q 342 972 317 972 l 546 972 q 586 957 566 972 l 733 807 q 750 768 750 792 l 750 677 q 733 636 750 654 q 693 619 717 619 q 653 636 669 619 q 636 677 636 654 l 636 720 q 618 760 636 741 l 538 842 q 497 859 521 859 l 389 859 q 350 842 365 859 l 268 760 q 252 720 252 745 z "},"":{"ha":888,"x_min":138,"x_max":750,"o":"m 467 1162 l 424 1162 q 384 1178 400 1162 q 368 1218 368 1194 l 368 1261 q 384 1301 368 1285 q 424 1317 400 1317 l 467 1317 q 506 1301 490 1317 q 522 1261 522 1285 l 522 1218 q 506 1178 522 1194 q 467 1162 490 1162 m 252 720 l 252 253 q 268 212 252 227 l 350 131 q 389 114 365 114 l 497 114 q 538 131 521 114 l 618 212 q 636 253 636 231 l 636 294 q 653 335 636 318 q 693 353 669 353 q 733 335 717 353 q 750 294 750 318 l 750 204 q 733 165 750 180 l 586 16 q 546 0 566 0 l 342 0 q 298 17 317 0 l 154 164 q 138 204 138 180 l 138 768 q 154 808 138 792 l 298 956 q 342 972 317 972 l 546 972 q 586 957 566 972 l 733 807 q 750 768 750 792 l 750 677 q 733 636 750 654 q 693 619 717 619 q 653 636 669 619 q 636 677 636 654 l 636 720 q 618 760 636 741 l 538 842 q 497 859 521 859 l 389 859 q 350 842 365 859 l 268 760 q 252 720 252 745 z "},"":{"ha":888,"x_min":138,"x_max":750,"o":"m 350 1356 l 400 1304 q 446 1284 418 1284 q 489 1304 471 1284 l 541 1356 q 575 1369 554 1369 q 610 1355 595 1369 q 624 1320 624 1340 q 610 1284 624 1301 l 481 1154 q 446 1141 466 1141 q 408 1154 423 1141 l 279 1284 q 265 1320 265 1299 q 280 1354 265 1339 q 314 1369 294 1369 q 350 1356 336 1369 m 252 720 l 252 253 q 268 212 252 227 l 350 131 q 389 114 365 114 l 497 114 q 538 131 521 114 l 618 212 q 636 253 636 231 l 636 294 q 653 335 636 318 q 693 353 669 353 q 733 335 717 353 q 750 294 750 318 l 750 204 q 733 165 750 180 l 586 16 q 546 0 566 0 l 342 0 q 298 17 317 0 l 154 164 q 138 204 138 180 l 138 768 q 154 808 138 792 l 298 956 q 342 972 317 972 l 546 972 q 586 957 566 972 l 733 807 q 750 768 750 792 l 750 677 q 733 636 750 654 q 693 619 717 619 q 653 636 669 619 q 636 677 636 654 l 636 720 q 618 760 636 741 l 538 842 q 497 859 521 859 l 389 859 q 350 842 365 859 l 268 760 q 252 720 252 745 z "},"":{"ha":888,"x_min":138,"x_max":750,"o":"m 350 1356 l 400 1304 q 446 1284 418 1284 q 489 1304 471 1284 l 541 1356 q 575 1369 554 1369 q 610 1355 595 1369 q 624 1320 624 1340 q 610 1284 624 1301 l 481 1154 q 446 1141 466 1141 q 408 1154 423 1141 l 279 1284 q 265 1320 265 1299 q 280 1354 265 1339 q 314 1369 294 1369 q 350 1356 336 1369 m 252 720 l 252 253 q 268 212 252 227 l 350 131 q 389 114 365 114 l 497 114 q 538 131 521 114 l 618 212 q 636 253 636 231 l 636 294 q 653 335 636 318 q 693 353 669 353 q 733 335 717 353 q 750 294 750 318 l 750 204 q 733 165 750 180 l 586 16 q 546 0 566 0 l 342 0 q 298 17 317 0 l 154 164 q 138 204 138 180 l 138 768 q 154 808 138 792 l 298 956 q 342 972 317 972 l 546 972 q 586 957 566 972 l 733 807 q 750 768 750 792 l 750 677 q 733 636 750 654 q 693 619 717 619 q 653 636 669 619 q 636 677 636 654 l 636 720 q 618 760 636 741 l 538 842 q 497 859 521 859 l 389 859 q 350 842 365 859 l 268 760 q 252 720 252 745 z "},"":{"ha":888,"x_min":138,"x_max":751,"o":"m 350 1356 l 400 1304 q 446 1284 418 1284 q 489 1304 471 1284 l 541 1356 q 575 1369 554 1369 q 610 1355 595 1369 q 624 1320 624 1340 q 610 1284 624 1301 l 481 1154 q 446 1141 466 1141 q 408 1154 423 1141 l 279 1284 q 265 1320 265 1299 q 280 1354 265 1339 q 314 1369 294 1369 q 350 1356 336 1369 m 587 957 l 734 807 q 751 768 751 792 l 751 204 q 734 165 751 180 l 587 16 q 547 0 567 0 l 195 0 q 154 17 171 0 q 138 57 138 33 l 138 916 q 154 956 138 939 q 195 972 171 972 l 547 972 q 587 957 567 972 m 539 131 l 619 212 q 637 253 637 231 l 637 720 q 619 760 637 741 l 539 842 q 498 859 522 859 l 321 859 q 272 838 292 859 q 252 787 252 817 l 252 184 q 272 135 252 155 q 321 114 292 114 l 498 114 q 539 131 522 114 z "},"":{"ha":888,"x_min":138,"x_max":751,"o":"m 350 1356 l 400 1304 q 446 1284 418 1284 q 489 1304 471 1284 l 541 1356 q 575 1369 554 1369 q 610 1355 595 1369 q 624 1320 624 1340 q 610 1284 624 1301 l 481 1154 q 446 1141 466 1141 q 408 1154 423 1141 l 279 1284 q 265 1320 265 1299 q 280 1354 265 1339 q 314 1369 294 1369 q 350 1356 336 1369 m 587 957 l 734 807 q 751 768 751 792 l 751 204 q 734 165 751 180 l 587 16 q 547 0 567 0 l 195 0 q 154 17 171 0 q 138 57 138 33 l 138 916 q 154 956 138 939 q 195 972 171 972 l 547 972 q 587 957 567 972 m 539 131 l 619 212 q 637 253 637 231 l 637 720 q 619 760 637 741 l 539 842 q 498 859 522 859 l 321 859 q 272 838 292 859 q 252 787 252 817 l 252 184 q 272 135 252 155 q 321 114 292 114 l 498 114 q 539 131 522 114 z "},"":{"ha":888,"x_min":39,"x_max":751,"o":"m 138 572 l 138 916 q 154 956 138 939 q 195 972 171 972 l 547 972 q 587 957 567 972 l 734 807 q 751 768 751 792 l 751 204 q 734 165 751 180 l 587 16 q 547 0 567 0 l 195 0 q 154 17 171 0 q 138 57 138 33 l 138 403 q 110 431 138 431 l 96 431 q 55 447 72 431 q 39 488 39 464 q 55 528 39 511 q 96 545 72 545 l 110 545 q 138 572 138 545 m 252 403 l 252 184 q 272 135 252 155 q 321 114 292 114 l 498 114 q 539 131 522 114 l 619 212 q 637 253 637 231 l 637 720 q 619 760 637 741 l 539 842 q 498 859 522 859 l 321 859 q 272 838 292 859 q 252 787 252 817 l 252 572 q 279 545 252 545 l 476 545 q 516 528 500 545 q 532 488 532 511 q 516 447 532 464 q 476 431 500 431 l 279 431 q 252 403 252 431 z "},"":{"ha":888,"x_min":39,"x_max":751,"o":"m 138 572 l 138 916 q 154 956 138 939 q 195 972 171 972 l 547 972 q 587 957 567 972 l 734 807 q 751 768 751 792 l 751 204 q 734 165 751 180 l 587 16 q 547 0 567 0 l 195 0 q 154 17 171 0 q 138 57 138 33 l 138 403 q 110 431 138 431 l 96 431 q 55 447 72 431 q 39 488 39 464 q 55 528 39 511 q 96 545 72 545 l 110 545 q 138 572 138 545 m 252 403 l 252 184 q 272 135 252 155 q 321 114 292 114 l 498 114 q 539 131 522 114 l 619 212 q 637 253 637 231 l 637 720 q 619 760 637 741 l 539 842 q 498 859 522 859 l 321 859 q 272 838 292 859 q 252 787 252 817 l 252 572 q 279 545 252 545 l 476 545 q 516 528 500 545 q 532 488 532 511 q 516 447 532 464 q 476 431 500 431 l 279 431 q 252 403 252 431 z "},"":{"ha":888,"x_min":138,"x_max":750,"o":"m 578 1156 l 311 1156 q 272 1172 288 1156 q 256 1211 256 1187 q 272 1253 256 1236 q 311 1270 288 1270 l 578 1270 q 617 1253 602 1270 q 633 1211 633 1236 q 617 1172 633 1187 q 578 1156 602 1156 m 138 57 l 138 916 q 154 956 138 939 q 195 972 171 972 l 693 972 q 733 956 717 972 q 750 916 750 939 q 733 875 750 892 q 693 859 717 859 l 321 859 q 272 838 292 859 q 252 787 252 817 l 252 614 q 272 564 252 585 q 321 543 292 543 l 597 543 q 638 527 621 543 q 656 486 656 510 q 638 446 656 463 q 597 429 621 429 l 321 429 q 272 408 292 429 q 252 358 252 387 l 252 184 q 272 135 252 155 q 321 114 292 114 l 693 114 q 733 97 717 114 q 750 57 750 81 q 733 17 750 33 q 693 0 717 0 l 195 0 q 154 17 171 0 q 138 57 138 33 z "},"":{"ha":888,"x_min":138,"x_max":750,"o":"m 578 1156 l 311 1156 q 272 1172 288 1156 q 256 1211 256 1187 q 272 1253 256 1236 q 311 1270 288 1270 l 578 1270 q 617 1253 602 1270 q 633 1211 633 1236 q 617 1172 633 1187 q 578 1156 602 1156 m 138 57 l 138 916 q 154 956 138 939 q 195 972 171 972 l 693 972 q 733 956 717 972 q 750 916 750 939 q 733 875 750 892 q 693 859 717 859 l 321 859 q 272 838 292 859 q 252 787 252 817 l 252 614 q 272 564 252 585 q 321 543 292 543 l 597 543 q 638 527 621 543 q 656 486 656 510 q 638 446 656 463 q 597 429 621 429 l 321 429 q 272 408 292 429 q 252 358 252 387 l 252 184 q 272 135 252 155 q 321 114 292 114 l 693 114 q 733 97 717 114 q 750 57 750 81 q 733 17 750 33 q 693 0 717 0 l 195 0 q 154 17 171 0 q 138 57 138 33 z "},"":{"ha":888,"x_min":138,"x_max":750,"o":"m 363 1325 l 363 1310 q 379 1271 363 1285 l 401 1249 q 441 1232 416 1232 l 449 1232 q 488 1249 473 1232 l 510 1271 q 526 1310 526 1285 l 526 1325 q 539 1356 526 1343 q 572 1369 553 1369 q 604 1356 592 1369 q 616 1325 616 1343 l 616 1265 q 606 1238 616 1249 l 522 1152 q 493 1141 508 1141 l 396 1141 q 367 1152 379 1141 l 283 1238 q 272 1265 272 1249 l 272 1325 q 284 1356 272 1343 q 317 1369 297 1369 q 350 1356 336 1369 q 363 1325 363 1343 m 138 57 l 138 916 q 154 956 138 939 q 195 972 171 972 l 693 972 q 733 956 717 972 q 750 916 750 939 q 733 875 750 892 q 693 859 717 859 l 321 859 q 272 838 292 859 q 252 787 252 817 l 252 614 q 272 564 252 585 q 321 543 292 543 l 597 543 q 638 527 621 543 q 656 486 656 510 q 638 446 656 463 q 597 429 621 429 l 321 429 q 272 408 292 429 q 252 358 252 387 l 252 184 q 272 135 252 155 q 321 114 292 114 l 693 114 q 733 97 717 114 q 750 57 750 81 q 733 17 750 33 q 693 0 717 0 l 195 0 q 154 17 171 0 q 138 57 138 33 z "},"":{"ha":888,"x_min":138,"x_max":750,"o":"m 363 1325 l 363 1310 q 379 1271 363 1285 l 401 1249 q 441 1232 416 1232 l 449 1232 q 488 1249 473 1232 l 510 1271 q 526 1310 526 1285 l 526 1325 q 539 1356 526 1343 q 572 1369 553 1369 q 604 1356 592 1369 q 616 1325 616 1343 l 616 1265 q 606 1238 616 1249 l 522 1152 q 493 1141 508 1141 l 396 1141 q 367 1152 379 1141 l 283 1238 q 272 1265 272 1249 l 272 1325 q 284 1356 272 1343 q 317 1369 297 1369 q 350 1356 336 1369 q 363 1325 363 1343 m 138 57 l 138 916 q 154 956 138 939 q 195 972 171 972 l 693 972 q 733 956 717 972 q 750 916 750 939 q 733 875 750 892 q 693 859 717 859 l 321 859 q 272 838 292 859 q 252 787 252 817 l 252 614 q 272 564 252 585 q 321 543 292 543 l 597 543 q 638 527 621 543 q 656 486 656 510 q 638 446 656 463 q 597 429 621 429 l 321 429 q 272 408 292 429 q 252 358 252 387 l 252 184 q 272 135 252 155 q 321 114 292 114 l 693 114 q 733 97 717 114 q 750 57 750 81 q 733 17 750 33 q 693 0 717 0 l 195 0 q 154 17 171 0 q 138 57 138 33 z "},"":{"ha":888,"x_min":138,"x_max":750,"o":"m 467 1162 l 424 1162 q 384 1178 400 1162 q 368 1218 368 1194 l 368 1261 q 384 1301 368 1285 q 424 1317 400 1317 l 467 1317 q 506 1301 490 1317 q 522 1261 522 1285 l 522 1218 q 506 1178 522 1194 q 467 1162 490 1162 m 138 57 l 138 916 q 154 956 138 939 q 195 972 171 972 l 693 972 q 733 956 717 972 q 750 916 750 939 q 733 875 750 892 q 693 859 717 859 l 321 859 q 272 838 292 859 q 252 787 252 817 l 252 614 q 272 564 252 585 q 321 543 292 543 l 597 543 q 638 527 621 543 q 656 486 656 510 q 638 446 656 463 q 597 429 621 429 l 321 429 q 272 408 292 429 q 252 358 252 387 l 252 184 q 272 135 252 155 q 321 114 292 114 l 693 114 q 733 97 717 114 q 750 57 750 81 q 733 17 750 33 q 693 0 717 0 l 195 0 q 154 17 171 0 q 138 57 138 33 z "},"":{"ha":888,"x_min":138,"x_max":750,"o":"m 467 1162 l 424 1162 q 384 1178 400 1162 q 368 1218 368 1194 l 368 1261 q 384 1301 368 1285 q 424 1317 400 1317 l 467 1317 q 506 1301 490 1317 q 522 1261 522 1285 l 522 1218 q 506 1178 522 1194 q 467 1162 490 1162 m 138 57 l 138 916 q 154 956 138 939 q 195 972 171 972 l 693 972 q 733 956 717 972 q 750 916 750 939 q 733 875 750 892 q 693 859 717 859 l 321 859 q 272 838 292 859 q 252 787 252 817 l 252 614 q 272 564 252 585 q 321 543 292 543 l 597 543 q 638 527 621 543 q 656 486 656 510 q 638 446 656 463 q 597 429 621 429 l 321 429 q 272 408 292 429 q 252 358 252 387 l 252 184 q 272 135 252 155 q 321 114 292 114 l 693 114 q 733 97 717 114 q 750 57 750 81 q 733 17 750 33 q 693 0 717 0 l 195 0 q 154 17 171 0 q 138 57 138 33 z "},"":{"ha":888,"x_min":138,"x_max":828,"o":"m 138 57 l 138 916 q 154 956 138 939 q 195 972 171 972 l 693 972 q 733 956 717 972 q 750 916 750 939 q 733 875 750 892 q 693 859 717 859 l 321 859 q 272 838 292 859 q 252 787 252 817 l 252 614 q 272 564 252 585 q 321 543 292 543 l 597 543 q 638 527 621 543 q 656 486 656 510 q 638 446 656 463 q 597 429 621 429 l 321 429 q 272 408 292 429 q 252 358 252 387 l 252 184 q 272 135 252 155 q 321 114 292 114 l 693 114 q 734 96 718 114 q 750 53 750 78 l 750 -68 q 737 -100 750 -85 l 657 -180 q 639 -221 639 -199 q 657 -262 639 -244 l 669 -275 q 711 -293 687 -293 q 751 -275 734 -293 l 760 -267 q 787 -257 769 -257 q 816 -268 804 -257 q 828 -294 828 -279 q 817 -322 828 -306 l 777 -361 q 754 -371 768 -371 l 668 -371 q 646 -361 654 -371 l 570 -288 q 561 -264 561 -273 l 561 -178 q 571 -153 561 -167 l 654 -72 q 672 -29 672 -54 l 672 0 l 195 0 q 154 17 171 0 q 138 57 138 33 z "},"":{"ha":888,"x_min":138,"x_max":828,"o":"m 138 57 l 138 916 q 154 956 138 939 q 195 972 171 972 l 693 972 q 733 956 717 972 q 750 916 750 939 q 733 875 750 892 q 693 859 717 859 l 321 859 q 272 838 292 859 q 252 787 252 817 l 252 614 q 272 564 252 585 q 321 543 292 543 l 597 543 q 638 527 621 543 q 656 486 656 510 q 638 446 656 463 q 597 429 621 429 l 321 429 q 272 408 292 429 q 252 358 252 387 l 252 184 q 272 135 252 155 q 321 114 292 114 l 693 114 q 734 96 718 114 q 750 53 750 78 l 750 -68 q 737 -100 750 -85 l 657 -180 q 639 -221 639 -199 q 657 -262 639 -244 l 669 -275 q 711 -293 687 -293 q 751 -275 734 -293 l 760 -267 q 787 -257 769 -257 q 816 -268 804 -257 q 828 -294 828 -279 q 817 -322 828 -306 l 777 -361 q 754 -371 768 -371 l 668 -371 q 646 -361 654 -371 l 570 -288 q 561 -264 561 -273 l 561 -178 q 571 -153 561 -167 l 654 -72 q 672 -29 672 -54 l 672 0 l 195 0 q 154 17 171 0 q 138 57 138 33 z "},"":{"ha":888,"x_min":138,"x_max":750,"o":"m 350 1356 l 400 1304 q 446 1284 418 1284 q 489 1304 471 1284 l 541 1356 q 575 1369 554 1369 q 610 1355 595 1369 q 624 1320 624 1340 q 610 1284 624 1301 l 481 1154 q 446 1141 466 1141 q 408 1154 423 1141 l 279 1284 q 265 1320 265 1299 q 280 1354 265 1339 q 314 1369 294 1369 q 350 1356 336 1369 m 138 57 l 138 916 q 154 956 138 939 q 195 972 171 972 l 693 972 q 733 956 717 972 q 750 916 750 939 q 733 875 750 892 q 693 859 717 859 l 321 859 q 272 838 292 859 q 252 787 252 817 l 252 614 q 272 564 252 585 q 321 543 292 543 l 597 543 q 638 527 621 543 q 656 486 656 510 q 638 446 656 463 q 597 429 621 429 l 321 429 q 272 408 292 429 q 252 358 252 387 l 252 184 q 272 135 252 155 q 321 114 292 114 l 693 114 q 733 97 717 114 q 750 57 750 81 q 733 17 750 33 q 693 0 717 0 l 195 0 q 154 17 171 0 q 138 57 138 33 z "},"":{"ha":888,"x_min":138,"x_max":750,"o":"m 350 1356 l 400 1304 q 446 1284 418 1284 q 489 1304 471 1284 l 541 1356 q 575 1369 554 1369 q 610 1355 595 1369 q 624 1320 624 1340 q 610 1284 624 1301 l 481 1154 q 446 1141 466 1141 q 408 1154 423 1141 l 279 1284 q 265 1320 265 1299 q 280 1354 265 1339 q 314 1369 294 1369 q 350 1356 336 1369 m 138 57 l 138 916 q 154 956 138 939 q 195 972 171 972 l 693 972 q 733 956 717 972 q 750 916 750 939 q 733 875 750 892 q 693 859 717 859 l 321 859 q 272 838 292 859 q 252 787 252 817 l 252 614 q 272 564 252 585 q 321 543 292 543 l 597 543 q 638 527 621 543 q 656 486 656 510 q 638 446 656 463 q 597 429 621 429 l 321 429 q 272 408 292 429 q 252 358 252 387 l 252 184 q 272 135 252 155 q 321 114 292 114 l 693 114 q 733 97 717 114 q 750 57 750 81 q 733 17 750 33 q 693 0 717 0 l 195 0 q 154 17 171 0 q 138 57 138 33 z "},"":{"ha":888,"x_min":138,"x_max":751,"o":"m 401 1204 l 349 1154 q 314 1141 336 1141 q 280 1155 294 1141 q 265 1189 265 1169 q 279 1226 265 1208 l 411 1356 q 446 1369 422 1369 q 481 1356 467 1369 l 611 1226 q 624 1189 624 1209 q 611 1155 624 1168 q 576 1141 597 1141 q 541 1154 555 1141 l 489 1204 q 446 1223 472 1223 q 401 1204 418 1223 m 637 733 l 637 750 q 619 789 637 770 l 568 842 q 528 859 553 859 l 361 859 q 319 842 336 859 l 268 789 q 252 750 252 774 l 252 222 q 268 183 252 197 l 319 131 q 361 114 336 114 l 528 114 q 568 131 553 114 l 619 183 q 637 222 637 201 l 637 359 q 617 409 637 389 q 567 429 596 429 l 482 429 q 441 446 458 429 q 424 486 424 463 q 441 527 424 510 q 482 543 458 543 l 694 543 q 735 527 718 543 q 751 486 751 510 l 751 176 q 736 134 751 154 l 615 17 q 575 0 600 0 l 311 0 q 272 17 287 0 l 154 134 q 138 176 138 154 l 138 798 q 154 839 138 819 l 272 956 q 311 972 287 972 l 575 972 q 615 956 600 972 l 736 839 q 751 798 751 819 l 751 733 q 735 693 751 709 q 694 676 718 676 q 654 693 671 676 q 637 733 637 709 z "},"":{"ha":888,"x_min":138,"x_max":751,"o":"m 401 1204 l 349 1154 q 314 1141 336 1141 q 280 1155 294 1141 q 265 1189 265 1169 q 279 1226 265 1208 l 411 1356 q 446 1369 422 1369 q 481 1356 467 1369 l 611 1226 q 624 1189 624 1209 q 611 1155 624 1168 q 576 1141 597 1141 q 541 1154 555 1141 l 489 1204 q 446 1223 472 1223 q 401 1204 418 1223 m 637 733 l 637 750 q 619 789 637 770 l 568 842 q 528 859 553 859 l 361 859 q 319 842 336 859 l 268 789 q 252 750 252 774 l 252 222 q 268 183 252 197 l 319 131 q 361 114 336 114 l 528 114 q 568 131 553 114 l 619 183 q 637 222 637 201 l 637 359 q 617 409 637 389 q 567 429 596 429 l 482 429 q 441 446 458 429 q 424 486 424 463 q 441 527 424 510 q 482 543 458 543 l 694 543 q 735 527 718 543 q 751 486 751 510 l 751 176 q 736 134 751 154 l 615 17 q 575 0 600 0 l 311 0 q 272 17 287 0 l 154 134 q 138 176 138 154 l 138 798 q 154 839 138 819 l 272 956 q 311 972 287 972 l 575 972 q 615 956 600 972 l 736 839 q 751 798 751 819 l 751 733 q 735 693 751 709 q 694 676 718 676 q 654 693 671 676 q 637 733 637 709 z "},"":{"ha":888,"x_min":138,"x_max":751,"o":"m 363 1325 l 363 1310 q 379 1271 363 1285 l 401 1249 q 441 1232 416 1232 l 449 1232 q 488 1249 473 1232 l 510 1271 q 526 1310 526 1285 l 526 1325 q 539 1356 526 1343 q 572 1369 553 1369 q 604 1356 592 1369 q 616 1325 616 1343 l 616 1265 q 606 1238 616 1249 l 522 1152 q 493 1141 508 1141 l 396 1141 q 367 1152 379 1141 l 283 1238 q 272 1265 272 1249 l 272 1325 q 284 1356 272 1343 q 317 1369 297 1369 q 350 1356 336 1369 q 363 1325 363 1343 m 637 733 l 637 750 q 619 789 637 770 l 568 842 q 528 859 553 859 l 361 859 q 319 842 336 859 l 268 789 q 252 750 252 774 l 252 222 q 268 183 252 197 l 319 131 q 361 114 336 114 l 528 114 q 568 131 553 114 l 619 183 q 637 222 637 201 l 637 359 q 617 409 637 389 q 567 429 596 429 l 482 429 q 441 446 458 429 q 424 486 424 463 q 441 527 424 510 q 482 543 458 543 l 694 543 q 735 527 718 543 q 751 486 751 510 l 751 176 q 736 134 751 154 l 615 17 q 575 0 600 0 l 311 0 q 272 17 287 0 l 154 134 q 138 176 138 154 l 138 798 q 154 839 138 819 l 272 956 q 311 972 287 972 l 575 972 q 615 956 600 972 l 736 839 q 751 798 751 819 l 751 733 q 735 693 751 709 q 694 676 718 676 q 654 693 671 676 q 637 733 637 709 z "},"":{"ha":888,"x_min":138,"x_max":751,"o":"m 363 1325 l 363 1310 q 379 1271 363 1285 l 401 1249 q 441 1232 416 1232 l 449 1232 q 488 1249 473 1232 l 510 1271 q 526 1310 526 1285 l 526 1325 q 539 1356 526 1343 q 572 1369 553 1369 q 604 1356 592 1369 q 616 1325 616 1343 l 616 1265 q 606 1238 616 1249 l 522 1152 q 493 1141 508 1141 l 396 1141 q 367 1152 379 1141 l 283 1238 q 272 1265 272 1249 l 272 1325 q 284 1356 272 1343 q 317 1369 297 1369 q 350 1356 336 1369 q 363 1325 363 1343 m 637 733 l 637 750 q 619 789 637 770 l 568 842 q 528 859 553 859 l 361 859 q 319 842 336 859 l 268 789 q 252 750 252 774 l 252 222 q 268 183 252 197 l 319 131 q 361 114 336 114 l 528 114 q 568 131 553 114 l 619 183 q 637 222 637 201 l 637 359 q 617 409 637 389 q 567 429 596 429 l 482 429 q 441 446 458 429 q 424 486 424 463 q 441 527 424 510 q 482 543 458 543 l 694 543 q 735 527 718 543 q 751 486 751 510 l 751 176 q 736 134 751 154 l 615 17 q 575 0 600 0 l 311 0 q 272 17 287 0 l 154 134 q 138 176 138 154 l 138 798 q 154 839 138 819 l 272 956 q 311 972 287 972 l 575 972 q 615 956 600 972 l 736 839 q 751 798 751 819 l 751 733 q 735 693 751 709 q 694 676 718 676 q 654 693 671 676 q 637 733 637 709 z "},"":{"ha":888,"x_min":138,"x_max":751,"o":"m 467 1162 l 424 1162 q 384 1178 400 1162 q 368 1218 368 1194 l 368 1261 q 384 1301 368 1285 q 424 1317 400 1317 l 467 1317 q 506 1301 490 1317 q 522 1261 522 1285 l 522 1218 q 506 1178 522 1194 q 467 1162 490 1162 m 637 733 l 637 750 q 619 789 637 770 l 568 842 q 528 859 553 859 l 361 859 q 319 842 336 859 l 268 789 q 252 750 252 774 l 252 222 q 268 183 252 197 l 319 131 q 361 114 336 114 l 528 114 q 568 131 553 114 l 619 183 q 637 222 637 201 l 637 359 q 617 409 637 389 q 567 429 596 429 l 482 429 q 441 446 458 429 q 424 486 424 463 q 441 527 424 510 q 482 543 458 543 l 694 543 q 735 527 718 543 q 751 486 751 510 l 751 176 q 736 134 751 154 l 615 17 q 575 0 600 0 l 311 0 q 272 17 287 0 l 154 134 q 138 176 138 154 l 138 798 q 154 839 138 819 l 272 956 q 311 972 287 972 l 575 972 q 615 956 600 972 l 736 839 q 751 798 751 819 l 751 733 q 735 693 751 709 q 694 676 718 676 q 654 693 671 676 q 637 733 637 709 z "},"":{"ha":888,"x_min":138,"x_max":751,"o":"m 467 1162 l 424 1162 q 384 1178 400 1162 q 368 1218 368 1194 l 368 1261 q 384 1301 368 1285 q 424 1317 400 1317 l 467 1317 q 506 1301 490 1317 q 522 1261 522 1285 l 522 1218 q 506 1178 522 1194 q 467 1162 490 1162 m 637 733 l 637 750 q 619 789 637 770 l 568 842 q 528 859 553 859 l 361 859 q 319 842 336 859 l 268 789 q 252 750 252 774 l 252 222 q 268 183 252 197 l 319 131 q 361 114 336 114 l 528 114 q 568 131 553 114 l 619 183 q 637 222 637 201 l 637 359 q 617 409 637 389 q 567 429 596 429 l 482 429 q 441 446 458 429 q 424 486 424 463 q 441 527 424 510 q 482 543 458 543 l 694 543 q 735 527 718 543 q 751 486 751 510 l 751 176 q 736 134 751 154 l 615 17 q 575 0 600 0 l 311 0 q 272 17 287 0 l 154 134 q 138 176 138 154 l 138 798 q 154 839 138 819 l 272 956 q 311 972 287 972 l 575 972 q 615 956 600 972 l 736 839 q 751 798 751 819 l 751 733 q 735 693 751 709 q 694 676 718 676 q 654 693 671 676 q 637 733 637 709 z "},"":{"ha":888,"x_min":138,"x_max":751,"o":"m 637 733 l 637 750 q 619 789 637 770 l 568 842 q 528 859 553 859 l 361 859 q 319 842 336 859 l 268 789 q 252 750 252 774 l 252 222 q 268 183 252 197 l 319 131 q 361 114 336 114 l 528 114 q 568 131 553 114 l 619 183 q 637 222 637 201 l 637 359 q 617 409 637 389 q 567 429 596 429 l 482 429 q 441 446 458 429 q 424 486 424 463 q 441 527 424 510 q 482 543 458 543 l 694 543 q 735 527 718 543 q 751 486 751 510 l 751 176 q 736 134 751 154 l 615 17 q 575 0 600 0 l 311 0 q 272 17 287 0 l 154 134 q 138 176 138 154 l 138 798 q 154 839 138 819 l 272 956 q 311 972 287 972 l 575 972 q 615 956 600 972 l 736 839 q 751 798 751 819 l 751 733 q 735 693 751 709 q 694 676 718 676 q 654 693 671 676 q 637 733 637 709 m 543 -237 l 428 -355 q 387 -371 410 -371 q 349 -355 364 -371 q 329 -314 329 -336 q 347 -273 329 -292 l 461 -158 q 501 -142 477 -142 q 542 -158 528 -142 q 559 -199 559 -176 q 543 -237 559 -223 z "},"":{"ha":888,"x_min":138,"x_max":751,"o":"m 637 733 l 637 750 q 619 789 637 770 l 568 842 q 528 859 553 859 l 361 859 q 319 842 336 859 l 268 789 q 252 750 252 774 l 252 222 q 268 183 252 197 l 319 131 q 361 114 336 114 l 528 114 q 568 131 553 114 l 619 183 q 637 222 637 201 l 637 359 q 617 409 637 389 q 567 429 596 429 l 482 429 q 441 446 458 429 q 424 486 424 463 q 441 527 424 510 q 482 543 458 543 l 694 543 q 735 527 718 543 q 751 486 751 510 l 751 176 q 736 134 751 154 l 615 17 q 575 0 600 0 l 311 0 q 272 17 287 0 l 154 134 q 138 176 138 154 l 138 798 q 154 839 138 819 l 272 956 q 311 972 287 972 l 575 972 q 615 956 600 972 l 736 839 q 751 798 751 819 l 751 733 q 735 693 751 709 q 694 676 718 676 q 654 693 671 676 q 637 733 637 709 m 543 -239 l 428 -357 q 387 -372 410 -372 q 347 -357 363 -372 q 329 -315 329 -338 q 346 -275 329 -294 l 461 -158 q 501 -143 478 -143 q 542 -158 529 -143 q 559 -200 559 -176 q 543 -239 559 -224 z "},"":{"ha":888,"x_min":138,"x_max":751,"o":"m 401 1204 l 349 1154 q 314 1141 336 1141 q 280 1155 294 1141 q 265 1189 265 1169 q 279 1226 265 1208 l 411 1356 q 446 1369 422 1369 q 481 1356 467 1369 l 611 1226 q 624 1189 624 1209 q 611 1155 624 1168 q 576 1141 597 1141 q 541 1154 555 1141 l 489 1204 q 446 1223 472 1223 q 401 1204 418 1223 m 751 916 l 751 57 q 735 17 751 33 q 694 0 718 0 q 654 17 671 0 q 637 57 637 33 l 637 358 q 617 408 637 387 q 567 429 596 429 l 321 429 q 272 408 292 429 q 252 358 252 387 l 252 57 q 235 17 252 33 q 195 0 218 0 q 154 17 171 0 q 138 57 138 33 l 138 916 q 154 956 138 939 q 195 972 171 972 q 235 956 218 972 q 252 916 252 939 l 252 614 q 272 564 252 585 q 321 543 292 543 l 567 543 q 617 564 596 543 q 637 614 637 585 l 637 916 q 654 956 637 939 q 694 972 671 972 q 735 956 718 972 q 751 916 751 939 z "},"":{"ha":888,"x_min":138,"x_max":751,"o":"m 401 1204 l 349 1154 q 314 1141 336 1141 q 280 1155 294 1141 q 265 1189 265 1169 q 279 1226 265 1208 l 411 1356 q 446 1369 422 1369 q 481 1356 467 1369 l 611 1226 q 624 1189 624 1209 q 611 1155 624 1168 q 576 1141 597 1141 q 541 1154 555 1141 l 489 1204 q 446 1223 472 1223 q 401 1204 418 1223 m 751 916 l 751 57 q 735 17 751 33 q 694 0 718 0 q 654 17 671 0 q 637 57 637 33 l 637 358 q 617 408 637 387 q 567 429 596 429 l 321 429 q 272 408 292 429 q 252 358 252 387 l 252 57 q 235 17 252 33 q 195 0 218 0 q 154 17 171 0 q 138 57 138 33 l 138 916 q 154 956 138 939 q 195 972 171 972 q 235 956 218 972 q 252 916 252 939 l 252 614 q 272 564 252 585 q 321 543 292 543 l 567 543 q 617 564 596 543 q 637 614 637 585 l 637 916 q 654 956 637 939 q 694 972 671 972 q 735 956 718 972 q 751 916 751 939 z "},"":{"ha":888,"x_min":39,"x_max":848,"o":"m 637 847 l 637 916 q 654 956 637 939 q 694 972 671 972 q 735 956 718 972 q 751 916 751 939 l 751 847 q 779 818 751 818 l 791 818 q 832 802 815 818 q 848 762 848 786 q 832 721 848 737 q 791 704 815 704 l 779 704 q 751 676 751 704 l 751 57 q 735 17 751 33 q 694 0 718 0 q 654 17 671 0 q 637 57 637 33 l 637 358 q 617 408 637 387 q 567 429 596 429 l 321 429 q 272 408 292 429 q 252 358 252 387 l 252 57 q 235 17 252 33 q 195 0 218 0 q 154 17 171 0 q 138 57 138 33 l 138 676 q 110 704 138 704 l 96 704 q 55 721 72 704 q 39 762 39 737 q 55 802 39 786 q 96 818 72 818 l 110 818 q 138 847 138 818 l 138 916 q 154 956 138 939 q 195 972 171 972 q 235 956 218 972 q 252 916 252 939 l 252 847 q 279 818 252 818 l 608 818 q 629 826 621 818 q 637 847 637 833 m 252 676 l 252 614 q 272 564 252 585 q 321 543 292 543 l 567 543 q 617 564 596 543 q 637 614 637 585 l 637 676 q 629 696 637 689 q 608 704 621 704 l 279 704 q 252 676 252 704 z "},"":{"ha":888,"x_min":39,"x_max":848,"o":"m 637 847 l 637 916 q 654 956 637 939 q 694 972 671 972 q 735 956 718 972 q 751 916 751 939 l 751 847 q 779 818 751 818 l 791 818 q 832 802 815 818 q 848 762 848 786 q 832 721 848 737 q 791 704 815 704 l 779 704 q 751 676 751 704 l 751 57 q 735 17 751 33 q 694 0 718 0 q 654 17 671 0 q 637 57 637 33 l 637 358 q 617 408 637 387 q 567 429 596 429 l 321 429 q 272 408 292 429 q 252 358 252 387 l 252 57 q 235 17 252 33 q 195 0 218 0 q 154 17 171 0 q 138 57 138 33 l 138 676 q 110 704 138 704 l 96 704 q 55 721 72 704 q 39 762 39 737 q 55 802 39 786 q 96 818 72 818 l 110 818 q 138 847 138 818 l 138 916 q 154 956 138 939 q 195 972 171 972 q 235 956 218 972 q 252 916 252 939 l 252 847 q 279 818 252 818 l 608 818 q 629 826 621 818 q 637 847 637 833 m 252 676 l 252 614 q 272 564 252 585 q 321 543 292 543 l 567 543 q 617 564 596 543 q 637 614 637 585 l 637 676 q 629 696 637 689 q 608 704 621 704 l 279 704 q 252 676 252 704 z "},"":{"ha":888,"x_min":201,"x_max":688,"o":"m 346 1296 l 319 1270 l 319 1221 q 306 1188 319 1201 q 273 1175 293 1175 q 241 1188 255 1175 q 228 1221 228 1201 l 228 1292 q 239 1320 228 1309 l 296 1377 q 323 1388 311 1388 l 395 1388 q 424 1377 409 1388 l 479 1320 q 490 1292 490 1305 l 490 1258 l 517 1234 l 546 1234 l 571 1258 l 571 1307 q 584 1340 571 1326 q 616 1353 597 1353 q 649 1340 636 1353 q 663 1307 663 1326 l 663 1238 q 653 1208 663 1222 l 593 1153 q 567 1141 583 1141 l 496 1141 q 467 1153 483 1141 l 410 1208 q 400 1238 400 1218 l 400 1270 l 374 1296 l 346 1296 m 631 0 l 258 0 q 218 17 235 0 q 201 57 201 33 q 218 97 201 81 q 258 114 235 114 l 317 114 q 367 135 347 114 q 387 184 387 155 l 387 787 q 367 838 387 817 q 317 859 347 859 l 258 859 q 218 875 235 859 q 201 916 201 892 q 218 956 201 939 q 258 972 235 972 l 631 972 q 671 956 654 972 q 688 916 688 939 q 671 875 688 892 q 631 859 654 859 l 572 859 q 522 838 543 859 q 501 787 501 817 l 501 184 q 522 135 501 155 q 572 114 543 114 l 631 114 q 671 97 654 114 q 688 57 688 81 q 671 17 688 33 q 631 0 654 0 z "},"":{"ha":888,"x_min":201,"x_max":688,"o":"m 346 1296 l 319 1270 l 319 1221 q 306 1188 319 1201 q 273 1175 293 1175 q 241 1188 255 1175 q 228 1221 228 1201 l 228 1292 q 239 1320 228 1309 l 296 1377 q 323 1388 311 1388 l 395 1388 q 424 1377 409 1388 l 479 1320 q 490 1292 490 1305 l 490 1258 l 517 1234 l 546 1234 l 571 1258 l 571 1307 q 584 1340 571 1326 q 616 1353 597 1353 q 649 1340 636 1353 q 663 1307 663 1326 l 663 1238 q 653 1208 663 1222 l 593 1153 q 567 1141 583 1141 l 496 1141 q 467 1153 483 1141 l 410 1208 q 400 1238 400 1218 l 400 1270 l 374 1296 l 346 1296 m 631 0 l 258 0 q 218 17 235 0 q 201 57 201 33 q 218 97 201 81 q 258 114 235 114 l 317 114 q 367 135 347 114 q 387 184 387 155 l 387 787 q 367 838 387 817 q 317 859 347 859 l 258 859 q 218 875 235 859 q 201 916 201 892 q 218 956 201 939 q 258 972 235 972 l 631 972 q 671 956 654 972 q 688 916 688 939 q 671 875 688 892 q 631 859 654 859 l 572 859 q 522 838 543 859 q 501 787 501 817 l 501 184 q 522 135 501 155 q 572 114 543 114 l 631 114 q 671 97 654 114 q 688 57 688 81 q 671 17 688 33 q 631 0 654 0 z "},"":{"ha":888,"x_min":201,"x_max":688,"o":"m 578 1156 l 311 1156 q 272 1172 288 1156 q 256 1211 256 1187 q 272 1253 256 1236 q 311 1270 288 1270 l 578 1270 q 617 1253 602 1270 q 633 1211 633 1236 q 617 1172 633 1187 q 578 1156 602 1156 m 631 0 l 258 0 q 218 17 235 0 q 201 57 201 33 q 218 97 201 81 q 258 114 235 114 l 317 114 q 367 135 347 114 q 387 184 387 155 l 387 787 q 367 838 387 817 q 317 859 347 859 l 258 859 q 218 875 235 859 q 201 916 201 892 q 218 956 201 939 q 258 972 235 972 l 631 972 q 671 956 654 972 q 688 916 688 939 q 671 875 688 892 q 631 859 654 859 l 572 859 q 522 838 543 859 q 501 787 501 817 l 501 184 q 522 135 501 155 q 572 114 543 114 l 631 114 q 671 97 654 114 q 688 57 688 81 q 671 17 688 33 q 631 0 654 0 z "},"":{"ha":888,"x_min":201,"x_max":688,"o":"m 578 1156 l 311 1156 q 272 1172 288 1156 q 256 1211 256 1187 q 272 1253 256 1236 q 311 1270 288 1270 l 578 1270 q 617 1253 602 1270 q 633 1211 633 1236 q 617 1172 633 1187 q 578 1156 602 1156 m 631 0 l 258 0 q 218 17 235 0 q 201 57 201 33 q 218 97 201 81 q 258 114 235 114 l 317 114 q 367 135 347 114 q 387 184 387 155 l 387 787 q 367 838 387 817 q 317 859 347 859 l 258 859 q 218 875 235 859 q 201 916 201 892 q 218 956 201 939 q 258 972 235 972 l 631 972 q 671 956 654 972 q 688 916 688 939 q 671 875 688 892 q 631 859 654 859 l 572 859 q 522 838 543 859 q 501 787 501 817 l 501 184 q 522 135 501 155 q 572 114 543 114 l 631 114 q 671 97 654 114 q 688 57 688 81 q 671 17 688 33 q 631 0 654 0 z "},"":{"ha":888,"x_min":201,"x_max":688,"o":"m 361 1325 l 361 1310 q 378 1271 361 1286 l 400 1249 q 440 1232 414 1232 l 447 1232 q 486 1249 472 1232 l 509 1271 q 525 1310 525 1285 l 525 1325 q 538 1356 525 1343 q 571 1369 551 1369 q 603 1356 591 1369 q 615 1325 615 1343 l 615 1265 q 604 1238 615 1249 l 521 1152 q 492 1141 507 1141 l 395 1141 q 366 1152 378 1141 l 282 1238 q 271 1265 271 1249 l 271 1325 q 283 1356 271 1343 q 315 1369 296 1369 q 348 1356 335 1369 q 361 1325 361 1343 m 631 0 l 258 0 q 218 17 235 0 q 201 57 201 33 q 218 97 201 81 q 258 114 235 114 l 317 114 q 367 135 347 114 q 387 184 387 155 l 387 787 q 367 838 387 817 q 317 859 347 859 l 258 859 q 218 875 235 859 q 201 916 201 892 q 218 956 201 939 q 258 972 235 972 l 631 972 q 671 956 654 972 q 688 916 688 939 q 671 875 688 892 q 631 859 654 859 l 572 859 q 522 838 543 859 q 501 787 501 817 l 501 184 q 522 135 501 155 q 572 114 543 114 l 631 114 q 671 97 654 114 q 688 57 688 81 q 671 17 688 33 q 631 0 654 0 z "},"":{"ha":888,"x_min":201,"x_max":688,"o":"m 361 1325 l 361 1310 q 378 1271 361 1286 l 400 1249 q 440 1232 414 1232 l 447 1232 q 486 1249 472 1232 l 509 1271 q 525 1310 525 1285 l 525 1325 q 538 1356 525 1343 q 571 1369 551 1369 q 603 1356 591 1369 q 615 1325 615 1343 l 615 1265 q 604 1238 615 1249 l 521 1152 q 492 1141 507 1141 l 395 1141 q 366 1152 378 1141 l 282 1238 q 271 1265 271 1249 l 271 1325 q 283 1356 271 1343 q 315 1369 296 1369 q 348 1356 335 1369 q 361 1325 361 1343 m 631 0 l 258 0 q 218 17 235 0 q 201 57 201 33 q 218 97 201 81 q 258 114 235 114 l 317 114 q 367 135 347 114 q 387 184 387 155 l 387 787 q 367 838 387 817 q 317 859 347 859 l 258 859 q 218 875 235 859 q 201 916 201 892 q 218 956 201 939 q 258 972 235 972 l 631 972 q 671 956 654 972 q 688 916 688 939 q 671 875 688 892 q 631 859 654 859 l 572 859 q 522 838 543 859 q 501 787 501 817 l 501 184 q 522 135 501 155 q 572 114 543 114 l 631 114 q 671 97 654 114 q 688 57 688 81 q 671 17 688 33 q 631 0 654 0 z "},"":{"ha":888,"x_min":201,"x_max":688,"o":"m 631 0 l 484 0 l 484 -69 q 471 -102 484 -87 l 390 -182 q 372 -222 372 -199 q 390 -264 372 -246 l 403 -277 q 444 -294 420 -294 q 485 -277 467 -294 l 493 -268 q 521 -258 503 -258 q 549 -269 538 -258 q 561 -296 561 -280 q 550 -323 561 -309 l 510 -363 q 488 -372 503 -372 l 401 -372 q 379 -363 387 -372 l 302 -289 q 294 -265 294 -275 l 294 -179 q 304 -154 294 -168 l 387 -74 q 406 -31 406 -56 l 406 0 l 258 0 q 218 17 235 0 q 201 57 201 33 q 218 97 201 81 q 258 114 235 114 l 317 114 q 367 135 347 114 q 387 184 387 155 l 387 787 q 367 838 387 817 q 317 859 347 859 l 258 859 q 218 875 235 859 q 201 916 201 892 q 218 956 201 939 q 258 972 235 972 l 631 972 q 671 956 654 972 q 688 916 688 939 q 671 875 688 892 q 631 859 654 859 l 572 859 q 522 838 543 859 q 501 787 501 817 l 501 184 q 522 135 501 155 q 572 114 543 114 l 631 114 q 671 97 654 114 q 688 57 688 81 q 671 17 688 33 q 631 0 654 0 z "},"":{"ha":888,"x_min":201,"x_max":688,"o":"m 631 0 l 484 0 l 484 -69 q 471 -102 484 -87 l 390 -182 q 372 -222 372 -199 q 390 -264 372 -246 l 403 -277 q 444 -294 420 -294 q 485 -277 467 -294 l 493 -268 q 521 -258 503 -258 q 549 -269 538 -258 q 561 -296 561 -280 q 550 -323 561 -309 l 510 -363 q 488 -372 503 -372 l 401 -372 q 379 -363 387 -372 l 302 -289 q 294 -265 294 -275 l 294 -179 q 304 -154 294 -168 l 387 -74 q 406 -31 406 -56 l 406 0 l 258 0 q 218 17 235 0 q 201 57 201 33 q 218 97 201 81 q 258 114 235 114 l 317 114 q 367 135 347 114 q 387 184 387 155 l 387 787 q 367 838 387 817 q 317 859 347 859 l 258 859 q 218 875 235 859 q 201 916 201 892 q 218 956 201 939 q 258 972 235 972 l 631 972 q 671 956 654 972 q 688 916 688 939 q 671 875 688 892 q 631 859 654 859 l 572 859 q 522 838 543 859 q 501 787 501 817 l 501 184 q 522 135 501 155 q 572 114 543 114 l 631 114 q 671 97 654 114 q 688 57 688 81 q 671 17 688 33 q 631 0 654 0 z "},"":{"ha":888,"x_min":201,"x_max":688,"o":"m 467 1162 l 424 1162 q 384 1178 400 1162 q 368 1218 368 1194 l 368 1261 q 384 1301 368 1285 q 424 1317 400 1317 l 467 1317 q 506 1301 490 1317 q 522 1261 522 1285 l 522 1218 q 506 1178 522 1194 q 467 1162 490 1162 m 631 0 l 258 0 q 218 17 235 0 q 201 57 201 33 q 218 97 201 81 q 258 114 235 114 l 317 114 q 367 135 347 114 q 387 184 387 155 l 387 787 q 367 838 387 817 q 317 859 347 859 l 258 859 q 218 875 235 859 q 201 916 201 892 q 218 956 201 939 q 258 972 235 972 l 631 972 q 671 956 654 972 q 688 916 688 939 q 671 875 688 892 q 631 859 654 859 l 572 859 q 522 838 543 859 q 501 787 501 817 l 501 184 q 522 135 501 155 q 572 114 543 114 l 631 114 q 671 97 654 114 q 688 57 688 81 q 671 17 688 33 q 631 0 654 0 z "},"":{"ha":888,"x_min":201,"x_max":688,"o":"m 631 0 l 258 0 q 218 17 235 0 q 201 57 201 33 q 218 97 201 81 q 258 114 235 114 l 317 114 q 367 135 347 114 q 387 184 387 155 l 387 787 q 367 838 387 817 q 317 859 347 859 l 258 859 q 218 875 235 859 q 201 916 201 892 q 218 956 201 939 q 258 972 235 972 l 631 972 q 671 956 654 972 q 688 916 688 939 q 671 875 688 892 q 631 859 654 859 l 572 859 q 522 838 543 859 q 501 787 501 817 l 501 184 q 522 135 501 155 q 572 114 543 114 l 631 114 q 671 97 654 114 q 688 57 688 81 q 671 17 688 33 q 631 0 654 0 z "},"":{"ha":888,"x_min":138,"x_max":751,"o":"m 513 1204 l 460 1154 q 424 1141 447 1141 q 390 1155 404 1141 q 375 1189 375 1169 q 389 1226 375 1208 l 522 1356 q 557 1369 534 1369 q 591 1356 578 1369 l 722 1226 q 734 1189 734 1210 q 722 1155 734 1168 q 688 1141 709 1141 q 652 1154 667 1141 l 600 1204 q 557 1223 583 1223 q 513 1204 530 1223 m 637 222 l 637 787 q 617 838 637 817 q 567 859 596 859 l 443 859 q 402 875 419 859 q 386 916 386 892 q 402 956 386 939 q 443 972 419 972 l 694 972 q 735 956 718 972 q 751 916 751 939 l 751 176 q 736 134 751 154 l 615 17 q 576 0 600 0 l 311 0 q 272 17 287 0 l 154 134 q 138 176 138 154 l 138 294 q 154 335 138 318 q 195 353 171 353 q 235 335 218 353 q 252 294 252 318 l 252 222 q 268 183 252 197 l 319 131 q 359 114 336 114 l 528 114 q 568 131 553 114 l 619 183 q 637 222 637 201 z "},"":{"ha":888,"x_min":138,"x_max":751,"o":"m 513 1204 l 460 1154 q 424 1141 447 1141 q 390 1155 404 1141 q 375 1189 375 1169 q 389 1226 375 1208 l 522 1356 q 557 1369 534 1369 q 591 1356 578 1369 l 722 1226 q 734 1189 734 1210 q 722 1155 734 1168 q 688 1141 709 1141 q 652 1154 667 1141 l 600 1204 q 557 1223 583 1223 q 513 1204 530 1223 m 637 222 l 637 787 q 617 838 637 817 q 567 859 596 859 l 443 859 q 402 875 419 859 q 386 916 386 892 q 402 956 386 939 q 443 972 419 972 l 694 972 q 735 956 718 972 q 751 916 751 939 l 751 176 q 736 134 751 154 l 615 17 q 576 0 600 0 l 311 0 q 272 17 287 0 l 154 134 q 138 176 138 154 l 138 294 q 154 335 138 318 q 195 353 171 353 q 235 335 218 353 q 252 294 252 318 l 252 222 q 268 183 252 197 l 319 131 q 359 114 336 114 l 528 114 q 568 131 553 114 l 619 183 q 637 222 637 201 z "},"":{"ha":888,"x_min":138,"x_max":751,"o":"m 387 429 l 321 429 q 272 408 292 429 q 252 358 252 387 l 252 57 q 235 17 252 33 q 195 0 218 0 q 154 17 171 0 q 138 57 138 33 l 138 916 q 154 956 138 939 q 195 972 171 972 q 235 956 218 972 q 252 916 252 939 l 252 614 q 272 564 252 585 q 321 543 292 543 l 387 543 q 427 559 412 543 l 619 751 q 637 790 637 770 l 637 916 q 654 956 637 939 q 694 972 671 972 q 735 956 718 972 q 751 916 751 939 l 751 743 q 736 701 751 722 l 567 536 q 547 486 547 508 q 567 437 547 466 l 736 271 q 751 229 751 250 l 751 57 q 735 17 751 33 q 694 0 718 0 q 654 17 671 0 q 637 57 637 33 l 637 182 q 619 221 637 203 l 427 412 q 387 429 412 429 m 543 -237 l 428 -355 q 387 -371 410 -371 q 349 -355 364 -371 q 329 -314 329 -336 q 347 -273 329 -292 l 461 -158 q 501 -142 477 -142 q 542 -158 528 -142 q 559 -199 559 -176 q 543 -237 559 -223 z "},"":{"ha":888,"x_min":138,"x_max":751,"o":"m 387 429 l 321 429 q 272 408 292 429 q 252 358 252 387 l 252 57 q 235 17 252 33 q 195 0 218 0 q 154 17 171 0 q 138 57 138 33 l 138 916 q 154 956 138 939 q 195 972 171 972 q 235 956 218 972 q 252 916 252 939 l 252 614 q 272 564 252 585 q 321 543 292 543 l 387 543 q 427 559 412 543 l 619 751 q 637 790 637 770 l 637 916 q 654 956 637 939 q 694 972 671 972 q 735 956 718 972 q 751 916 751 939 l 751 743 q 736 701 751 722 l 567 536 q 547 486 547 508 q 567 437 547 466 l 736 271 q 751 229 751 250 l 751 57 q 735 17 751 33 q 694 0 718 0 q 654 17 671 0 q 637 57 637 33 l 637 182 q 619 221 637 203 l 427 412 q 387 429 412 429 m 543 -237 l 428 -355 q 387 -371 410 -371 q 349 -355 364 -371 q 329 -314 329 -336 q 347 -273 329 -292 l 461 -158 q 501 -142 477 -142 q 542 -158 528 -142 q 559 -199 559 -176 q 543 -237 559 -223 z "},"":{"ha":888,"x_min":138,"x_max":751,"o":"m 387 429 l 321 429 q 272 408 292 429 q 252 358 252 387 l 252 57 q 235 17 252 33 q 195 0 218 0 q 154 17 171 0 q 138 57 138 33 l 138 916 q 154 956 138 939 q 195 972 171 972 q 235 956 218 972 q 252 916 252 939 l 252 614 q 272 564 252 585 q 321 543 292 543 l 387 543 q 427 559 412 543 l 619 751 q 637 790 637 770 l 637 916 q 654 956 637 939 q 694 972 671 972 q 735 956 718 972 q 751 916 751 939 l 751 743 q 736 701 751 722 l 567 536 q 547 486 547 508 q 567 437 547 466 l 736 271 q 751 229 751 250 l 751 57 q 735 17 751 33 q 694 0 718 0 q 654 17 671 0 q 637 57 637 33 l 637 182 q 619 221 637 203 l 427 412 q 387 429 412 429 z "},"":{"ha":888,"x_min":138,"x_max":750,"o":"m 543 1274 l 428 1157 q 387 1141 410 1141 q 346 1157 363 1141 q 329 1197 329 1173 q 347 1239 329 1221 l 461 1354 q 501 1369 478 1369 q 542 1353 525 1369 q 559 1312 559 1336 q 543 1274 559 1288 m 252 916 l 252 184 q 272 135 252 155 q 321 114 292 114 l 693 114 q 733 97 717 114 q 750 57 750 81 q 733 17 750 33 q 693 0 717 0 l 195 0 q 154 17 171 0 q 138 57 138 33 l 138 916 q 154 956 138 939 q 195 972 171 972 q 235 956 218 972 q 252 916 252 939 z "},"":{"ha":888,"x_min":138,"x_max":750,"o":"m 543 1274 l 428 1157 q 387 1141 410 1141 q 346 1157 363 1141 q 329 1197 329 1173 q 347 1239 329 1221 l 461 1354 q 501 1369 478 1369 q 542 1353 525 1369 q 559 1312 559 1336 q 543 1274 559 1288 m 252 916 l 252 184 q 272 135 252 155 q 321 114 292 114 l 693 114 q 733 97 717 114 q 750 57 750 81 q 733 17 750 33 q 693 0 717 0 l 195 0 q 154 17 171 0 q 138 57 138 33 l 138 916 q 154 956 138 939 q 195 972 171 972 q 235 956 218 972 q 252 916 252 939 z "},"":{"ha":888,"x_min":138,"x_max":750,"o":"m 252 916 l 252 184 q 272 135 252 155 q 321 114 292 114 l 693 114 q 733 97 717 114 q 750 57 750 81 q 733 17 750 33 q 693 0 717 0 l 195 0 q 154 17 171 0 q 138 57 138 33 l 138 916 q 154 956 138 939 q 195 972 171 972 q 235 956 218 972 q 252 916 252 939 m 543 -237 l 428 -355 q 387 -371 410 -371 q 349 -355 364 -371 q 329 -314 329 -336 q 347 -273 329 -292 l 461 -158 q 501 -142 477 -142 q 542 -158 528 -142 q 559 -199 559 -176 q 543 -237 559 -223 z "},"":{"ha":888,"x_min":138,"x_max":750,"o":"m 252 916 l 252 184 q 272 135 252 155 q 321 114 292 114 l 693 114 q 733 97 717 114 q 750 57 750 81 q 733 17 750 33 q 693 0 717 0 l 195 0 q 154 17 171 0 q 138 57 138 33 l 138 916 q 154 956 138 939 q 195 972 171 972 q 235 956 218 972 q 252 916 252 939 m 543 -237 l 428 -355 q 387 -371 410 -371 q 349 -355 364 -371 q 329 -314 329 -336 q 347 -273 329 -292 l 461 -158 q 501 -142 477 -142 q 542 -158 528 -142 q 559 -199 559 -176 q 543 -237 559 -223 z "},"":{"ha":888,"x_min":138,"x_max":750,"o":"m 351 1362 l 403 1312 q 447 1292 419 1292 q 492 1312 475 1292 l 543 1362 q 578 1378 564 1378 q 613 1363 598 1378 q 628 1328 628 1348 q 614 1292 628 1308 l 484 1160 q 447 1147 469 1147 q 411 1160 425 1147 l 281 1292 q 267 1328 267 1310 q 281 1361 267 1349 q 317 1378 296 1378 q 351 1362 331 1378 m 252 916 l 252 184 q 272 135 252 155 q 321 114 292 114 l 693 114 q 733 97 717 114 q 750 57 750 81 q 733 17 750 33 q 693 0 717 0 l 195 0 q 154 17 171 0 q 138 57 138 33 l 138 916 q 154 956 138 939 q 195 972 171 972 q 235 956 218 972 q 252 916 252 939 z "},"":{"ha":888,"x_min":138,"x_max":750,"o":"m 351 1362 l 403 1312 q 447 1292 419 1292 q 492 1312 475 1292 l 543 1362 q 578 1378 564 1378 q 613 1363 598 1378 q 628 1328 628 1348 q 614 1292 628 1308 l 484 1160 q 447 1147 469 1147 q 411 1160 425 1147 l 281 1292 q 267 1328 267 1310 q 281 1361 267 1349 q 317 1378 296 1378 q 351 1362 331 1378 m 252 916 l 252 184 q 272 135 252 155 q 321 114 292 114 l 693 114 q 733 97 717 114 q 750 57 750 81 q 733 17 750 33 q 693 0 717 0 l 195 0 q 154 17 171 0 q 138 57 138 33 l 138 916 q 154 956 138 939 q 195 972 171 972 q 235 956 218 972 q 252 916 252 939 z "},"":{"ha":888,"x_min":138,"x_max":750,"o":"m 252 916 l 252 184 q 272 135 252 155 q 321 114 292 114 l 693 114 q 733 97 717 114 q 750 57 750 81 q 733 17 750 33 q 693 0 717 0 l 195 0 q 154 17 171 0 q 138 57 138 33 l 138 916 q 154 956 138 939 q 195 972 171 972 q 235 956 218 972 q 252 916 252 939 m 547 401 l 490 401 q 450 418 467 401 q 433 458 433 435 l 433 514 q 450 554 433 538 q 490 571 467 571 l 547 571 q 587 554 571 571 q 603 514 603 538 l 603 458 q 587 418 603 435 q 547 401 571 401 z "},"":{"ha":888,"x_min":138,"x_max":750,"o":"m 252 916 l 252 184 q 272 135 252 155 q 321 114 292 114 l 693 114 q 733 97 717 114 q 750 57 750 81 q 733 17 750 33 q 693 0 717 0 l 195 0 q 154 17 171 0 q 138 57 138 33 l 138 916 q 154 956 138 939 q 195 972 171 972 q 235 956 218 972 q 252 916 252 939 m 547 401 l 490 401 q 450 418 467 401 q 433 458 433 435 l 433 514 q 450 554 433 538 q 490 571 467 571 l 547 571 q 587 554 571 571 q 603 514 603 538 l 603 458 q 587 418 603 435 q 547 401 571 401 z "},"":{"ha":888,"x_min":39,"x_max":751,"o":"m 138 57 l 138 254 q 119 275 138 275 q 111 273 113 275 q 97 272 107 272 q 56 289 73 272 q 39 329 39 305 q 56 370 39 353 l 119 433 q 138 475 138 452 l 138 916 q 154 956 138 939 q 195 972 171 972 q 235 956 218 972 q 252 916 252 939 l 252 603 q 264 585 252 585 q 278 593 272 585 l 368 684 q 407 700 387 700 q 448 683 431 700 q 465 642 465 665 q 450 602 465 616 l 269 421 q 252 380 252 404 l 252 184 q 272 135 252 155 q 321 114 292 114 l 694 114 q 735 97 718 114 q 751 57 751 81 q 735 17 751 33 q 694 0 718 0 l 195 0 q 154 17 171 0 q 138 57 138 33 z "},"":{"ha":888,"x_min":39,"x_max":751,"o":"m 138 57 l 138 254 q 119 275 138 275 q 111 273 113 275 q 97 272 107 272 q 56 289 73 272 q 39 329 39 305 q 56 370 39 353 l 119 433 q 138 475 138 452 l 138 916 q 154 956 138 939 q 195 972 171 972 q 235 956 218 972 q 252 916 252 939 l 252 603 q 264 585 252 585 q 278 593 272 585 l 368 684 q 407 700 387 700 q 448 683 431 700 q 465 642 465 665 q 450 602 465 616 l 269 421 q 252 380 252 404 l 252 184 q 272 135 252 155 q 321 114 292 114 l 694 114 q 735 97 718 114 q 751 57 751 81 q 735 17 751 33 q 694 0 718 0 l 195 0 q 154 17 171 0 q 138 57 138 33 z "},"":{"ha":888,"x_min":138,"x_max":751,"o":"m 543 1274 l 428 1157 q 387 1141 410 1141 q 346 1157 363 1141 q 329 1197 329 1173 q 347 1239 329 1221 l 461 1354 q 501 1369 478 1369 q 542 1353 525 1369 q 559 1312 559 1336 q 543 1274 559 1288 m 244 945 l 614 310 q 627 298 621 298 q 634 303 631 298 q 637 315 637 307 l 637 916 q 654 956 637 939 q 694 972 671 972 q 735 956 718 972 q 751 916 751 939 l 751 57 q 735 17 751 33 q 694 0 718 0 q 644 28 661 0 l 273 664 q 261 675 267 675 q 252 659 252 675 l 252 57 q 235 17 252 33 q 195 0 218 0 q 154 17 171 0 q 138 57 138 33 l 138 916 q 154 956 138 939 q 195 972 171 972 q 244 945 226 972 z "},"":{"ha":888,"x_min":138,"x_max":751,"o":"m 543 1274 l 428 1157 q 387 1141 410 1141 q 346 1157 363 1141 q 329 1197 329 1173 q 347 1239 329 1221 l 461 1354 q 501 1369 478 1369 q 542 1353 525 1369 q 559 1312 559 1336 q 543 1274 559 1288 m 244 945 l 614 310 q 627 298 621 298 q 634 303 631 298 q 637 315 637 307 l 637 916 q 654 956 637 939 q 694 972 671 972 q 735 956 718 972 q 751 916 751 939 l 751 57 q 735 17 751 33 q 694 0 718 0 q 644 28 661 0 l 273 664 q 261 675 267 675 q 252 659 252 675 l 252 57 q 235 17 252 33 q 195 0 218 0 q 154 17 171 0 q 138 57 138 33 l 138 916 q 154 956 138 939 q 195 972 171 972 q 244 945 226 972 z "},"":{"ha":888,"x_min":138,"x_max":751,"o":"m 244 945 l 614 310 q 627 298 621 298 q 634 303 631 298 q 637 315 637 307 l 637 916 q 654 956 637 939 q 694 972 671 972 q 735 956 718 972 q 751 916 751 939 l 751 57 q 735 17 751 33 q 694 0 718 0 q 644 28 661 0 l 273 664 q 261 675 267 675 q 252 659 252 675 l 252 57 q 235 17 252 33 q 195 0 218 0 q 154 17 171 0 q 138 57 138 33 l 138 916 q 154 956 138 939 q 195 972 171 972 q 244 945 226 972 m 543 -237 l 428 -355 q 387 -371 410 -371 q 349 -355 364 -371 q 329 -314 329 -336 q 347 -273 329 -292 l 461 -158 q 501 -142 477 -142 q 542 -158 528 -142 q 559 -199 559 -176 q 543 -237 559 -223 z "},"":{"ha":888,"x_min":138,"x_max":751,"o":"m 244 945 l 614 310 q 627 298 621 298 q 634 303 631 298 q 637 315 637 307 l 637 916 q 654 956 637 939 q 694 972 671 972 q 735 956 718 972 q 751 916 751 939 l 751 57 q 735 17 751 33 q 694 0 718 0 q 644 28 661 0 l 273 664 q 261 675 267 675 q 252 659 252 675 l 252 57 q 235 17 252 33 q 195 0 218 0 q 154 17 171 0 q 138 57 138 33 l 138 916 q 154 956 138 939 q 195 972 171 972 q 244 945 226 972 m 543 -237 l 428 -355 q 387 -371 410 -371 q 349 -355 364 -371 q 329 -314 329 -336 q 347 -273 329 -292 l 461 -158 q 501 -142 477 -142 q 542 -158 528 -142 q 559 -199 559 -176 q 543 -237 559 -223 z "},"":{"ha":888,"x_min":138,"x_max":751,"o":"m 350 1356 l 400 1304 q 446 1284 418 1284 q 489 1304 471 1284 l 541 1356 q 575 1369 554 1369 q 610 1355 595 1369 q 624 1320 624 1340 q 610 1284 624 1301 l 481 1154 q 446 1141 466 1141 q 408 1154 423 1141 l 279 1284 q 265 1320 265 1299 q 280 1354 265 1339 q 314 1369 294 1369 q 350 1356 336 1369 m 244 945 l 614 310 q 627 298 621 298 q 634 303 631 298 q 637 315 637 307 l 637 916 q 654 956 637 939 q 694 972 671 972 q 735 956 718 972 q 751 916 751 939 l 751 57 q 735 17 751 33 q 694 0 718 0 q 644 28 661 0 l 273 664 q 261 675 267 675 q 252 659 252 675 l 252 57 q 235 17 252 33 q 195 0 218 0 q 154 17 171 0 q 138 57 138 33 l 138 916 q 154 956 138 939 q 195 972 171 972 q 244 945 226 972 z "},"":{"ha":888,"x_min":138,"x_max":751,"o":"m 350 1356 l 400 1304 q 446 1284 418 1284 q 489 1304 471 1284 l 541 1356 q 575 1369 554 1369 q 610 1355 595 1369 q 624 1320 624 1340 q 610 1284 624 1301 l 481 1154 q 446 1141 466 1141 q 408 1154 423 1141 l 279 1284 q 265 1320 265 1299 q 280 1354 265 1339 q 314 1369 294 1369 q 350 1356 336 1369 m 244 945 l 614 310 q 627 298 621 298 q 634 303 631 298 q 637 315 637 307 l 637 916 q 654 956 637 939 q 694 972 671 972 q 735 956 718 972 q 751 916 751 939 l 751 57 q 735 17 751 33 q 694 0 718 0 q 644 28 661 0 l 273 664 q 261 675 267 675 q 252 659 252 675 l 252 57 q 235 17 252 33 q 195 0 218 0 q 154 17 171 0 q 138 57 138 33 l 138 916 q 154 956 138 939 q 195 972 171 972 q 244 945 226 972 z "},"":{"ha":888,"x_min":138,"x_max":751,"o":"m 250 925 q 264 908 254 908 q 277 916 272 908 l 315 956 q 358 972 334 972 l 576 972 q 616 956 597 972 l 736 838 q 751 796 751 820 l 751 -138 q 736 -180 751 -163 l 615 -297 q 576 -314 600 -314 l 443 -314 q 402 -298 419 -314 q 386 -258 386 -282 q 402 -217 386 -235 q 443 -200 419 -200 l 528 -200 q 568 -183 553 -200 l 619 -131 q 637 -92 637 -113 l 637 749 q 619 787 637 769 l 570 842 q 528 859 553 859 l 404 859 q 366 842 380 859 l 267 743 q 252 703 252 728 l 252 57 q 235 17 252 33 q 195 0 218 0 q 154 17 171 0 q 138 57 138 33 l 138 914 q 154 955 138 938 q 195 972 171 972 q 232 959 216 972 q 250 925 248 946 z "},"":{"ha":888,"x_min":138,"x_max":751,"o":"m 250 925 q 264 908 254 908 q 277 916 272 908 l 315 956 q 358 972 334 972 l 576 972 q 616 956 597 972 l 736 838 q 751 796 751 820 l 751 -138 q 736 -180 751 -163 l 615 -297 q 576 -314 600 -314 l 443 -314 q 402 -298 419 -314 q 386 -258 386 -282 q 402 -217 386 -235 q 443 -200 419 -200 l 528 -200 q 568 -183 553 -200 l 619 -131 q 637 -92 637 -113 l 637 749 q 619 787 637 769 l 570 842 q 528 859 553 859 l 404 859 q 366 842 380 859 l 267 743 q 252 703 252 728 l 252 57 q 235 17 252 33 q 195 0 218 0 q 154 17 171 0 q 138 57 138 33 l 138 914 q 154 955 138 938 q 195 972 171 972 q 232 959 216 972 q 250 925 248 946 z "},"":{"ha":888,"x_min":138,"x_max":751,"o":"m 578 1156 l 311 1156 q 272 1172 288 1156 q 256 1211 256 1187 q 272 1253 256 1236 q 311 1270 288 1270 l 578 1270 q 617 1253 602 1270 q 633 1211 633 1236 q 617 1172 633 1187 q 578 1156 602 1156 m 615 956 l 736 839 q 751 798 751 819 l 751 175 q 736 134 751 154 l 615 17 q 575 0 600 0 l 311 0 q 272 17 287 0 l 154 134 q 138 175 138 154 l 138 798 q 154 839 138 819 l 272 956 q 311 972 287 972 l 575 972 q 615 956 600 972 m 568 131 l 619 183 q 637 222 637 201 l 637 750 q 619 789 637 770 l 568 842 q 528 859 553 859 l 359 859 q 319 842 336 859 l 268 789 q 252 750 252 774 l 252 222 q 268 183 252 197 l 319 131 q 359 114 336 114 l 528 114 q 568 131 553 114 z "},"":{"ha":888,"x_min":138,"x_max":751,"o":"m 578 1156 l 311 1156 q 272 1172 288 1156 q 256 1211 256 1187 q 272 1253 256 1236 q 311 1270 288 1270 l 578 1270 q 617 1253 602 1270 q 633 1211 633 1236 q 617 1172 633 1187 q 578 1156 602 1156 m 615 956 l 736 839 q 751 798 751 819 l 751 175 q 736 134 751 154 l 615 17 q 575 0 600 0 l 311 0 q 272 17 287 0 l 154 134 q 138 175 138 154 l 138 798 q 154 839 138 819 l 272 956 q 311 972 287 972 l 575 972 q 615 956 600 972 m 568 131 l 619 183 q 637 222 637 201 l 637 750 q 619 789 637 770 l 568 842 q 528 859 553 859 l 359 859 q 319 842 336 859 l 268 789 q 252 750 252 774 l 252 222 q 268 183 252 197 l 319 131 q 359 114 336 114 l 528 114 q 568 131 553 114 z "},"":{"ha":888,"x_min":138,"x_max":751,"o":"m 363 1325 l 363 1310 q 379 1271 363 1285 l 401 1249 q 441 1232 416 1232 l 449 1232 q 488 1249 473 1232 l 510 1271 q 526 1310 526 1285 l 526 1325 q 539 1356 526 1343 q 572 1369 553 1369 q 604 1356 592 1369 q 616 1325 616 1343 l 616 1265 q 606 1238 616 1249 l 522 1152 q 493 1141 508 1141 l 396 1141 q 367 1152 379 1141 l 283 1238 q 272 1265 272 1249 l 272 1325 q 284 1356 272 1343 q 317 1369 297 1369 q 350 1356 336 1369 q 363 1325 363 1343 m 615 956 l 736 839 q 751 798 751 819 l 751 175 q 736 134 751 154 l 615 17 q 575 0 600 0 l 311 0 q 272 17 287 0 l 154 134 q 138 175 138 154 l 138 798 q 154 839 138 819 l 272 956 q 311 972 287 972 l 575 972 q 615 956 600 972 m 568 131 l 619 183 q 637 222 637 201 l 637 750 q 619 789 637 770 l 568 842 q 528 859 553 859 l 359 859 q 319 842 336 859 l 268 789 q 252 750 252 774 l 252 222 q 268 183 252 197 l 319 131 q 359 114 336 114 l 528 114 q 568 131 553 114 z "},"":{"ha":888,"x_min":138,"x_max":751,"o":"m 363 1325 l 363 1310 q 379 1271 363 1285 l 401 1249 q 441 1232 416 1232 l 449 1232 q 488 1249 473 1232 l 510 1271 q 526 1310 526 1285 l 526 1325 q 539 1356 526 1343 q 572 1369 553 1369 q 604 1356 592 1369 q 616 1325 616 1343 l 616 1265 q 606 1238 616 1249 l 522 1152 q 493 1141 508 1141 l 396 1141 q 367 1152 379 1141 l 283 1238 q 272 1265 272 1249 l 272 1325 q 284 1356 272 1343 q 317 1369 297 1369 q 350 1356 336 1369 q 363 1325 363 1343 m 615 956 l 736 839 q 751 798 751 819 l 751 175 q 736 134 751 154 l 615 17 q 575 0 600 0 l 311 0 q 272 17 287 0 l 154 134 q 138 175 138 154 l 138 798 q 154 839 138 819 l 272 956 q 311 972 287 972 l 575 972 q 615 956 600 972 m 568 131 l 619 183 q 637 222 637 201 l 637 750 q 619 789 637 770 l 568 842 q 528 859 553 859 l 359 859 q 319 842 336 859 l 268 789 q 252 750 252 774 l 252 222 q 268 183 252 197 l 319 131 q 359 114 336 114 l 528 114 q 568 131 553 114 z "},"":{"ha":888,"x_min":138,"x_max":751,"o":"m 421 1272 l 306 1157 q 265 1141 290 1141 q 225 1157 241 1141 q 208 1197 208 1173 q 224 1239 208 1223 l 340 1354 q 380 1369 355 1369 q 420 1353 404 1369 q 436 1312 436 1336 q 421 1272 436 1287 m 664 1274 l 550 1157 q 509 1141 532 1141 q 468 1157 485 1141 q 452 1197 452 1173 q 468 1239 452 1221 l 582 1354 q 623 1369 599 1369 q 664 1353 646 1369 q 681 1312 681 1336 q 664 1274 681 1289 m 615 956 l 736 839 q 751 798 751 819 l 751 175 q 736 134 751 154 l 615 17 q 575 0 600 0 l 311 0 q 272 17 287 0 l 154 134 q 138 175 138 154 l 138 798 q 154 839 138 819 l 272 956 q 311 972 287 972 l 575 972 q 615 956 600 972 m 568 131 l 619 183 q 637 222 637 201 l 637 750 q 619 789 637 770 l 568 842 q 528 859 553 859 l 359 859 q 319 842 336 859 l 268 789 q 252 750 252 774 l 252 222 q 268 183 252 197 l 319 131 q 359 114 336 114 l 528 114 q 568 131 553 114 z "},"":{"ha":888,"x_min":138,"x_max":751,"o":"m 421 1272 l 306 1157 q 265 1141 290 1141 q 225 1157 241 1141 q 208 1197 208 1173 q 224 1239 208 1223 l 340 1354 q 380 1369 355 1369 q 420 1353 404 1369 q 436 1312 436 1336 q 421 1272 436 1287 m 664 1274 l 550 1157 q 509 1141 532 1141 q 468 1157 485 1141 q 452 1197 452 1173 q 468 1239 452 1221 l 582 1354 q 623 1369 599 1369 q 664 1353 646 1369 q 681 1312 681 1336 q 664 1274 681 1289 m 615 956 l 736 839 q 751 798 751 819 l 751 175 q 736 134 751 154 l 615 17 q 575 0 600 0 l 311 0 q 272 17 287 0 l 154 134 q 138 175 138 154 l 138 798 q 154 839 138 819 l 272 956 q 311 972 287 972 l 575 972 q 615 956 600 972 m 568 131 l 619 183 q 637 222 637 201 l 637 750 q 619 789 637 770 l 568 842 q 528 859 553 859 l 359 859 q 319 842 336 859 l 268 789 q 252 750 252 774 l 252 222 q 268 183 252 197 l 319 131 q 359 114 336 114 l 528 114 q 568 131 553 114 z "},"":{"ha":888,"x_min":110,"x_max":779,"o":"m 722 0 l 285 0 q 245 17 260 0 l 125 134 q 110 176 110 153 l 110 798 q 125 839 110 820 l 245 956 q 285 972 260 972 l 722 972 q 763 956 746 972 q 779 916 779 939 q 763 875 779 892 q 722 859 746 859 l 572 859 q 522 838 543 859 q 501 787 501 817 l 501 614 q 522 564 501 585 q 572 543 543 543 l 694 543 q 735 527 718 543 q 751 486 751 510 q 735 446 751 463 q 694 429 718 429 l 572 429 q 522 408 543 429 q 501 358 501 387 l 501 184 q 522 135 501 155 q 572 114 543 114 l 722 114 q 763 97 746 114 q 779 57 779 81 q 763 17 779 33 q 722 0 746 0 m 387 143 l 387 829 q 359 859 387 859 l 332 859 q 292 840 310 859 l 243 790 q 224 750 224 773 l 224 222 q 243 182 224 198 l 292 132 q 332 114 310 114 l 359 114 q 387 143 387 114 z "},"":{"ha":888,"x_min":110,"x_max":779,"o":"m 722 0 l 285 0 q 245 17 260 0 l 125 134 q 110 176 110 153 l 110 798 q 125 839 110 820 l 245 956 q 285 972 260 972 l 722 972 q 763 956 746 972 q 779 916 779 939 q 763 875 779 892 q 722 859 746 859 l 572 859 q 522 838 543 859 q 501 787 501 817 l 501 614 q 522 564 501 585 q 572 543 543 543 l 694 543 q 735 527 718 543 q 751 486 751 510 q 735 446 751 463 q 694 429 718 429 l 572 429 q 522 408 543 429 q 501 358 501 387 l 501 184 q 522 135 501 155 q 572 114 543 114 l 722 114 q 763 97 746 114 q 779 57 779 81 q 763 17 779 33 q 722 0 746 0 m 387 143 l 387 829 q 359 859 387 859 l 332 859 q 292 840 310 859 l 243 790 q 224 750 224 773 l 224 222 q 243 182 224 198 l 292 132 q 332 114 310 114 l 359 114 q 387 143 387 114 z "},"":{"ha":888,"x_min":138,"x_max":751,"o":"m 543 1274 l 428 1157 q 387 1141 410 1141 q 346 1157 363 1141 q 329 1197 329 1173 q 347 1239 329 1221 l 461 1354 q 501 1369 478 1369 q 542 1353 525 1369 q 559 1312 559 1336 q 543 1274 559 1288 m 498 397 l 321 397 q 272 377 292 397 q 252 326 252 356 l 252 57 q 235 17 252 33 q 195 0 218 0 q 154 17 171 0 q 138 57 138 33 l 138 916 q 154 956 138 939 q 195 972 171 972 l 547 972 q 589 956 570 972 l 736 808 q 751 768 751 793 l 751 602 q 734 561 751 580 l 677 504 q 657 456 657 484 q 676 404 657 431 l 736 349 q 751 307 751 328 l 751 57 q 735 17 751 33 q 694 0 718 0 q 654 17 671 0 q 637 57 637 33 l 637 260 q 619 298 637 280 l 539 380 q 498 397 522 397 m 539 528 l 619 610 q 637 650 637 628 l 637 720 q 619 760 637 741 l 539 842 q 498 859 522 859 l 321 859 q 272 838 292 859 q 252 787 252 817 l 252 582 q 272 532 252 553 q 321 511 292 511 l 498 511 q 539 528 523 511 z "},"":{"ha":888,"x_min":138,"x_max":751,"o":"m 543 1274 l 428 1157 q 387 1141 410 1141 q 346 1157 363 1141 q 329 1197 329 1173 q 347 1239 329 1221 l 461 1354 q 501 1369 478 1369 q 542 1353 525 1369 q 559 1312 559 1336 q 543 1274 559 1288 m 498 397 l 321 397 q 272 377 292 397 q 252 326 252 356 l 252 57 q 235 17 252 33 q 195 0 218 0 q 154 17 171 0 q 138 57 138 33 l 138 916 q 154 956 138 939 q 195 972 171 972 l 547 972 q 589 956 570 972 l 736 808 q 751 768 751 793 l 751 602 q 734 561 751 580 l 677 504 q 657 456 657 484 q 676 404 657 431 l 736 349 q 751 307 751 328 l 751 57 q 735 17 751 33 q 694 0 718 0 q 654 17 671 0 q 637 57 637 33 l 637 260 q 619 298 637 280 l 539 380 q 498 397 522 397 m 539 528 l 619 610 q 637 650 637 628 l 637 720 q 619 760 637 741 l 539 842 q 498 859 522 859 l 321 859 q 272 838 292 859 q 252 787 252 817 l 252 582 q 272 532 252 553 q 321 511 292 511 l 498 511 q 539 528 523 511 z "},"":{"ha":888,"x_min":138,"x_max":751,"o":"m 498 397 l 321 397 q 272 377 292 397 q 252 326 252 356 l 252 57 q 235 17 252 33 q 195 0 218 0 q 154 17 171 0 q 138 57 138 33 l 138 916 q 154 956 138 939 q 195 972 171 972 l 547 972 q 589 956 570 972 l 736 808 q 751 768 751 793 l 751 602 q 734 561 751 580 l 677 504 q 657 456 657 484 q 676 404 657 431 l 736 349 q 751 307 751 328 l 751 57 q 735 17 751 33 q 694 0 718 0 q 654 17 671 0 q 637 57 637 33 l 637 260 q 619 298 637 280 l 539 380 q 498 397 522 397 m 539 528 l 619 610 q 637 650 637 628 l 637 720 q 619 760 637 741 l 539 842 q 498 859 522 859 l 321 859 q 272 838 292 859 q 252 787 252 817 l 252 582 q 272 532 252 553 q 321 511 292 511 l 498 511 q 539 528 523 511 m 543 -237 l 428 -355 q 387 -371 410 -371 q 349 -355 364 -371 q 329 -314 329 -336 q 347 -273 329 -292 l 461 -158 q 501 -142 477 -142 q 542 -158 528 -142 q 559 -199 559 -176 q 543 -237 559 -223 z "},"":{"ha":888,"x_min":138,"x_max":751,"o":"m 498 397 l 321 397 q 272 377 292 397 q 252 326 252 356 l 252 57 q 235 17 252 33 q 195 0 218 0 q 154 17 171 0 q 138 57 138 33 l 138 916 q 154 956 138 939 q 195 972 171 972 l 547 972 q 589 956 570 972 l 736 808 q 751 768 751 793 l 751 602 q 734 561 751 580 l 677 504 q 657 456 657 484 q 676 404 657 431 l 736 349 q 751 307 751 328 l 751 57 q 735 17 751 33 q 694 0 718 0 q 654 17 671 0 q 637 57 637 33 l 637 260 q 619 298 637 280 l 539 380 q 498 397 522 397 m 539 528 l 619 610 q 637 650 637 628 l 637 720 q 619 760 637 741 l 539 842 q 498 859 522 859 l 321 859 q 272 838 292 859 q 252 787 252 817 l 252 582 q 272 532 252 553 q 321 511 292 511 l 498 511 q 539 528 523 511 m 543 -237 l 428 -355 q 387 -371 410 -371 q 349 -355 364 -371 q 329 -314 329 -336 q 347 -273 329 -292 l 461 -158 q 501 -142 477 -142 q 542 -158 528 -142 q 559 -199 559 -176 q 543 -237 559 -223 z "},"":{"ha":888,"x_min":138,"x_max":751,"o":"m 350 1356 l 400 1304 q 446 1284 418 1284 q 489 1304 471 1284 l 541 1356 q 575 1369 554 1369 q 610 1355 595 1369 q 624 1320 624 1340 q 610 1284 624 1301 l 481 1154 q 446 1141 466 1141 q 408 1154 423 1141 l 279 1284 q 265 1320 265 1299 q 280 1354 265 1339 q 314 1369 294 1369 q 350 1356 336 1369 m 498 397 l 321 397 q 272 377 292 397 q 252 326 252 356 l 252 57 q 235 17 252 33 q 195 0 218 0 q 154 17 171 0 q 138 57 138 33 l 138 916 q 154 956 138 939 q 195 972 171 972 l 547 972 q 589 956 570 972 l 736 808 q 751 768 751 793 l 751 602 q 734 561 751 580 l 677 504 q 657 456 657 484 q 676 404 657 431 l 736 349 q 751 307 751 328 l 751 57 q 735 17 751 33 q 694 0 718 0 q 654 17 671 0 q 637 57 637 33 l 637 260 q 619 298 637 280 l 539 380 q 498 397 522 397 m 539 528 l 619 610 q 637 650 637 628 l 637 720 q 619 760 637 741 l 539 842 q 498 859 522 859 l 321 859 q 272 838 292 859 q 252 787 252 817 l 252 582 q 272 532 252 553 q 321 511 292 511 l 498 511 q 539 528 523 511 z "},"":{"ha":888,"x_min":138,"x_max":751,"o":"m 350 1356 l 400 1304 q 446 1284 418 1284 q 489 1304 471 1284 l 541 1356 q 575 1369 554 1369 q 610 1355 595 1369 q 624 1320 624 1340 q 610 1284 624 1301 l 481 1154 q 446 1141 466 1141 q 408 1154 423 1141 l 279 1284 q 265 1320 265 1299 q 280 1354 265 1339 q 314 1369 294 1369 q 350 1356 336 1369 m 498 397 l 321 397 q 272 377 292 397 q 252 326 252 356 l 252 57 q 235 17 252 33 q 195 0 218 0 q 154 17 171 0 q 138 57 138 33 l 138 916 q 154 956 138 939 q 195 972 171 972 l 547 972 q 589 956 570 972 l 736 808 q 751 768 751 793 l 751 602 q 734 561 751 580 l 677 504 q 657 456 657 484 q 676 404 657 431 l 736 349 q 751 307 751 328 l 751 57 q 735 17 751 33 q 694 0 718 0 q 654 17 671 0 q 637 57 637 33 l 637 260 q 619 298 637 280 l 539 380 q 498 397 522 397 m 539 528 l 619 610 q 637 650 637 628 l 637 720 q 619 760 637 741 l 539 842 q 498 859 522 859 l 321 859 q 272 838 292 859 q 252 787 252 817 l 252 582 q 272 532 252 553 q 321 511 292 511 l 498 511 q 539 528 523 511 z "},"":{"ha":888,"x_min":138,"x_max":751,"o":"m 543 1274 l 428 1157 q 387 1141 410 1141 q 346 1157 363 1141 q 329 1197 329 1173 q 347 1239 329 1221 l 461 1354 q 501 1369 478 1369 q 542 1353 525 1369 q 559 1312 559 1336 q 543 1274 559 1288 m 637 733 l 637 750 q 619 789 637 770 l 568 842 q 528 859 553 859 l 359 859 q 319 842 336 859 l 268 789 q 252 750 252 774 l 252 653 q 268 612 252 629 l 318 559 q 359 543 334 543 l 576 543 q 616 526 597 543 l 736 408 q 751 368 751 393 l 751 175 q 736 134 751 154 l 615 17 q 576 0 600 0 l 311 0 q 272 17 287 0 l 154 134 q 138 175 138 154 l 138 240 q 154 280 138 264 q 195 296 171 296 q 235 280 218 296 q 252 240 252 264 l 252 222 q 268 183 252 197 l 319 131 q 359 114 336 114 l 528 114 q 568 131 553 114 l 619 183 q 637 222 637 201 l 637 319 q 619 359 637 341 l 570 412 q 528 429 553 429 l 311 429 q 271 446 289 429 l 154 564 q 138 604 138 580 l 138 798 q 154 839 138 819 l 272 956 q 311 972 287 972 l 576 972 q 615 956 600 972 l 736 839 q 751 798 751 819 l 751 733 q 735 693 751 709 q 694 676 718 676 q 654 693 671 676 q 637 733 637 709 z "},"":{"ha":888,"x_min":138,"x_max":751,"o":"m 543 1274 l 428 1157 q 387 1141 410 1141 q 346 1157 363 1141 q 329 1197 329 1173 q 347 1239 329 1221 l 461 1354 q 501 1369 478 1369 q 542 1353 525 1369 q 559 1312 559 1336 q 543 1274 559 1288 m 637 733 l 637 750 q 619 789 637 770 l 568 842 q 528 859 553 859 l 359 859 q 319 842 336 859 l 268 789 q 252 750 252 774 l 252 653 q 268 612 252 629 l 318 559 q 359 543 334 543 l 576 543 q 616 526 597 543 l 736 408 q 751 368 751 393 l 751 175 q 736 134 751 154 l 615 17 q 576 0 600 0 l 311 0 q 272 17 287 0 l 154 134 q 138 175 138 154 l 138 240 q 154 280 138 264 q 195 296 171 296 q 235 280 218 296 q 252 240 252 264 l 252 222 q 268 183 252 197 l 319 131 q 359 114 336 114 l 528 114 q 568 131 553 114 l 619 183 q 637 222 637 201 l 637 319 q 619 359 637 341 l 570 412 q 528 429 553 429 l 311 429 q 271 446 289 429 l 154 564 q 138 604 138 580 l 138 798 q 154 839 138 819 l 272 956 q 311 972 287 972 l 576 972 q 615 956 600 972 l 736 839 q 751 798 751 819 l 751 733 q 735 693 751 709 q 694 676 718 676 q 654 693 671 676 q 637 733 637 709 z "},"":{"ha":888,"x_min":138,"x_max":751,"o":"m 401 1204 l 349 1154 q 314 1141 336 1141 q 280 1155 294 1141 q 265 1189 265 1169 q 279 1226 265 1208 l 411 1356 q 446 1369 422 1369 q 481 1356 467 1369 l 611 1226 q 624 1189 624 1209 q 611 1155 624 1168 q 576 1141 597 1141 q 541 1154 555 1141 l 489 1204 q 446 1223 472 1223 q 401 1204 418 1223 m 637 733 l 637 750 q 619 789 637 770 l 568 842 q 528 859 553 859 l 359 859 q 319 842 336 859 l 268 789 q 252 750 252 774 l 252 653 q 268 612 252 629 l 318 559 q 359 543 334 543 l 576 543 q 616 526 597 543 l 736 408 q 751 368 751 393 l 751 175 q 736 134 751 154 l 615 17 q 576 0 600 0 l 311 0 q 272 17 287 0 l 154 134 q 138 175 138 154 l 138 240 q 154 280 138 264 q 195 296 171 296 q 235 280 218 296 q 252 240 252 264 l 252 222 q 268 183 252 197 l 319 131 q 359 114 336 114 l 528 114 q 568 131 553 114 l 619 183 q 637 222 637 201 l 637 319 q 619 359 637 341 l 570 412 q 528 429 553 429 l 311 429 q 271 446 289 429 l 154 564 q 138 604 138 580 l 138 798 q 154 839 138 819 l 272 956 q 311 972 287 972 l 576 972 q 615 956 600 972 l 736 839 q 751 798 751 819 l 751 733 q 735 693 751 709 q 694 676 718 676 q 654 693 671 676 q 637 733 637 709 z "},"":{"ha":888,"x_min":138,"x_max":751,"o":"m 401 1204 l 349 1154 q 314 1141 336 1141 q 280 1155 294 1141 q 265 1189 265 1169 q 279 1226 265 1208 l 411 1356 q 446 1369 422 1369 q 481 1356 467 1369 l 611 1226 q 624 1189 624 1209 q 611 1155 624 1168 q 576 1141 597 1141 q 541 1154 555 1141 l 489 1204 q 446 1223 472 1223 q 401 1204 418 1223 m 637 733 l 637 750 q 619 789 637 770 l 568 842 q 528 859 553 859 l 359 859 q 319 842 336 859 l 268 789 q 252 750 252 774 l 252 653 q 268 612 252 629 l 318 559 q 359 543 334 543 l 576 543 q 616 526 597 543 l 736 408 q 751 368 751 393 l 751 175 q 736 134 751 154 l 615 17 q 576 0 600 0 l 311 0 q 272 17 287 0 l 154 134 q 138 175 138 154 l 138 240 q 154 280 138 264 q 195 296 171 296 q 235 280 218 296 q 252 240 252 264 l 252 222 q 268 183 252 197 l 319 131 q 359 114 336 114 l 528 114 q 568 131 553 114 l 619 183 q 637 222 637 201 l 637 319 q 619 359 637 341 l 570 412 q 528 429 553 429 l 311 429 q 271 446 289 429 l 154 564 q 138 604 138 580 l 138 798 q 154 839 138 819 l 272 956 q 311 972 287 972 l 576 972 q 615 956 600 972 l 736 839 q 751 798 751 819 l 751 733 q 735 693 751 709 q 694 676 718 676 q 654 693 671 676 q 637 733 637 709 z "},"":{"ha":888,"x_min":138,"x_max":751,"o":"m 637 733 l 637 750 q 619 789 637 770 l 568 842 q 528 859 553 859 l 359 859 q 319 842 336 859 l 268 789 q 252 750 252 774 l 252 653 q 268 612 252 629 l 318 559 q 359 543 334 543 l 576 543 q 616 526 597 543 l 736 408 q 751 368 751 393 l 751 175 q 736 134 751 154 l 615 17 q 576 0 600 0 l 484 0 l 484 -29 q 501 -72 484 -54 l 585 -153 q 595 -178 595 -167 l 595 -264 q 586 -288 595 -273 l 510 -361 q 488 -371 502 -371 l 400 -371 q 378 -361 386 -371 l 339 -322 q 326 -294 326 -309 q 338 -268 326 -279 q 367 -257 351 -257 q 395 -267 385 -257 l 403 -275 q 446 -293 420 -293 q 486 -275 469 -293 l 498 -262 q 517 -221 517 -244 q 498 -180 517 -199 l 416 -100 q 404 -68 404 -85 l 404 0 l 311 0 q 272 17 287 0 l 154 134 q 138 175 138 154 l 138 240 q 154 280 138 264 q 195 296 171 296 q 235 280 218 296 q 252 240 252 264 l 252 222 q 268 183 252 197 l 319 131 q 359 114 336 114 l 528 114 q 568 131 553 114 l 619 183 q 637 222 637 201 l 637 319 q 619 359 637 341 l 570 412 q 528 429 553 429 l 311 429 q 271 446 289 429 l 154 564 q 138 604 138 580 l 138 798 q 154 839 138 819 l 272 956 q 311 972 287 972 l 576 972 q 615 956 600 972 l 736 839 q 751 798 751 819 l 751 733 q 735 693 751 709 q 694 676 718 676 q 654 693 671 676 q 637 733 637 709 z "},"":{"ha":888,"x_min":138,"x_max":751,"o":"m 637 733 l 637 750 q 619 789 637 770 l 568 842 q 528 859 553 859 l 359 859 q 319 842 336 859 l 268 789 q 252 750 252 774 l 252 653 q 268 612 252 629 l 318 559 q 359 543 334 543 l 576 543 q 616 526 597 543 l 736 408 q 751 368 751 393 l 751 175 q 736 134 751 154 l 615 17 q 576 0 600 0 l 484 0 l 484 -29 q 501 -72 484 -54 l 585 -153 q 595 -178 595 -167 l 595 -264 q 586 -288 595 -273 l 510 -361 q 488 -371 502 -371 l 400 -371 q 378 -361 386 -371 l 339 -322 q 326 -294 326 -309 q 338 -268 326 -279 q 367 -257 351 -257 q 395 -267 385 -257 l 403 -275 q 446 -293 420 -293 q 486 -275 469 -293 l 498 -262 q 517 -221 517 -244 q 498 -180 517 -199 l 416 -100 q 404 -68 404 -85 l 404 0 l 311 0 q 272 17 287 0 l 154 134 q 138 175 138 154 l 138 240 q 154 280 138 264 q 195 296 171 296 q 235 280 218 296 q 252 240 252 264 l 252 222 q 268 183 252 197 l 319 131 q 359 114 336 114 l 528 114 q 568 131 553 114 l 619 183 q 637 222 637 201 l 637 319 q 619 359 637 341 l 570 412 q 528 429 553 429 l 311 429 q 271 446 289 429 l 154 564 q 138 604 138 580 l 138 798 q 154 839 138 819 l 272 956 q 311 972 287 972 l 576 972 q 615 956 600 972 l 736 839 q 751 798 751 819 l 751 733 q 735 693 751 709 q 694 676 718 676 q 654 693 671 676 q 637 733 637 709 z "}}}
